<?xml version="1.0" encoding="utf-8"?>
<!-- Generator: Adobe Illustrator 25.3.0, SVG Export Plug-In . SVG Version: 6.00 Build 0)  -->
<svg version="1.1" id="Layer_1" xmlns="http://www.w3.org/2000/svg" xmlns:xlink="http://www.w3.org/1999/xlink" x="0px" y="0px"
	 viewBox="0 0 512 599" style="enable-background:new 0 0 512 599;" xml:space="preserve">
<style type="text/css">
	.st0{stroke:#FFFFFF;stroke-miterlimit:10;}
</style>
<path id="Dyfed-Powys" d="M261.03,453.38c-0.16,0.2-0.43,0.59-0.75,0.92c-0.93,0.96-2.32,1.74-2.7,2.87
	c-0.41,1.25-2.57,2.17-0.88,4.17c0.65,0.77-1.12,1.66-1.86,2.33c-0.92,0.83-1.13,2.16-0.68,2.64c1.64,1.73,2.71,4.3,5.42,4.65
	c1.48,0.19,1.58,0.18,0.65,1.5c-1.51,2.14-2.66,4.54-3.93,6.84c-0.41,0.75-0.5,1.74-0.04,2.31c2.03,2.52,2.06,5.81,3.45,8.57
	c0.74,1.47-0.68,4.36-2.12,4.8c-1.74-1.99-4.31-0.15-5.97-1.17c-1.19-0.73-1.52-0.16-2.27,0.17c-2.26,1-4.43,2.31-7.04,2.3
	c-0.37,0-0.34,1.01-1.07,0.39c-1.09-0.93-1.74-2.43-3.38-2.68c-1.74,2.19-5.02,1.97-6.69,4.37c-1.81,2.6-4.23,3.44-6.7,2.4
	c-0.48-0.2-1.95-0.73-0.69-2.13c0.41-0.46-1.17-1.96-1.66-1.55c-2.02,1.72-4.89-0.04-6.75,1.89c-0.29,0.3-1.13,0.26-1.22,0.54
	c-1.21,3.78-5.09,2.94-7.62,4.4c-0.66,0.38-1.93,0.41-2.67-0.65c-0.47-0.67-1.73-1.36-1.62-1.75c0.26-0.91,1.4-0.44,2.17-0.52
	c0.33-0.04,0.69,0.07,0.99-0.03c0.25-0.08,0.44-0.35,0.65-0.54c-0.27-0.15-0.59-0.47-0.81-0.41c-1.9,0.49-3.76-2.66-5.65-0.06
	c-0.35-0.35-0.69-0.73-1.06-1.05c-0.68-0.58-0.05-0.9,0.3-0.88c1.23,0.05,1.62-1,2.34-1.61c0.77-0.64,1.6-1.44,0.45-2.37
	c-0.77-0.62-0.1-2.58-2.05-2.09c-0.78,0.2-1.66,0.01-2.49,0.04c-0.62,0.02-0.87-0.3-0.96-0.84c-0.09-0.54,0.14-0.93,0.62-1.17
	c1.38-0.67,2.75-1.4,4.18-1.96c0.43-0.17,1.17-0.15,1.16-0.61c-0.11-3.66,1.5-1.87,3.52-1.72c2.17,0.16,4.96-1.47,6.35-3.31
	c1.33-1.76,2.56-2.46,4.52-2.38c1.36,0.06,2.35-0.37,3.53-1.21c1.48-1.05,2.98-2.18,4.7-3.02c4.58-2.24,6.57-6.63,7.23-11.28
	c0.33-2.34,1.71-3.28,3.03-3.36c3.38-0.2,5.16-1.37,5.18-4.94c0.01-1.49,1.06-2.28,2.63-2.2c0.66,0.03,1.35,0.1,1.99-0.01
	c1.39-0.24,2.38-0.92,2.33-2.53c-0.02-0.5-0.11-1.03,0.02-1.49c0.36-1.3-1-3.18,0.84-3.9c2.44-0.96,4.66-3.76,7.79-1.14
	c0.55,0.46,1.54,0.38,1.34,1.45c-0.51,2.63,0.42,4.33,3.02,5.2C260.58,451.75,261.21,452.32,261.03,453.38z"/>
<path id="Devon_Cornwall" d="M234.59,522.99c1.54-0.31,2.21,0.11,2.72,2.37c0.49,2.18,3.22,3.43,5.35,4.58
	c0.5,0.27,1.09,0.04,1.48,0.85c1.21,2.58,1.32,2.66,3.86,1.69c0.82-0.31,1.33-0.72,2.09-0.02c3.36,3.13,7.62,4.91,11.47,7.29
	c1.51,0.93,2.19,1.74,1.98,3.23c-0.32,2.23-1.77,3.68-3.62,3.99c-0.32,0.05-0.67,0.06-0.99,0c-1.86-0.36-3.13,0.5-4.22,1.88
	c-0.49,0.62-1.01,1.15-2.02,1.17c-1.7,0.03-2.02,0.84-2.84,1.59c-2.1,1.91-0.95,4.95-2.71,6.92c-0.21,0.24-0.18,0.93,0.33,1.32
	c0.74,0.58,0.89,1.2,0.23,2.06c-1.34,1.73-3.95,2.56-3.68,5.5c0.07,0.72-3.89,0.85-4.9,0.04c-0.77-0.62-1.45-1.37-2.12-2.11
	c-0.79-0.88-1.6-1.74-2.93-1.36c-2.19,0.63-3.37-0.82-4.59-2.16c-1.38-1.51-1.22-0.24-1.45,0.7c-0.13,0.54-0.91,0.64-1.26,0.42
	c-2.42-1.56-4.64-1.26-7.23-0.09c-1.52,0.68-3.6,0.19-5.43,0.11c-1.76-0.08-2.87,0.68-2.94,2.41c-0.07,1.61-0.94,2.49-2.3,2.54
	c-1.17,0.04-1.69,0.83-2.51,1.24c-0.64,0.32-1.44,4.06-2.51,0.15c-0.18-0.64-0.73,0.23-0.68,0.56c0.2,1.31-0.37,2.23-1.36,2.94
	c-0.76,0.55-0.59,0.97,0.06,1.42c1.13,0.79,1.35,1.55,0.08,2.49c-0.77,0.57-1.76,0.97-2.33,1.49c-1.27,1.15-1.84,0.2-2.15-0.48
	c-0.47-1.04-1.12-1.87-1.77-2.77c-1.16-1.62-2.89-1.83-4.5-2.47c-0.45-0.18-0.67-0.46-1.08,0.01c-0.55,0.62-1.19,1.17-1.75,1.78
	c-1.02,1.11-2.22,2.45-3.71,1.57c-1.21-0.72-0.26-2.45-0.51-3.71c-0.1-0.55,0.15-0.93,0.64-1.15c1.55-0.68,3.07-1.43,4.67-1.97
	c1.19-0.4,2.77,0.61,3.72-0.61c2.05-2.63,5.9-3.24,7.11-6.94c0.85-2.58,3.85-3.98,4.23-7.18c0.16-1.33,2.4-2,3.9-2.2
	c1.13-0.15,1.98-0.53,2.43-1.36c1.77-3.28,4.95-5.42,6.79-8.65c0.46-0.81,0.56-1.54,0.46-2.3c-0.29-2.3,0.54-4.4,0.99-6.58
	c0.3-1.47,0.96-1.62,1.92-0.77c1.18,1.05,2.52,0.42,3.77,0.53c0.93,0.08,3.73-3.78,3.19-4.5c-0.88-1.19-1.45-2.2-0.36-3.45
	c1.08-1.23,2.48-1.93,4.14-2.01C232.57,522.96,233.4,522.99,234.59,522.99z"/>
<path id="North_Yorkshire" d="M291.16,368.08c0.06,0.01,1.15-0.17,1.59,0.28c1.22,1.26,1.91-0.04,2.84-0.14
	c1.24-0.13,1.68-1.68,3.07-1.2c1.58,0.55,1.08-1.2,1.69-1.71c0.66-0.55,1.59-0.41,2.3-0.09c0.57,0.26,0.95,0.91,1.43,1.37
	c1.24,1.14,1.24,1.13,4.23,0.7c0.45-0.06,1.13-0.28,1.31-0.08c1,1.14,1.64,0.75,2.85,0.04c2.78-1.63,5.63-1.61,9.7-0.54
	c0.83,0.22,1.76-0.96,2.47,0.23c0.43-0.66,1.39-0.91,1.41-1.92c0.01-0.62-0.39-1.54,0.37-1.79c1.06-0.35,2.74-0.68,3.23,0.11
	c1.32,2.12,4.59,1.46,5.36,4.07c0.63,2.12,2.42,3.5,3.22,5.66c0.8,2.17,0.96,5.5,4.38,6.1c0.56,0.1,0.5,0.85,0.38,1.29
	c-0.14,0.5-0.67,0.56-1.18,0.6c-1.8,0.13-2.98-1.99-4.52-1.63c-1.53,0.36-1.19,3.03-2.9,3.58c-2.03,0.65-3.81,1.62-5.1,3.31
	c-0.78,1.02-1.77,0.64-2.71,0.71c-3.23,0.24-4.5,1.59-4.54,4.91c-0.03,2.33-0.03,4.66,0.01,6.99c0.02,1.03,0.07,2.14-1.01,2.55
	c-1.74,0.66-2.98,1.64-3.51,3.49c-0.04,0.14-1.34,0.04-1.23-0.21c1-2.11-0.26-2.52-1.88-2.88c-0.59-0.13-0.34-0.84-0.38-1.31
	c-0.14-1.41,0.47-2.93-0.93-4.15c-0.29-0.25-0.12-1.44,0.25-2.29c0.83-1.9,0.09-2.87-1.81-3.11c-1.99-0.25-3.83,0.69-5.51,1.22
	c-2.67,0.85-4.7-0.48-7-0.75c-0.72-0.09-1.36-0.7-2.06-1.01c-2.13-0.93-3.14-0.48-3.89,1.84c-0.19,0.58,0.11,1.37-0.58,1.74
	c-0.42,0.22-0.83,1.9-1.47,0.06c-0.73-2.11-2.81-3.13-4.19-4.74c-0.25-0.29-0.89-0.35-1.34-0.32c-1.03,0.07-1.59-0.26-1.44-1.36
	c0.17-1.28-0.32-1.86-1.63-1.66c-0.16,0.03-0.38,0.07-0.49-0.01c-1.28-0.93-2.99-1.57-2.86-3.57c0.13-1.87,1.51-3.17,3.03-3.31
	c2.83-0.25,3.23-1.89,2.9-4.01c-0.3-1.89,0.75-3.41,1.17-5.05C286.64,368.32,288.62,367.99,291.16,368.08z"/>
<path id="Cumbria" d="M257.08,378.9c0-0.68,0.03-1.02-0.02-1.35c-0.02-0.13-0.27-0.36-0.33-0.33c-0.24,0.09-0.55,0.22-0.64,0.42
	c-1.2,2.61-1.6,2.74-3.16,0.72c-0.75-0.97-1.8-2.17-1.74-3.21c0.16-3.15-2.15-4.84-3.57-7.05c-0.51-0.79-1.24-1.32-1.64-2.32
	c-0.51-1.25-0.6-1.86-0.15-3.3c0.48-1.53,1.94-3.09,1.28-5c-0.34-0.97,0.59-1.42,0.99-2.08c1.29-2.12,2.16-4.42,3.08-6.71
	c0.56-1.4,1.21-3.28,3.7-2.71c1.36,0.31,1.65-0.77,0.8-1.8c-0.56-0.68-0.69-1.06,0.35-1.11c1-0.05,2,0,2.99-0.01
	c3.03-0.03,3.15,0,4-3.31c0.28-1.09,0.27-1.93,1.65-1.68c1.25,0.23,1.63-0.92,2.39-1.47c1.05-0.77,1.56-2.25,2.95-2.49
	c1.27-0.23,1.75-2.01,2.6-1.81c0.67,0.16,1.31,1.74,1.4,2.74c0.15,1.54,1.56,0.77,2.14,1.53c0.9,1.19,2.84,2.08,0.37,3.56
	c-0.51,0.3-0.44,0.83-0.44,1.31c0,2.33-0.01,4.66,0.01,6.99c0.01,0.46,0.02,1.04,0.28,1.37c0.62,0.78,1.28,1.65,2.13,2.06
	c0.49,0.24,1.15-0.69,1.97-0.88c1.54-0.36,2.43-0.29,2.59,0.96c0.1,0.82,0.36,2.1-0.04,2.42c-1.8,1.4,0.06,2.58-0.06,3.73
	c-0.23,2.22,0.96,3.34,2.25,4.63c0.68,0.68,1.51,1.39,1.79,2.24c0.24,0.71,0.57,2.38-1.06,2.05c-2.39-0.48-1.54,2.16-2.86,2.59
	c0.52,1.29-2.01,2.06-0.34,3.86c1.12,1.21,0.2,3.39-1.23,3.51c-2.04,0.17-3.44,1.64-5.18,1.96c-1.25,0.23-2.48,1.4-4.21,0.27
	c-1.64-1.07-4,0.34-5.37,1.11c-1.6,0.89-2.65,1.55-4.39,0.81c-0.57-0.24-1.37-0.01-1.26,0.96c0.1,0.83-0.96,1-0.97,1.58
	c-0.01,1.33-1,2.39-1.8,1.96c-1.14-0.61-2.56-1.6-2.26-3.47C256.26,380.88,257.95,380.08,257.08,378.9z"/>
<path id="West_Mercia" d="M263.61,443.02c1.41,0.2,3.02-0.74,3.86,1.67c0.43,1.23,3.25,0.25,3.5-1.69c0.29-2.29,2.65-2.74,3.23-4.6
	c0.15-0.48,0.64-0.49,0.66-0.06c0.16,2.42,1.98,1.53,3.25,1.65c0.6,0.06,0.93,0.31,0.94,0.86c0.03,1.55-0.47,3.36,1.95,3.61
	c-1.56,1.67,0.04,2.94,0.9,3.74c1.35,1.26,1.04,2.64,1.17,4.07c0.08,0.89,0.98,0.57,1.49,0.82c0.66,0.33,0.79,1.42,0.22,1.59
	c-1.99,0.61-2.37,1.32-0.78,2.89c0.33,0.33,0.32,1.62-0.01,1.89c-2.26,1.87,0.11,3.13,0.61,4.5c0.57,1.55,2.23,1.05,3.5,1.03
	c1.51-0.02,2.97-0.04,3.9,1.47c0.41,0.67,1.13,0.47,1.76,0.57c2.57,0.4,3.14,1.38,1.5,3.15c-2.18,2.36-1.04,4.96-0.99,7.46
	c0.01,0.62,1.06,1.55,2.33,1.41c1.85-0.21,1.31,0.44,0.51,1.45c-1.02,1.3-2.59,1.15-3.75,1.83c-1.56,0.92-2.51,0.83-3.89-0.21
	c-0.43-0.32-1.91-0.8-2.58,1.12c-0.8,2.27-1.43,2.27-3.47,0.55c-1.55-1.3-3.14-0.54-4.7-0.75c-0.39-0.05-1.57,3.32-1.13,3.93
	c1.79,2.49-0.61,2.85-1.82,3.78c-0.47,0.36-1.14,0.46-1.69,0.73c-3.92,1.98-3.9,1.97-6.9-0.81c-0.69-0.64-1.16-1.89-2.29-1.62
	c-3.18,0.75-3.76-1.87-4.79-3.69c-1.3-2.3-1.69-4.87-0.5-7.33c1.14-2.37,2.58-4.59,3.84-6.9c0.95-1.75,0.8-2.24-0.8-2.04
	c-2.44,0.3-4.16-0.62-5.47-2.5c-0.29-0.42-1.46-0.5-0.75-1.38c0.39-0.48,1.02-1.15,1.49-1.11c1.78,0.15,3.19-0.25,4.33-1.71
	c1.19-1.52,1.28-3.32-0.51-4.01c-2.23-0.86-1.3-1.36-0.27-2.24c0.87-0.74,0.64-2.16,1.76-2.78c1.07-0.59,0.59-1.16-0.09-1.76
	c-0.83-0.75-1.57-1.49-2.75-1.84c-0.8-0.24-1.33-1.17-1.38-2.37C258.88,443.67,259.45,443.02,263.61,443.02z"/>
<path id="Northumbria" d="M286,315.97c1.16-2.5-1.79-3.63-2.38-5.73c-0.21-0.76-0.91-1.3-0.14-2.08c1.22-1.24,2.11-3.02,3.33-3.91
	c1.36-0.98,1.53-2.61,2.91-3.44c0.94-0.57,1.6-1.2,2.44-0.11c1.27,1.64,3.27,2.58,3.98,4.84c0.55,1.76,2.77,2.45,4.15,3.02
	c3.23,1.34,3.12,4.01,3.73,6.49c0.19,0.78,0.01,1.65,0.03,2.49c0.05,1.91,0.08,3.72,0.86,5.63c0.61,1.49,0.54,3.34,1,5.05
	c0.44,1.62,1.78,3.07,1.19,5.05c-0.44,1.47,0.87,2.64,1.53,3.8c1.63,2.89,1.91,6.19,3.13,9.18c0.34,0.84-0.3,0.86-0.57,0.78
	c-1.15-0.32-1.62,2.18-2.95,0.72c-1.84-2.02-4.13-2.88-6.82-2.81c-1.13-1.63-2.01,0.56-3.24,0.23c-1.16-0.31-1.96,0.81-2.16,2.09
	c-0.05,0.31,0,0.67-0.84,0.54c-2.89-0.43-4.96,0.02-6.76,1.46c-1.54,1.23-3.1,1.32-4.39,0.17c-1.56-1.38-2.73-2.08-4.59-0.44
	c-0.64,0.57-1.31-0.19-1.45-1.26c-0.15-1.17,0.93-1.65,1.05-2.58c0.14-1.04-1.37-1.39-1.03-2.59c0.17-0.59,0.08-1.06,0.78-1.55
	c2.89-1.99,2.78-2.55-0.24-4.98c-1.16-0.93-2.02-2.26-3.21-3.12c-1.91-1.37-1.17-3.25-1.27-4.98c-0.05-0.95,1.01-0.59,1.35-0.91
	c2.79-2.65,6.55-3.97,9.17-6.9C285.7,318.9,286.24,317.77,286,315.97z"/>
<path id="North_Wales" d="M226.2,443.01c-2.65-0.01-4.99,0.33-6.17,3.33c-0.5,1.26-1.51,2.59-3.35,0.87
	c-1.1-1.03-2.06,1.37-3.48,0.83c-0.56-0.21-1.24,0.03-0.64-1.03c1.19-2.12,2.46-3.99,4.85-5.03c3.84-1.68,6.3-4.58,7.14-8.82
	c0.13-0.67,0.7-1.04-0.37-1.13c-3.72-0.32-4.71-3.39-6.06-6.06c-0.27-0.54-0.08-1.19-0.35-1.85c-1.16-2.89-0.89-4,0.83-5.09
	c2.4-1.52,4.59-1.36,6.46,0.48c0.59,0.58,1.51,1.08,1.71,1.78c0.64,2.34,2.05,3.13,4.33,2.76c0.26-0.04,0.56,0.22,0.84,0.34
	c-0.14,0.24-0.25,0.5-0.44,0.7c-0.57,0.61-1.2,1.16-1.75,1.78c-0.23,0.27-1.04,0.52-0.27,1.03c0.24,0.16,0.73,0.24,0.93,0.1
	c1.92-1.36,4.54-1.2,6.3-2.94c0.25-0.25,1.18,0.07,1.25-0.47c0.34-2.49,2.11-1.91,3.02-1c1.72,1.71,3.2,1.85,5.04,0.46
	c0.21-0.16,0.68,0.06,0.98-0.03c2.36-0.75,4.77-2.76,7.1-1.83c2.42,0.96,4.35,3.17,6.46,4.88c0.64,0.52,1.23,1.13,1.75,1.77
	c0.21,0.26,1.06,0.31,0.39,1.06c-1.81,2.01,0.16,3.04,1.1,4.49c1.08,1.66,1.64,3.65,2.58,5.4c0.22,0.42,1.08,0.5,1.65,0.73
	c-0.46,0.66-1.21,0.64-1.78,0.47c-3.08-0.93-6-1.08-8.8,0.97c-0.54,0.4-1.66,0.22-2.45,0.03c-2.21-0.55-4.09,0.68-6.06,1.14
	c-3.46,0.8-3.84,1.71-3.89,5.48c-0.01,0.67-0.05,1.34,0.01,2c0.09,1.06-0.32,1.45-1.39,1.43c-1.6-0.03-3.3-0.47-4.48,1.28
	c-0.55,0.81-1.09,1.42-1.2,2.53c-0.28,2.76-0.41,2.75-3.15,3.16c-0.48,0.07-1.15-0.08-1.4,0.19c-1.54,1.61-2.25-0.38-2.27-0.87
	c-0.07-1.7-0.71-3.59,1.06-5.02c1.51-1.22,1.19-1.83-0.7-2.56c-0.73-0.29-1.49-2.15-1.54-3.74
	C229.91,443.19,229.62,443.04,226.2,443.01z"/>
<path id="Lincolnshire" d="M360.97,428.69c0.11,4.04-0.57,6.21-3.61,7.64c-2.83,1.32-3.64,4.9-6.03,6.93
	c-0.66,0.56,0.18,0.68,0.56,0.75c0.95,0.17,1.94-0.24,2.89,0.27c1.42,0.76,1.67,2.33,0.32,3.09c-1.68,0.95-4.16,0.8-4.45,3.51
	l-4.76,0.52c-1.05-1.49-1.9,1.11-2.74,0.21c-1.28-1.38-1.92,0.16-2.87,0.36c-0.87,0.19-1.57,0.08-0.64-1.23
	c0.52-0.73-0.76-1.78-1.59-1.65c-2.38,0.39-3.12-2.93-5.66-2.29c-0.56,0.14,0.02-1.62-0.41-2.18c-1.3-1.71-1.52-3.72-2.15-5.64
	c-0.61-1.85-0.74-2.88,0.75-4c0.66-0.49,0.39-1.19,0.45-1.82c0.21-2.38-0.56-4.84,0.94-7.12c0.52-0.79-0.03-1.86-0.95-2.55
	c-2.41-1.81-1.43-5.04-2.94-7.28c-0.54-0.8,0.71-1.3,1-2.04c0.63-1.6,1-1.58,1.95-0.2c1.71,2.48,3.72,2.94,5.7,0.67
	c1.37-1.57,2.98-2.91,4.23-4.55c0.38-0.51,0.44-1.14,1.24-1.07c0.95,0.08,0.91,0.81,0.82,1.45c-0.29,2.13,0.3,3.87,2.1,5.13
	c1.39,0.97,3.28,0.31,3.69-1.3c0.45-1.73,1.52-2.29,2.61-1.4c0.97,0.79,1.83,1.64,3.04,2.27c1.93,1.01,2.88,3.16,3.7,5.36
	C359.28,423.6,360.48,426.61,360.97,428.69z"/>
<path id="Thames_Valley" d="M310.3,481c0.82,0.04,1.72-0.22,1.76,1.1c0.03,0.94,0.85,1.56,1.08,2.56c0.58,2.62,1.51,2.79,4.16,1.63
	c1.18-0.52,2.14-0.97,2.81-2.27c0.78-1.53,2.39-1.74,3.74-0.64c1.07,0.87,2,0.9,3.09,0.23c1.18-0.72,1.65-2.27,1.01-2.96
	c-1.36-1.43-0.21-1.97,0.56-2.52c0.44-0.32,1.14-0.28,1.7-0.71c0.5-0.39,1.44-1.79,1.53-0.98c0.14,1.25,2.2,1.82,1,3.41
	c-0.95,1.26-1.89,2.63-0.75,4.39c0.28,0.44,0.04,1.18-0.41,1.79c-0.58,0.8-1.46,2.27-1.17,2.66c1.37,1.79-0.99,1.64-1.11,2.55
	c-0.06,0.45-0.28,1.23-0.14,1.3c1.91,0.99,1.61,3.82,4.03,4.54c1.53,0.46,1.35,0.87,2.07,4.21c0.21,0.98,0.95,1.83,1.33,2.78
	c1.02,2.49,0.57,4.06-1.87,5.87c-0.66,0.49-0.46,1.34-0.78,1.53c-2.18,1.31-3.58,4.2-7.18,2.66c-2.05-0.88-4.8,0.22-7.01-1.15
	c-2.67,1.91-5.71,0.75-8.58,0.96c-2.56,0.18-2.51,0.01-3.15-2.61c-0.37-1.52-1.13-2.87-2.17-4.11c-1.23-1.46-1.95-3.17-1.85-5.24
	c0.07-1.54-0.07-3.01-0.75-4.66c-0.96-2.28,0.82-4.84,1.32-7.3c0.32-1.59,0.97-2.92,2.65-3.9c1.17-0.68,1.95-2.43,1.83-4.14
	C308.97,481.01,309.67,481.03,310.3,481z"/>
<path id="Norfolk" d="M383.04,464.01c-1.44-0.25-3.02,0.41-4.59-0.82c-0.69-0.55-2.44-0.66-3.64,0.44c-1.02,0.93-1.85,0.52-1.8-0.9
	c0.04-1.2-0.2-1.9-1.61-1.73c-0.82,0.1-1.66,0.03-2.49,0.02c-2.41-0.03-4.89,0.44-6.77-1.91c-0.3-0.37-1.34-1.35-2.47-1.11
	c-1.24,0.27-1.71-0.26-1.71-1.6c0.01-1.73,0.16-3.38-0.83-5.15c-0.99-1.77,1.05-3.52,2.95-3.26c2.48,0.34,3.5-0.06,3.79-2.11
	c0.17-1.21,0.78-2.1,1.22-3.02c0.83-1.76,2.18-3.26,4.57-2.84c2.67,0.46,5.58-0.97,8.09,0.99c0.21,0.16,0.72,0.15,0.97,0
	c3.5-1.98,6.53,0.69,9.73,1.19c1.94,0.3,4.31,1.15,5.61,3.32c0.44,0.75,1.43,1.14,2.27,1.62c1.93,1.11,3.49,2.88,4.3,5.07
	c0.41,1.09,1.39,2.57-0.98,2.85c-0.4,0.05-0.95,0.53-1.08,0.92c-0.83,2.6-2.52,3.58-5.18,3.06c-0.64-0.12-0.97,0.24-1.47,0.81
	C388.21,464.07,388.16,464.02,383.04,464.01z"/>
<path id="Avon_Somerset" d="M266.04,538.98c-1.3,0.5-1.95-1.05-3.08-0.98c-1.47,0.08-0.31-2.39-2.08-2.04
	c-1.03,0.2-1.99,0.12-1.86-1.46c0.04-0.42-0.71-0.61-1.21-0.51c-1.87,0.36-2.92-0.82-4.23-1.9c-2.52-2.08-2.63-1.96-5.5-2.1
	c-0.81-0.04-1.57,0.1-2.22-0.69c-1.45-1.76-3.69-2.37-5.64-3.21c-2.18-0.94-0.21-1.25,0.03-1.73c0.39-0.75,2.21,0.05,1.86-1.66
	c-0.04-0.18,0.34-0.44,0.52-0.67c2.12,2.3,5,0.17,7.43,1.33c2.61,1.24,4.01,1.02,7.39,0.65c1.58-0.17,3.13,0.06,4.62-0.95
	c0.61-0.41,1.1-0.63,0.97-1.32c-1-5.48,2.69-8.67,6.29-11.26c2.58-1.86,4.42-3.86,5.75-6.62c0.97-2.01,1.28-1.63,3.61-1
	c1.74,0.47,2.32,2.84,4.65,2.24c1.03-0.27,0.95,1.54,0.65,1.89c-2.12,2.49,0.29,5.85-1.71,8.31c-0.08,0.1,0.15,0.46,0.26,0.69
	c2.26,4.6,2.21,5.54-0.89,9.85c-0.54,0.75-0.97,1.31-0.18,2.07c1.93,1.87-0.43,3.18-0.69,4.75c-0.1,0.59-0.98,0.23-1.64-0.02
	c-3.45-1.29-3.58-1.13-5.11,2.33c-0.73,1.66-1.77,3.28-3.92,2.96C268.53,537.7,267.6,539.46,266.04,538.98z"/>
<path id="Sussex" d="M330.61,529.07c1.78,2.53,3.35-0.85,5.24-0.16c2.04,0.75,3.93-0.85,5.92-1.26c1.77-0.37,3.43-1.32,5.12-2.06
	c0.36-0.16,0.55-0.81,1.07-0.17c0.9,1.11,2.23,0.67,3.25,0.51c3.65-0.6,6.98,1.22,10.58,1.21c1.46-0.01,2.9,1.67,4.39,2.52
	c1.9,1.08,3.46,3.71,6.17,1.48c1.02,1.41,3.17,0.19,4.13,1.81c0.61,1.03,2,1.48,2.22,2.83c-1.14,0.07-2.28,0.25-3.41,0.18
	c-1.72-0.11-2.99,0.37-4.43,1.48c-1.64,1.27-3.84,2-5.92,2.47c-2.13,0.48-3.88,1.35-5.28,2.94c-1.14,1.29-2.19,1.38-3.8,0.57
	c-3.62-1.81-7.75-2.09-11.59-3.33c-1.12-0.36-2.65,0.69-4.01,1.02c-3.21,0.78-6.61,0.51-9.7,1.84c-0.54,0.23-1.46-0.12-1.49,0.78
	c-0.04,1.16-0.65,1.51-1.55,1.18c-0.74-0.27-0.72-1.35-0.44-1.72c1.2-1.56,0.2-2.86-0.45-4.03c-0.97-1.74-1.08-3.58-0.1-5.02
	c1.04-1.54,0.67-4.24,3.38-4.55C330.16,529.56,330.37,529.25,330.61,529.07z"/>
<path id="Essex" d="M358.31,501c-0.85,0-1.44,0.17-1.83-0.03c-1.04-0.52-1.85,1.53-2.27,0.53c-0.36-0.84-1.08-1.51-1.22-2.49
	c-0.33-2.29,0.11-3.49,2.41-3.92c2.12-0.39,2.14-1.66,2.79-3.24c0.67-1.63,1.13-2.62-0.47-3.59c-0.86-0.53-0.53-1.45-1.01-2.1
	c-0.63-0.84-1.06-1.82-1.58-2.74c1.87,0.09,2.34-2.1,3.99-2.41c1.4-0.27,2.1,0.66,2.88,1.5c0.51,0.55,1.53,0.79,1.63,0.31
	c0.6-2.79,1.93-1.73,3.32-0.81c0.12,0.08,0.39,0.08,0.48,0c3.4-3.01,5.09,0.58,6.05,2.3c1,1.78,2.26,2.14,3.3,1.59
	c1.77-0.93,3.13-0.12,4.72,0.03c2.8,0.28,5.65,0.03,8.47,0.12c0.61,0.02,1.91-0.65,1.74,0.63c-0.09,0.65-1.22,1.97-2.25,1.18
	c-1.27-0.99-1.62-0.86-1.43,0.65c0.13,1.02-0.48,1.51-1.09,2.05c-1.05,0.94-1.24,1.47,0.52,1.49c0.46,0.01,0.77,0.81,0.51,1.18
	c-0.81,1.17-1.58,2.63-3.17,2.73c-2.06,0.13-4.2,0.36-6.07-0.96c-1.61,1.24-3.07,2.72-5.24,3.02c-0.47,0.06-1.57-0.41-1.18,0.67
	c0.2,0.56,0.94,1.97,2.07,0.5c0.22-0.29,1.05-0.11,1.29-0.4c1.4-1.71,2.35-0.49,3.11,0.54c0.71,0.97,0.13,2.68-0.99,3.36
	c-0.38,0.23-0.9,0.25-1.36,0.3c-0.47,0.06-1.29-0.07-1.26,0.42c0.06,0.84,0.94,0.53,1.52,0.59c0.32,0.03,0.7-0.03,0.94,0.13
	c0.78,0.54-0.08,0.75-0.29,1.03c-1.56,2.12-3.5,3.24-6.31,2.9c-1.5-0.18-3.08-0.42-4.66,0.8c-0.88,0.68-2.63-0.24-4.03-0.71
	c-2-0.67-0.98-1.09-0.27-1.66c1.47-1.17,0.9-1.96-0.09-3.18C360.84,501.97,360.27,500.13,358.31,501z"/>
<path id="Suffolk" d="M386.8,484.05c-2.64-0.19-4.8,0.45-6.68-1.01c-0.31-0.24-0.98-0.1-1.47-0.02c-2.7,0.44-2.65,0.42-3.9-1.7
	c-0.32-0.55-0.57-1.09-0.82-1.66c-0.72-1.57-2.17-2.29-3.54-1.37c-1.13,0.77-2.13,0.66-3.22,0.7c-0.96,0.03-2.52,0.19-2.77-0.27
	c-0.52-0.95,0.91-1.36,1.47-2.03c2.22-2.68,2.38-4.98,0.42-7.89c-0.7-1.04-1.44-2.05-2.1-3.12c-0.57-0.92,0.07-1.55,0.72-2.04
	c1.5-1.14,3.22-0.68,5.14,0.75c1.33,0.99,3.04,2.42,4.69,1.53c1.79-0.97,3.14,0.32,4.72,0.15c1.81-0.19,3.65-0.01,5.48-0.06
	c0.61-0.02,0.87,0.36,1.22,0.68c0.58,0.54,1.29,0.62,1.67-0.04c0.81-1.4,2.57-1.3,3.5-2.45c1.85-2.27,3.96-3.96,7.16-3.17
	c1.27,0.31,1.73-0.78,2.38-1.44c0.36-0.36-0.16-1.43,0.73-1.39c0.55,0.02,0.38,0.81,0.38,1.28c0.01,2.16,0.2,4.35-0.05,6.48
	c-0.23,1.98-1.58,3.63-2.21,5.57c-0.84,2.57-1.81,4.98-1.76,7.75c0.03,1.61-1.56,3.52-3.18,3.7
	C391.92,483.3,389.19,484.77,386.8,484.05z"/>
<path id="Humberside" d="M327.63,389.05c0.05,0,0.78-0.13,0.97,0.13c1.05,1.42,1.87,0.27,2.09-0.39c0.65-1.94,1.64-2.79,3.82-2.91
	c0.83-0.05,2.69-0.7,2.87-2.59c0.05-0.57,0.76-1.38,2.12-0.51c1.12,0.72,3.28,0.96,4.57-0.36c1.63-1.67,2.07,1.41,3.49,0.71
	c0.31-0.15,0.21,0.6-0.09,0.99c-0.96,1.23-2.42,1.91-2.56,3.97c-0.22,3.23,0.62,6.19,2.38,8.52c2.11,2.79,3.49,6.12,6.22,8.47
	c0.89,0.76,0.64,1.25-0.53,2.05c-2.18,1.5-3.87,0.61-5.63-0.34c-0.84-0.46-1.55-1.29-2.12-2.09c-1.53-2.14-3.92-2.24-5.72-1.45
	c-2.16,0.94-3.81,1.17-5.85-0.02c-0.96-0.56-2.24-0.49-3.03,0.7c-0.16,0.24-0.34,0.46-0.45,0.72c-0.02,0.06,0.22,0.33,0.33,0.33
	c2.09-0.06,4.14,0.03,6.06,1.02c1.6-1.87,3.78-0.45,5.58-1.01c2.2-0.68,1.6,1.58,2.54,2.17c0.44,0.28,0.48,0.51-0.01,0.7
	c-0.29,0.11-0.68,0.24-0.92,0.13c-0.42-0.2-0.83-0.53-1.12-0.89c-0.72-0.91-1.36-1.31-2.14-0.05c-0.62,1.01-0.63,3.2-2.86,1.29
	c-0.45-0.38-1.77,1.32-2.46,2.3c1.82,1.43-0.44,1.67-0.77,2.46c-0.14,0.33-0.75,0.77-1.01,0.7c-0.59-0.18-0.33-0.84-0.34-1.31
	c-0.02-0.65,0.11-1.51-0.82-1.45c-1.94,0.13-4.37-0.97-5.23,2.15c-0.53,1.92-0.98-0.2-1.52-0.21c-0.56-0.01-2.09,0.34-0.8-1.06
	c0.84-0.91-0.17-2.25,1-3.12c0.88-0.65,0.62-2.08,0.27-2.77c-0.61-1.22-3.26-1.76-0.91-3.71c-0.46-1.5-1.28-2.85-1.05-4.59
	c0.24-1.8,0.01-3.66,0.06-5.49C324.11,389.75,324.87,389,327.63,389.05z"/>
<path id="Whiltshire" d="M290.72,532.99c-0.71-0.06-1.23,0-1.77-1.02c-1.02-1.92-2.22-4.02-4.99-4.01c-1.08,0.01-0.82-0.49-0.3-1.12
	c0.37-0.46,0.41-1.17,0.74-1.67c1.99-3.06,3.46-6.13,0.79-9.6c-0.25-0.32-0.32-1.16-0.09-1.4c1.53-1.63-1.05-3.52,0.35-5.01
	c0.69-0.73,0.68-1.47,0.59-2.25c-0.17-1.48,0.32-2.13,1.88-1.95c0.61,0.07,1.4,0.06,1.86-0.26c2.79-1.92,7.77-3.17,11.42-2.7
	c0.35,0.04,1.21,0.16,0.51,0.77c-1.39,1.23-0.5,2.04,0.42,2.77c1.82,1.45,2.36,3.67,3.51,5.53c0.62,1.01-1.28,1.44-0.57,2.39
	c0.49,0.66,1.15,1.19,1.74,1.78c-1.1,1.02-0.32,2.69-1.28,3.75c-0.45,0.49-0.87,1.04-1.42,1.39c-1.03,0.67-2.37,0.91-3.02,2.13
	c1.62,1.02,0.32,2.97,1.14,3.98c0.87,1.07,0.79,2.07,0.82,3.18c0.09,3.92-0.24,4.35-3.44,2.12c-2.56-1.78-4.13,1.21-6.19,0.32
	C292.8,533.26,291.73,532.94,290.72,532.99z"/>
<path id="Kent" d="M379.38,531.94c-0.78,0.16-1.21-0.12-1.46-0.54c-1.14-1.93-3.5-1.21-5.03-2.37c-1.08-0.82-2.13,1.29-3.73,0.09
	c-1.16-0.87-2.06-2.09-3.33-2.72c-1.37-0.68-2.61-1.74-4.41-1.46c-1.39,0.22-2.71-0.07-4.13-0.84c-1.88-1.02-2.89-1.33-1.46-3.81
	c0.77-1.33,0.38-3.29,1.9-4.74c0.68-0.65,0.04-2.55,0.34-3.79c0.16-0.66,0.72-2.04,1.84-1.26c1.2,0.83,2.83,0.05,3.8,1.29
	c0.98-1.38,2.42-0.66,3.67-0.77c1.16-0.1,2.33-0.01,3.49-0.03c0.49-0.01,0.94,0.05,0.97,0.62c0.01,0.11-0.51,0.28-0.8,0.37
	c-0.15,0.05-0.33,0.02-0.5,0.01c-1.38-0.13-2.05,0.77-2.52,1.84c-0.21,0.48,0.1,1.04,0.6,1.14c1.19,0.22,2.28,0.01,3.02-1.11
	c0.18-0.27,0.49-0.45,0.69-0.71c0.98-1.25,1.67-1.17,3.2-0.35c1.65,0.88,2.52,1.19,1.5,3.12c-0.37,0.71,0.44,1.29,1.13,1.04
	c3.61-1.32,7.31-2.04,11.16-1.97c0.33,0.01,0.71,0.1,0.99-0.02c0.8-0.34,1.54-1.81,2.4-0.63c0.87,1.19,0.21,2.46-0.94,3.37
	c-0.92,0.72-0.68,1.33-0.27,2.44c1.43,3.87-0.41,7.21-4.54,7.72c-2.78,0.34-4.85,1.35-6.66,3.28
	C379.99,531.5,379.59,531.76,379.38,531.94z"/>
<path id="Lancashire" d="M290.08,396.39c-2.19,2.25-1.82,5.85-4.06,8.18c-1.83-0.6-3.25,1.24-4.85,0.93
	c-0.77-0.15-0.95,0.13-1.45,0.33c-1.59,0.64-3.1,1.67-4.98,1.22c-1.42-0.34-2.59,0.8-2.56,1.67c0.07,2.12-0.88,2.11-2.53,2.5
	c-0.99,0.23-1.46,0.65-2.18-0.26c-0.39-0.49-0.84-0.85-1.59-0.98c-1.15-0.19-1.06-1.01-0.46-1.79c0.31-0.39,0.67-0.75,1.05-1.06
	c1.14-0.92,0.63-2.19,0.54-3.24c-0.14-1.55-1.57-0.87-2.36-0.81c-1.26,0.1-2.11-0.68-2.34-1.44c-0.36-1.18-1.16-2.55-1.06-3.46
	c0.16-1.49,1.05-2.92,0.87-4.59c-0.05-0.43,0.65-0.59,1.17-0.57c1.31,0.06,2.52,0.07,3.53-1.16c0.8-0.97,1.47-1.56,0.08-2.52
	c-0.92-0.63-1.26-1.43-0.27-2.4c1.25-1.23,2.69-2.25,2.62-4.45c-0.02-0.63,1.3-2.45,3.01-0.84c0.86,0.82,2,0.62,3.05-0.27
	c0.67-0.57,0.84-0.37,0.79,1.13c-0.02,0.47-0.13,0.91,0.27,1.36c1.04,1.19,2.69,1.94,2.83,3.8c3.07-0.79,2.82,3.73,6,3.57
	c1.86-0.09,3.07,2.72,4.66,4.13C290.04,395.54,290,395.97,290.08,396.39z"/>
<path id="Cambridgeshire" d="M341.79,452.97c0.44,0.15,0.77,0.19,1.02,0.35c3.33,2.23,6.45-1.05,9.76-0.42
	c0.56,0.11,0.44-1.09,0.44-1.72c0-0.8,0.3-1.22,1.13-1.16c0.57,0.04,0.97,0.34,0.86,0.91c-0.47,2.32,1.53,4.19,1.09,6.58
	c-0.24,1.31,2.01,3.63,2.66,3.12c2.4-1.89,2.67,0.92,3.87,1.54c0.83,0.43-0.07,0.89-0.29,0.99c-1.94,0.87-0.59,2.01-0.3,3.06
	c0.29,1.05,2.6,2.21-0.51,2.99c-1.08,0.27-0.58,3.21,0.44,4.27c0.78,0.82,0.97-0.08,1.43-0.31c0.63-0.32,1.35-0.29,1.59,0.45
	c0.2,0.59,0.12,1.33-0.84,1.41c-0.3,0.03-0.76,0.08-0.86,0.27c-0.64,1.21-1.2,2.46-1.78,3.7c-1.44-1.76-2.71,0.91-4.11,0.15
	c-0.75,1.66-3,0.1-3.76,1.76c-1.57-1.55-3.07-0.89-4.62,0.08c-0.36,0.22-0.84,0.02-0.79-0.67c0.17-2.77-0.24-2.49-1.75-4.53
	c-1.72-2.35-4.05-3.88-6.02-5.86c-1.99-2-1.97-2.59-0.01-4.81c2.09-2.36,2.27-4.28,0.32-6.77c-0.54-0.68-0.56-1.46-1-2.1
	c-0.46-0.68,0.17-2.11,1-2.48C341.16,453.58,341.49,453.2,341.79,452.97z"/>
<path id="Gloucestershire" d="M272.07,498.95c0-5.15-0.04-5.31,5.53-6.85c1.68-0.47,2.28-1.76,3.41-2.62
	c0.21-0.16,0.25-0.95-0.27-1.31c-0.6-0.42-1.01-1.15-0.58-1.66c0.45-0.55,1.41-0.64,1.98-1.13c0.68-0.59,0.78-0.04,0.92,0.34
	c0.84,2.24,2.56,1.45,3.84,0.86c1.73-0.79,3.5-1.22,5.29-1.76c1.8-0.54,3.04-0.98,4.76,0.11c1.09,0.69,1.96-0.11,2.11-1.56
	c0.05-0.49-0.04-1.01,0.03-1.49c0.04-0.29,0.28-0.55,0.42-0.82c0.24,0.2,0.47,0.39,0.71,0.6c1.78,1.53,1.22,4.19,2.8,5.84
	c0.17,0.18,0.19,0.78,0.02,0.95c-2.83,2.98-1.81,6.7-1.97,10.18c-0.02,0.49,0.08,1.16-0.46,1.25c-0.29,0.05-0.71-0.55-1.05-0.88
	c-0.54-0.52-0.77-1.07-1.83-0.31c-1.52,1.1-3.42,1.62-5.43,1.33c-0.97-0.14-2.15-0.24-2.6,0.88c-1.49,3.74-4.66,1.63-7.07,2.02
	c-0.93,0.15-0.11-2.46-2.09-2.03c-0.27,0.06-2.32-1.11-0.5-2.36c-0.44-0.63-1.13-0.79-1.63-0.33c-1.7,1.59-3.31,3.28-4.97,4.91
	c-0.3,0.29-0.7,0.47-1.05,0.7c-0.11-0.46-0.28-0.91-0.3-1.37C272.04,501.28,272.07,500.12,272.07,498.95z"/>
<path id="Chesire" d="M292.05,423.7c0.01,3.06,0.03,3.1-3.04,4.28c-0.5,0.19-0.83,0.45-1.17,0.77c-1.52,1.42-2.88,2.96-4.83,3.95
	c-1.01,0.51-1.81,1.53-2.07,3.09c-0.4,2.36-1.67,2.73-3.82,1.79c-0.7-0.31-1.36-0.73-2.06-1.04c-2.04-0.91-3.16-0.88-3.85,1.19
	c-0.67,1.99-0.9,0.76-1.67,0.33c-2.83-1.59-3.66-3.25-3.8-7.24c-0.03-0.93-0.57-1.98-1.18-2.73c-1.16-1.4-2.49-2.66-3.85-3.89
	c-1.16-1.05-2-2.17-1.62-3.81c0.19-0.82-0.69-2.16,0.92-2.33c1.48-0.16,2.4,0.43,3.15,1.93c0.76,1.52,0.77,3.76,3.33,4.15
	c0.95,0.14,1.5,1.45,2.85,0.26c1-0.88,2.82-0.89,2.71-2.81c-0.09-1.62-0.08-3.07,2.23-2.55c0.69-1.37,2.08-2.01,3.23-2.85
	c0.69-0.51,1.34-0.13,1.6,1c0.51,2.27,3.76,4.29,6.26,3.99c0.69-0.08,1.16-0.11,1.72,0.37c0.99,0.86,1.91,0.57,3.06-0.02
	c1.65-0.85,1.83-0.63,1.89,1.19C292.06,423.04,292.05,423.37,292.05,423.7z"/>
<path id="Dorset" d="M291.1,550.98c-2.59,0.16-4.87-1.02-7.25-1.73c-1.27-0.37-2.52-0.57-3.69,0.15c-2.3,1.41-2.11,1.1-4.27,0.03
	c-3.02-1.5-5.36-4.42-9.1-4.47c-0.5-0.01-0.81-0.46-0.72-1.05c0.3-1.94,2.01-3.89,4.01-3.84c1.56,0.04,2.62-0.98,4.04-1.25
	c1.43-0.26,1.97-2.15,1.94-3.77c-0.01-0.59,0.23-0.93,0.74-1.05c0.5-0.11,1.21,0.04,1.23,0.5c0.07,1.89,0.86,2,2.08,0.91
	c0.75-0.67,1.73-0.06,2.28-0.48c0.61-0.47,2.55-0.85,0.86-2.36c-0.09-0.08,0.72-0.94,0.78-1.47c0.1-0.84,0.45-1.17,1.22-1.09
	c0.54,0.05,0.65,0.45,0.87,0.94c0.63,1.41,1.19,2.86,2.36,4.02c1.07,1.06,2.24,1.6,3.38,0.63c0.93-0.79,1.81-0.51,2.74-0.56
	c-0.25,1.87,2.08,1.55,2.45,2.88c0.58,2.09,1.09,4.19,1.73,6.26c0.1,0.32,0.32,0.5-0.13,0.71c-1.25,0.59-2.59,1.05-3.72,1.8
	c-0.8,0.53-0.96-0.23-1.05-0.42c-0.88-2.05-2.05-0.39-3.07-0.26c-0.26,0.04-0.49,0.33-0.74,0.5c0.27,0.16,0.55,0.48,0.79,0.45
	c1.49-0.19,2.53,0.43,3.17,1.72c0.53,1.07-0.25,2.25-1.45,2.31C292.09,551,291.6,550.98,291.1,550.98z"/>
<path id="Leichestershire" d="M337,451.5c0.16,0.65,0.11,0.13-0.33,0.29c-2.18,0.78-2.32,3.76-4.65,4.2
	c-0.97,0.18-1.78,0.99-1.81,1.45c-0.14,2.24-1.6,1.59-2.79,1.45c-0.46-0.05-0.8-1.33-1.39-0.33c-1.59,2.72-5.27,2.29-7.02,4.87
	c-0.78,1.14-2.65,0.97-3.27-0.29c-1.36-2.74-3.79-3.96-6.29-5.18c-2.76-1.35-1.96-4.48-3.32-6.52c1-0.49,0.61-2.2,1.42-2.32
	c2.58-0.39,2.94-2.68,4.16-4.25c0.54-0.69,1.14-1.32,1.34,0.28c0.13,1.07,1.22,1.47,1.83,2.22c0.58,0.72,1.28,1.06,2.04,0.25
	c1.17-1.25,2.73-1.11,4.17-1.13c2.89-0.04,3.65-2.65,5.09-4.26c1.69-1.89,1.68-0.36,2.2,0.65c1.95,3.79,3.21,5.09,7.82,8.15
	C336.46,451.19,336.73,451.34,337,451.5z"/>
<path id="Staffordshire" d="M299.04,435.88c0.11,0.58-0.18,1.11-0.66,1.11c-2.7-0.02-0.12,3.31-2.31,3.56
	c1.24,0.94,0.95,3.19,2.97,3.48c1.08,0.15,1.77,1.22,3.09,1.07c1.17-0.13,1.21,0.99,0.62,1.67c-2.16,2.51-2.38,2.75-0.63,4.74
	c1.47,1.67-0.86,2.73-0.28,4.18c0.13,0.32-0.38,0.43-0.66-0.01c-0.69-1.08-1.82-0.74-2.71-0.61c-1.64,0.25-1.15-1.2-1.71-1.79
	c-0.73-0.76-1.34-1.99-2.77-0.76c-0.8,0.68-1.85,1.14-2.87,1.47c-0.83,0.27-1.73-1.64-2.7,0.01c-0.12,0.2-1.23,0.14-1.23-0.38
	c-0.01-2.04-3.11-2.73-2.16-5.12c-1.97-1.23-2.17-3.14-1.96-5.17c0.11-1.02-0.74-1.37-1.2-2.01c-0.22-0.31-1.07-0.84-0.53-0.98
	c3.08-0.77,1.19-3.18,1.72-4.76c0.05-0.14,0.18-0.31,0.32-0.36c2.81-1.03,4.11-4.15,6.87-5.09c0.95-0.32,1.7-0.66,2.5-1.24
	c1.95-1.43,3.07-1.09,4.32,0.84C298.29,431.62,297.55,434.11,299.04,435.88z"/>
<path id="Durham" d="M314.03,352.49c-0.34,0.37-0.68,0.69-0.97,1.06c-1.09,1.36-2.66,2.24-3.27,4.13c-0.37,1.13-2.14,1.78-2.54,2.91
	c-0.17,0.49,1.07,1.37,0.19,2.77c-0.92,1.46-1.35,2.34-2.16,1.3c-1.51-1.96-3.46-1.73-5.35-1.55c-1.58,0.14-3.38,0.27-3.92,2.42
	c-0.19,0.74-1.14,0.37-1.72,0.55c-1.41,0.45-2.73-1.68-4.2-0.06c-0.31,0.35-1.03-0.19-1-0.67c0.07-1.24-0.32-2.12-1.2-3.03
	c-0.91-0.95-3.06-2-2.32-3.02c1.24-1.72-0.67-2.27-0.53-3.42c0.16-1.31-0.72-3.21,1.97-2.85c1.13,0.15,1.53-1.1,2.26-1.71
	c1.67-1.4,3.11-3.11,5.67-1.33c0.99,0.69,2.6-0.17,2.81-1.25c0.44-2.26,2.12-2.02,3.24-1.58c1.37,0.54,2.64,0.98,4.11,0.9
	c0.97-0.05,0.96,0.67,0.93,1.34c-0.02,0.67,0.02,1.25,0.58,1.76c0.76,0.69,1.41,1.45,2.42,0.39c0.46-0.48,0.93-0.95,1.41-1.41
	c1.08-1.02,1.84-0.99,2.42,0.3C313.19,351.16,313.21,352.01,314.03,352.49z"/>
<path id="Derbyshire" d="M315.03,424.8c0.27,1.49-0.33,2.87-1.65,3.14c-2.31,0.48-2.41,1.47-1.34,3.17
	c-2.32,2.57-0.3,5.11,0.23,7.55c0.58,2.67,0.82,2.62-1.39,4.35c-1.24,0.97-1.49,2.72-2.89,3.6c-0.82,0.51-1.84,0.69-1.85-0.29
	c-0.03-2.57-1.18-3.47-3.61-3.4c-0.48,0.01-0.83-0.8-1.58-0.96c-2.2-0.49-2.64-1.5-1.22-3.03c1.57-1.7,1.81-3.22,0.61-5.16
	c-0.64-1.04-0.69-2.36-1.11-3.51c-0.58-1.6-0.81-2.64-2.66-3.42c-1.65-0.7-3.12-2.37-2.57-4.82c0.28-1.27,0.26-2.69,0-3.96
	c-0.43-2.16,0.74-3.4,2.13-4.62c0.74-0.65,1.64-0.76,1.87,0.29c0.75,3.38,4.27,5.06,5.01,8.38c0.21,0.93,0.75,0.98,1.4,0.9
	c1.58-0.2,3.18-0.16,4.76-0.36c1.6-0.21,3.56,0.23,5.36,0.44C315.23,423.17,315.03,424.17,315.03,424.8z"/>
<path id="North" d="M316.32,484.79c-0.99-0.3-1.63-1.96-1.12-3.38c0.2-0.55,0.93-0.86,0.85-1.64c-0.14-1.37-3.42-1.61-1.32-3.75
	c2.68,0.2,0.87-2.24,1.83-3.32c1.07-1.2,0.81-3.51,1.43-5.3c0.47-1.35,1.07-2.68,2.49-2.29c2.14,0.59,0.99-2.9,3.1-2.12
	c1.38,0.51,2.55-0.19,3.38-1.38c0.59-0.84,1.49-0.67,2.24-0.54c1.42,0.23,2.12-0.7,2.82-1.57c2.25-2.82,4.42-2.98,6.54-0.43
	c1.75,2.1,1.68,3.14-0.21,5.17c-1.07,1.15-2.58,1.96-2.4,4.02c0.07,0.79-0.88,1.82-1.98,1.75c-1.47-0.09-2.13,0.32-1.94,1.89
	c0.13,1.13,0.26,2.41-1.57,2.24c-1.53,2.18-5.05,2.34-5.6,5.56c-0.1,0.58-0.85,0.33-1.32,0.34c-2.97,0.05-5.11,1.42-6.48,4.03
	c-0.14,0.27-0.24,0.57-0.38,0.83C316.64,484.89,316.43,484.81,316.32,484.79z"/>
<path id="Nottinghamshire" d="M316.3,445.02c-1.22,0.08-1.68-0.83-1.15-1.49c0.84-1.06,0.99-1.56,0.2-2.87
	c-0.92-1.52-0.98-3.55-1.51-5.32c-0.58-1.92,0-5.41,1.6-6.04c1.35-0.53,1.84-1.05,1.59-2.32c-0.45-2.32,1.06-4.24,1.24-6.51
	c0.22-2.68,3.38-3.43,5.06-5.22c0.63,1.01,2.31,0.2,2.77,1.84c0.53,1.9,1.51,3.47,1.11,5.77c-0.34,1.95,0.71,4.24,1.49,6.24
	c0.39,1,0.59,2.12,0.26,2.81c-1.92,4.07-2.65,8.98-6.92,11.5C320.37,444.38,318.2,444.51,316.3,445.02z"/>
<path id="South_Wales" d="M236.35,504.03c-1.51-0.2-2.42,0.13-2.43,1.64c-2.37,0.14-4.51,1.59-6.93,1.28
	c-0.55-0.07-1.09-0.65-1.51-1.11c-0.67-0.73-0.71-1.7,0.41-1.76c0.88-0.05,1.76-1.97,2.68-0.12c0.72-1.17,2.3-0.91,3.16-2.02
	c1.18-1.52,2.92-2.48,4.4-3.67c1.4-1.13,1.95-1.15,2.93,0.16c0.86,1.14,2.86,0.85,3.13,0.49c1.29-1.79,2.78,0.23,4.04-0.51
	c1.19-0.7,2.62-1.03,3.71-1.84c0.8-0.59,1.05-0.26,1.45,0.23c0.51,0.62,1.17,3.59,0.93,4.46c-0.84,3.06,0.69,5.21,2.71,7.18
	c0.37,0.36,0.64,0.59,1.07,0.06c1.39-1.73,2.11,0.95,3.38,0.55c0.34-0.11,0.7,0.46,0.14,0.92c-1.04,0.87-1.62,1.81-1.65,3.35
	c-0.02,1.24-1.68,0.32-2.47,0.76c-3.65,2.03-6.64,0.5-9.53-1.71c-1.13-0.86-1.74-2.27-3.45-2.55c-1.44-0.23-1.62-2-2.04-3.08
	C239.64,504.59,238.5,503.48,236.35,504.03z"/>
<path id="West_Yorkshire" d="M313.04,405.48c-0.02,1.64,0.53,2.95-1.81,1.71c-1.55-0.82-3.9-0.12-5.88-0.17
	c-1.13-0.03-1.33,0.5-1.35,1.49c-0.01,0.46-0.71,0.64-1.21,0.51c-1.74-0.46-2.99,0.81-4.45,1.29c-0.54,0.18-0.84,0.92-1.43,0.09
	c-1.34-1.92-4.18-2.81-3.95-5.87c0.02-0.27-0.68-1.5-1.65-1.21c-0.47,0.14-0.95,1.25-1.22-0.03c-0.39-1.85,0.29-2.84,2.12-5
	c0.92-1.09,2.06-2,2.81-3.21c0.36-0.58-0.41-1.79,0.76-2c0.73-0.13,1.52-0.17,2.31,0.4c0.85,0.61,1.91,1.76,3.04,0.91
	c1.68-1.25,2.42,0.95,3.94,0.84c1.09-0.08,2.03-2.01,3.24-0.45c0.22,0.28,0.37,0.04,0.72-0.18c1.98-1.25,1.89-1.22,2.06,1.01
	c0.12,1.56-0.82,3.32,0.71,4.67c-1.24,1.65,0.57,2.16,1.11,3.19C313.24,404.14,313.03,405.08,313.04,405.48z"/>
<path id="Warwickshire" d="M296.05,474.34c-0.09-3.33,1.45-5.01,4.69-5.34c2.36-0.24,4.58-1.32,7.06-1.04
	c1.18,0.13,3.05-1.97,3.23-3.15c0.19-1.23-0.8-2.66-2.07-2.77c-1.32-0.11-2.65-0.02-3.98-0.03c-2.92-0.02-2.9-0.13-3.6-3.06
	c-0.16-0.68,0.01-0.9,0.37-0.9c2.02,0.01,1.97-1.8,2.7-2.93c0.66,1.21,1.34,2.41,2.47,3.26c1,0.76,2.16,1.59,3.16,1.98
	c2.84,1.11,3.73,3.79,5.5,5.73c0.87,0.95-0.17,0.84-0.68,0.93c-1.3,0.21-1.07,1.46-0.79,1.9c1.14,1.81,0.27,2.79-0.64,4.47
	c-1.31,2.42-2.44,4.63-5.05,5.76c-2.01,0.87-0.76,3.41-2.33,4.55c-0.23,0.17,0.03,1.15-0.49,1.2c-0.46,0.05-0.58-0.6-0.55-1.1
	c0.08-1.07-0.41-1.32-1.4-1.93c-2.43-1.49-3.92-4.29-6.71-5.51C296.12,475.99,295.88,475.14,296.05,474.34z"/>
<path id="Metropolitan" d="M339.02,507.43c-0.01-3.41-0.01-4.01,2.48-4.25c2.38-0.23,4.19-1.46,6.02-2.42
	c1.85-0.97,2.92-1.04,4.2,0.44c0.22,0.25,0.47,0.48,0.7,0.71c0.7,0.69,1.41,1.37,2.12,2.06c0.54-0.66,1.15-1.16,2.1-0.97
	c1.09,0.22,2.62-0.65,3.23,0.49c0.65,1.2-0.64,2.29-1.06,3.42c-0.9,2.45-3.24,4.36-2.9,7.35c0.05,0.42-0.58,2.5-2.23,0.99
	c-0.38-0.35-1.58-0.48-1.82-0.2c-1.75,2.02-3.59,0.36-4.5-0.43c-1.73-1.51-3.76-2.44-5.69-3.28
	C339.4,510.35,338.6,509.18,339.02,507.43z"/>
<path id="City" class="st0" d="M346.97,507.79c0-1.01,0-1.19,0.73-1.26c0.7-0.07,1.24-0.43,1.78-0.72c0.55-0.29,0.86-0.31,1.24,0.13
	c0.06,0.07,0.14,0.14,0.21,0.21c0.21,0.2,0.42,0.41,0.63,0.61c0.16-0.2,0.34-0.34,0.62-0.29c0.32,0.07,0.77-0.19,0.96,0.14
	c0.19,0.36-0.19,0.68-0.31,1.01c-0.27,0.73-0.96,1.29-0.86,2.18c0.01,0.12-0.17,0.74-0.66,0.29c-0.11-0.1-0.47-0.14-0.54-0.06
	c-0.52,0.6-1.06,0.11-1.33-0.13c-0.51-0.45-1.11-0.72-1.69-0.97C347.08,508.66,346.84,508.31,346.97,507.79z"/>
<path id="Surrey" d="M334.87,527.11c-1.78-0.25-3.39,0.3-3.55-0.47c-0.32-1.6-1.94-2.14-2.29-3.55c-0.14-0.56,0.23-1.13,0.67-1.06
	c2.72,0.46,2.41-1.32,2.32-2.98c-0.01-0.17-0.06-0.37,0.01-0.49c0.62-1.04-1.27-1.46-0.63-2.41c0.56-0.84,1.34-1.38,2.49-1.17
	c0.81,0.15,0.96-0.39,1.18-1.12c0.33-1.1,1.14-1.67,2.44-1.94c1.68-0.35,2.61,1.1,4.05,1.17c0.5,0.03,0.49,0.76,0.45,1.25
	c-0.14,2.25,0.01,3.73,2.75,1.73c0.87-0.64,1.58,0.85,2.28,1.47c1.78,1.57,1.87,1.72,3.77,0.06c1.17-1.03,1.27,0.19,1.78,0.51
	c0.22,0.14,0.41,0.54,0.39,0.8c-0.09,1.62,0.71,3.69-0.37,4.73c-1.11,1.07-2.93,0.34-4.39-0.59c-0.51-0.32-1.55-0.3-2.25,0.43
	c-0.54,0.57-0.94,1.55-1.84,1.48C340.56,524.67,337.71,527.88,334.87,527.11z"/>
<path id="Hertfordshire" d="M334.85,494c1.07,0.42,2.14,1.51,3.05-0.34c0.56-1.14,1.78-0.5,2.7-0.67c2.27-0.42,3.18-1.67,1.98-3.75
	c-0.87-1.5-0.45-2.36,0.56-2.75c1.6-0.64,2.46-2.17,3.84-2.8c1.41-0.65,3.31-0.12,4.48-1.63c0.35,0.32,0.91,0.57,1.03,0.96
	c0.81,2.69,2.58,4.93,3.45,7.56c0.24,0.72,0.93,2.64-1.25,2.39c-1.24-0.14-1.66,1.02-2.48,1.26c-2.06,0.6-0.11,3.65-2.27,3.69
	c-1.87,0.04-3.72,0.41-4.78,1.63c-1.24,1.42-3.03,0.97-4.21,2.04c-1.13,1.02-1.72,0.07-2.42-0.59c-0.71-0.67-1.3-2-1.26-2.4
	c0.21-2.37-1.77-2.64-3.01-3.56c-0.3-0.22-1.24-0.21-1.12-0.55C333.37,493.76,334.23,494.05,334.85,494z"/>
<path id="South_Yorkshire" d="M306.4,421.06c-0.44-0.09-0.98-0.09-1.02-0.23c-0.91-3.05-4.42-4.19-5.28-7.25
	c-0.18-0.63-0.19-1.47,0.65-1.51c1.94-0.09,3.7-0.25,4.35-2.56c0.2-0.69,0.7-0.22,1.02,0.11c0.53,0.56,1.15,0.66,1.68,0.11
	c0.49-0.51,1-0.68,1.7-0.73c1.5-0.11,2.39,1.33,4.07,1.14c2.04-0.23,1.38-3.03,2.7-2.76c2.39,0.49,4.09-0.99,6.14-1.25
	c0.29-0.04,1.73,0.52,1.13,1.94c-1.22,2.88-1.6,6.19-4.86,7.85c-1.15,0.59-1.69,1.84-2.13,3.06c-0.58,1.63-1.18,3.21-3.13,1.06
	c-0.88-0.98-1.47,1.88-2.8,0.25c-0.6-0.74-2.09-0.55-2.99,0.55C307.43,421.12,306.74,421.01,306.4,421.06z"/>
<path id="Gwent" d="M270.07,501.03c0,0.66,0,1.32,0,1.98c-0.02,2.85-0.8,3.66-3.83,3.99c-1.24,0.14-2.64-0.49-3.63,0.89
	c-0.12,0.17-1.12,0.06-1.26-0.18c-1.14-1.94-2.97-1.74-4.78-1.72c-0.68,0.01-2.58-2.32-2.2-2.68c1.19-1.14,0.61-2.47,0.68-3.71
	c0.14-2.42,0.1-2.67,2.67-2.52c1.84,0.11,2.58-1.03,3.73-1.89c0.78-0.58,0.47-1.46,0.99-2.1c1.72-2.14,1.98-2.22,3.87-0.33
	c1.12,1.12,2.95,1.86,3.56,2.92C270.66,497.05,270.07,499.21,270.07,501.03z"/>
<path id="Greater_Manchester" d="M286.86,419.12c-1.49-0.1-2.75,0.2-3.37-0.3c-0.93-0.74-3.09-0.47-2.54-2.84
	c0.19-0.81-0.62-2.17-1.38-2.77c-0.59-0.47-1.69-0.12-2.67,0.33c-1.23,0.56-3.44-2.58-2.83-3.86c0.12-0.26,0.49-0.65,0.62-0.61
	c2.05,0.67,3.67-1.43,5.53-0.96c1.63,0.41,3.05-1.58,4.69-0.12c0.32,0.28,1.34,0.1,1.83-0.2c1.19-0.73,2.35-1.48,3.75-1.75
	c0.61,1.93,2.26,3.04,3.49,4.48c0.23,0.28,0.11,0.85-0.2,1.34c-0.66,1.03-1.19,2.14-1.71,3.25c-0.39,0.82-1.16,1.65-0.16,2.58
	c-0.69,0.24-0.73,1.86-2.19,0.7C289.05,417.87,287.72,419.81,286.86,419.12z"/>
<path id="Bedfordshire" d="M346,479.78c-0.02,0.06,0.03,0.73-0.26,0.94c-1.52,1.11-2.2,3.08-4.57,3.4c-2.25,0.3-2.59,1.46-1.6,3.86
	c0.35,0.84,0.59,2.01-0.1,1.89c-1.34-0.23-1.91,2.35-3.42,0.71c-0.62-0.68-1.1-1.59-2.31-1.62c-0.85-0.02-1.01-1.15-0.64-1.44
	c1.51-1.18,1.08-2.83,0.82-4.11c-0.35-1.7,1-2.63,1.19-4.06c0.2-1.51-1.03-2.33-1.06-3.57c-0.04-1.34-0.71-3.26,1.97-2.78
	c0.95,0.17,0.99-0.57,1.01-1.26c0.02-0.61-0.21-1.4,0.55-1.62c0.23-0.07,0.81,0.58,1.01,1c0.67,1.42,1.37,2.51,3.06,3.22
	c1.55,0.65,2.61,2.46,3.93,3.72C346,478.44,346.03,478.88,346,479.78z"/>
<path id="West_Midlands" d="M304.01,465.54c-0.12,0.12-0.3,0.36-0.34,0.34c-1.74-0.88-3.39,1.89-5.12,0.12
	c-0.59-0.6-1.12-1.16-2.09-1.01c-1.19,0.19-2.34,0.07-3.02-1.11c-1.05-1.82-3.41,0.08-4.33-1.45c-0.97-1.62,1.44-2.85,0.94-4.55
	c-0.09-0.29-0.24-0.59-0.44-0.81c-0.68-0.73-0.49-1.04,0.45-1.07c1.27-0.04,2.63,0.34,3.62-0.96c0.17-0.22,1.15-0.18,1.25,0.38
	c0.3,1.73,0.94,2.62,2.89,1.91c0.23-0.08,1.12,0.9,1.28,1.87c0.42,2.58,1.47,4.83,4.2,5.81
	C303.56,465.12,303.78,465.37,304.01,465.54z"/>
<path id="Cleveland" d="M310.04,362.77c-0.37-2.89,2.14-4.38,3.35-6.51c0.36-0.64,0.97-1.46,1.95-1.19
	c1.13,0.32,0.61,1.33,0.69,2.06c0.06,0.66,0.02,1.32,0.01,1.99c-0.01,0.6,0.3,0.86,0.86,0.93c0.55,0.07,0.98-0.15,1.13-0.65
	c0.19-0.64-0.29-1.8,1.2-0.76c1.49,1.03,3.3,1.59,4.94,2.41c1.11,0.56,1.11,1.27,0.24,2.16c-0.63,0.65-1.27,0.87-2.15,0.85
	c-2.32-0.05-4.63-0.02-6.95-0.02c-0.97,0-1.8,0.03-2.67,0.81c-1.34,1.21-2.38,0.69-2.59-1.05
	C310.01,363.49,310.04,363.15,310.04,362.77z"/>
<path id="Mersey" d="M262.67,407.15c0.57,0.33,0.42,0.88,0.39,1.34c-0.24,3.42-0.19,3.81,2.52,4.44c1.12,0.26,1.72,0.84,2.37,1.51
	c0.96,0.98,1.61,0.59,2.45-0.18c0.42-0.38,0.76-1.82,1.7-0.64c0.53,0.66,1.99,0.02,1.74,1c-0.16,0.63-0.51,1.64-0.99,2.01
	c-0.85,0.65-2.01,0.84-2.72,1.82c-0.47,0.64-1,1.1-1.12,2.05c-0.17,1.4-1.68,2.09-2.59,1.32c-1.9-1.59-3.79-3.32-4.26-5.88
	c-0.19-1-0.55-1.74-1.03-2.58c-1.19-2.07-0.88-4.05,0.88-5.74C262.2,407.43,262.45,407.3,262.67,407.15z"/>
<path id="Hampshire" d="M319.13,515.99c1.83,0,3.66,0.1,5.48-0.03c1.72-0.12,3.01,0.78,4.36,1.53c0.49,0.27,1.13,0.69,1.07,1.53
	c-0.1,1.36-1.12,0.84-1.83,0.97c-0.31,0.05-0.79,0.06-0.88,0.24c-0.66,1.4-0.15,2.91-0.31,4.36c-0.12,1.06,0.39,1.24,1.37,1.48
	c0.97,0.23,0.86,1.21,0.15,1.89c-3.38,3.22-4.45,5.22-4.48,9.02c-0.01,1.48-0.26,2.8-1,4.09c-0.29,0.51,0.21,1.76-0.43,1.71
	c-1.08-0.08-0.46-1.26-0.6-1.96c-0.23-1.17-0.68-0.72-1.17-0.19c-0.22,0.25-0.48,0.46-0.7,0.71c-0.55,0.61-0.95,0.82-1.15-0.27
	c-0.12-0.67,0.55-1.67-0.63-1.88c-0.1-0.02-1.9,0.63-0.69,2.09c0.68,0.82-0.84,0.77-1.07,0.64c-1.64-0.98-3.37-1.86-4.58-3.42
	c-0.14-0.18-0.55-0.39-0.68-0.32c-0.54,0.3-0.41,0.89-0.27,1.32c0.79,2.45,0.74,3.11-1.07,3.39c-1.65,0.26-2.84,1.22-4.26,1.79
	c-1.05,0.42-2.68,1.21-2.71-1.16c-3.59-0.62-2.46-4.19-3.86-6.18c1.5-1.01,0.02-1.44-0.37-2.13c-0.34-0.6-1.86,0.36-1.37-1.02
	c0.09-0.26,1.28-0.37,1.82-0.17c1.01,0.36,1.88,1.07,2.86,1.51c2.28,1.02,3.79,0.13,3.91-2.32c0.13-2.57-0.99-4.9-1.6-7.32
	c-0.59-2.32-0.69-2.77,1.44-3.84c0.93-0.46,1.71-0.94,2.15-1.75c1.92-3.54,3.03-4.31,6.62-4.33
	C316.13,515.99,317.63,515.99,319.13,515.99z M318.18,544.96c-1.66-0.36-3.29-0.85-4.93-1.27c-0.36-0.09-0.39-1.11-1.06-0.36
	c-1.54,1.74-3.49,2.62-5.79,2.84c-0.14,0.01-0.33,0.53-0.33,0.82c0,0.28,0.23,0.82,0.32,0.81c2.5-0.19,3.91,1.86,5.76,2.9
	c2.37,1.34,2.13,1.4,3.89-0.12c1-0.87,0.67-2.98,2.71-2.86c0.1,0.01,0.25-0.84,0.2-0.66C319.07,545.73,319.09,545.16,318.18,544.96z
	"/>
<path id="Scotland" d="M320.03,61.91c-0.03,0.12-0.09,0.6-0.29,1.02c-0.13,0.28-0.62,0.17-0.65-0.23c-0.06-0.9-0.17-1.81-1.29-1.47
	c-0.88,0.27-1.85,0.94-1.74,2.07c0.27,2.83-0.54,5.24-1.92,7.71c-0.64,1.14-0.1,2.93-0.11,4.43c0,0.61,0.05,1.75-0.5,1.58
	c-0.66-0.2-1.24-0.84-2.08-0.98c-0.56-0.1-0.6-1.07-0.38-1.24c1.46-1.15,0.84-2.71,0.97-4.12c0.04-0.47,0-0.88,0.31-1.37
	c2.24-3.47,2.4-7.06,0.74-10.87c-0.64-1.46-0.88-2.83-1.32-3.02c-0.72-0.32-0.72-0.32-0.73,1.32c-0.01,1.1-1.86,3.24-3,3.45
	c-0.63,0.12-1.06-0.31-0.97-0.78c0.47-2.37-1.02-2.24-2.6-2.24c-1.49-0.01-2.27-0.91-2.44-2.41c-0.28-2.45,0.49-3.41,2.58-2.25
	c1.73,0.96,2.51-1.52,3.81-0.31c0.72-0.86,1.42-1.09,2.19-0.02c0.11,0.15,0.74,0.13,0.93-0.03c1.02-0.88-0.11-2.69,1.43-3.38
	c-0.43-0.47-0.87-1.35-1.29-1.34c-1.83,0.05-2.16-1.74-2.28-2.5c-0.43-2.7-2.03-3.53-4.39-3.73c-0.29-0.02-0.8-0.22-0.81-0.35
	c-0.02-0.59,0.55-0.84,0.91-0.6c1.58,1.07,0.05-3.58,2.25-1.2c0.34,0.37,0.65,0.84,1.07,1.02c0.37,0.15,1.06,0.12,1.3-0.13
	c0.51-0.53-0.25-0.8-0.52-1c-2.11-1.57,0.23-2.59,0.48-3.83c0.36-1.79,2.33,1.12,2.78-0.83c0.19,0.22,0.58,0.55,0.53,0.63
	c-1.51,2.73-0.79,5.7-1.01,8.57c-0.04,0.55-0.68,1.03-0.93,1.6c-0.1,0.22,0.08,0.61,0.23,0.87c0.17,0.3,0.36,0.05,0.71-0.17
	c1.45-0.93,1.77-2.64,2.81-3.84c0.37-0.43,0.97-1.26,1.18,0.04c0.19,1.2,2.26,2.42,0.09,3.68c0.43,0.47,0.79,1.13,1.33,1.36
	c0.49,0.21,0.6-0.41,0.64-0.89c0.02-0.28,0.25-0.55,0.39-0.83c0.53,1.05,1.15,2.08,1.54,3.18c0.14,0.4-0.38,0.81-0.99,0.74
	c-2.43-0.25-2.2,0.51-0.68,1.79c0.27,0.22-0.31,4.01-0.69,4.05c-2.93,0.34-1.59,2.56-1.35,3.72c0.19,0.91,1.44,2.41,3,0.74
	c0.58-0.62,0.69,0.19,0.74,0.58C320.08,60.55,320.03,61.05,320.03,61.91z M321.24,27.18c-1.39-0.36-1.66,0.6-2.53,2.25
	c-0.78,1.49-0.1,3.43-1.93,4.61c-2.25,1.45,1.31,3.03,0.28,4.74c-0.21,0.35-0.14,0.99,0.38,1.3c0.13,0.07,0.31,0.06,0.46,0.1
	c2.39,0.58,3.2-0.11,3.12-2.66c-0.03-0.96,0.27-2.02-0.82-2.66c0.79-0.79,0.18-1.64,0.12-2.47c1.84-0.1,1.86-1.34,1.69-2.75
	C321.66,28.89,322.84,27.6,321.24,27.18z M146.89,189.71c-0.66,1.08-1.5,2.56-3.36,2.44c-2.01-0.14-1.19,0.69-0.4,1.45
	c1.17,1.15,2.18,3,3.53,3.29c1.29,0.27,1.25-2.28,2.39-3.15c0.74-0.57,1.12-1.55,2.29-1.64c1.27-0.09,0.88-1.24,0.77-1.91
	c-0.25-1.6-1.32-2.27-3.22-2.02C147.52,187.45,147.53,188.67,146.89,189.71z M257.1,341.06c1.9-0.13,4.41,0.87,4.3-2.72
	c-0.02-0.68,1.22-1.54,2.03-2.1c3.44-2.38,7.53-3.95,8.82-8.7c0.37-1.37,2.1-2.58,3.48-3.41c1.89-1.14,3.63-2.63,5.52-3.55
	c2.37-1.14,2.99-2.54,2.83-4.87c-0.09-1.35,0.06-2.69-1.35-3.45c-1.43-0.76-0.15-2.45-1.31-3.52c-0.64-0.59,1.12-1.21,1.47-2.02
	c1.43-3.32,4.86-5.08,6.44-8.32c0.47-0.96,0.86-1.39,0.16-2.49c-0.95-1.51-1.41-3.27-3.79-2.85c-1.56,0.28-2.67-0.94-3.76-1.71
	c-1.44-1.02-2.67-2.31-4.57-2.25c-0.77,0.02-1.17-0.41-1.66-0.86c-2.35-2.19-2.36-2.1-4.51-2.18c-2.1-0.08-3.61,0.08-4.45,2.64
	c-0.58,1.77-2.56,2.84-4.89,2.4c-2.81-0.53-5.69-0.81-8.46-1.37c-2.58-0.53-5.24-0.88-7.78-1.66c-0.91-0.28-2.74,0.89-2.47-1.24
	c0.18-1.4,1.62-0.65,2.49-0.71c0.93-0.07,1.78,0.18,2.74,0.59c2.44,1.06,4.97,0.14,7.43-0.61c1.69-0.52,2.42-1.78,3.33-3.16
	c2.14-3.23,5.12-5.34,9.25-4.82c2.39,0.3,4.06-0.56,5.56-2.35c1.62-1.94,1.49-3.01-1.15-3.59c-1.46-0.32-2.53-1.18-3.79-1.74
	c-0.9-0.39-1.49-1.35-0.43-2.35c1.06-1.01,0.3-1.69-0.42-2.42c-0.69-0.7-1.21-0.62-2.09-0.14c-2.56,1.42-5.29,2.53-7.82,3.99
	c-0.8,0.46-1.48,0.57-2.27,0.55c-0.28-0.01-0.55-0.27-0.82-0.41c0.21-0.19,0.44-0.56,0.62-0.54c1.02,0.12,1.45-0.67,2-1.24
	c2.59-2.65,5.88-3.73,9.43-3.73c2.29,0,4.2-0.25,5.6-2.26c0.47-0.67,1.09-1.6,1.76-1.71c2.68-0.45,2.73-2.76,3.49-4.53
	c1.47-3.46,2.27-7.3,5.62-9.67c0.4-0.28,0.71-0.7,1.07-1.05c1.58-1.51,2.51-3.3,2.32-5.53c-0.14-1.7,0.15-3.07,1.49-4.43
	c1.17-1.19,1.58-2.96,1.59-4.83c0.01-1.72-0.11-3.42,0.44-5.27c1.04-3.46,3.55-5.86,5.19-8.85c0.81-1.48,2.31-2.6,3.12-4.21
	c0.97-1.95-0.91-3.22-0.96-5.02c-0.09-3.07-2.25-5.19-4.84-6.65c-1.29-0.73-2.39-1.38-4.34-0.46c-2.82,1.34-6.4-0.26-9.4,1.4
	c-0.22,0.12-0.72,0.04-0.91-0.14c-1.71-1.61-3.82-0.88-5.65-0.73c-2.06,0.16-3.55-1.68-5.6-1.12c-0.46,0.13-1.12-0.18-1.47,0.05
	c-3.63,2.35-7.1,0.64-10.51-0.47c-2.32-0.76-4.25-1.04-6.19,0.9c-0.81,0.81-2.19,1.41-3.33,1.46c-2.25,0.09-3.84,1.13-5.55,2.4
	c-1.17,0.87-2.53,2.03-4.28,1.66c-1.9-0.39-3.09,0.63-4.21,1.93c-0.76,0.88-1.66,1.64-2.45,2.49c-0.5,0.54-1.1,0.84-1.7,0.43
	c-0.83-0.57-0.62-1.78-0.32-2.27c0.68-1.1,1.73-2,2.73-2.87c1.24-1.08,2.04-2.43,2.86-3.81c0.5-0.84-0.34-0.92-0.42-0.86
	c-1.6,1.26-3.71-0.65-5.35,0.9c-0.37,0.35-0.91,0.91-1.52,1.05c-0.46,0.1-1.08,0.13-1.29-0.42c-0.24-0.62-0.22-1.5,0.61-1.51
	c1.87-0.03,3.21-1.05,4.77-1.82c1.05-0.52,2.61-2.65,4.11-0.25c0.12,0.18,0.91,0.15,1.3-0.35c1.68-2.14,3.41-4.25,5.08-6.4
	c0.13-0.16-0.05-0.62-0.17-0.9c-0.19-0.42-0.36-0.27-0.71,0.05c-0.7,0.63-1.1,1.66-2.31,1.64c-2.33-0.04-4.67,0.09-6.99-0.08
	c-0.6-0.05-1.61-0.99-1.59-1.5c0.03-0.69,1.08-0.37,1.71-0.42c0.5-0.04,1.01-0.07,1.5,0c1.38,0.2,1.73-0.47,1.61-1.7
	c-0.17-1.88,0.42-3.79,1.94-4.62c2.67-1.46,4.28-4.02,6.64-5.69c3.59-2.55,6.83-5.33,9.14-9.15c0.53-0.87,1.5-1.46,2.65-1.94
	c4.16-1.75,6.57-5.35,8.46-9.29c0.4-0.83,0.23-1.59-0.99-1.62c-0.63-0.01-1.53,0.3-1.76-0.45c-0.22-0.71-0.45-1.64,0.2-2.33
	c0.88-0.93,0.77-2.48,2.1-3.15c0.91-0.46,0.65-1.46,0.57-2.23c-0.14-1.3-1.23-0.75-1.94-0.81c-1.26-0.11-2.65,0.37-3.57-0.98
	c-1.08,1.73-2.06,0.67-3.21,0.01c-0.76-0.43-1.67,0.6-1.17,1.43c0.55,0.92,1.57,1.65-0.47,1.49c-1.72-0.13-3.44,0.52-5.19-0.83
	c-0.83-0.64-2.81-0.61-3.99,0.88c-1.41,1.79-3.49,2.17-5.65,1.96c-1.4-0.14-3.02,0.66-4.14-0.86c-1.36,0.66-2.55,1.6-4.11,1.91
	c-1.69,0.33-3.24,1.38-5.09,0.98c-0.46-0.1-1.05-0.15-1.31,0.4c-0.2,0.41-0.17,1.24-0.38,1.29c-1.16,0.28-0.75-0.76-0.68-1.17
	c0.22-1.28-0.72-1.84-1.45-2.4c-1.7-1.31-2.49-1.1-3.59,0.67c-0.9,1.46-1.76,2.94-2.72,4.37c-0.19,0.28-0.47,1.02-1,0.54
	c-0.25-0.23-0.27-0.91-0.14-1.3c0.14-0.43,0.87-0.83,0.8-1.13c-0.21-0.94,1.2-1.28,0.78-1.97c-0.5-0.83-1.84-2.15-2-2.04
	c-2.38,1.59-2.7-2.14-4.62-1.74c-0.28,0.06-1.04-0.56-1.72-0.53c-0.66,0.03-1.47-0.03-1.35,0.92c0.24,1.8-0.39,3.07-1.68,4.35
	c-0.8,0.8-0.63,2.12,0.43,3c0.36,0.3,0.57,0.83,1.2,0.74c0.48-0.07,0.97,0.02,0.8,0.67c-0.04,0.17-0.54,0.27-0.83,0.31
	c-0.49,0.06-1.4-0.04-1.42,0.06c-0.38,2.05-3.14,2.93-2.55,5.48c0.35,1.51,0.47,1.81,3.51,3.48c0.28,0.15,0.59,0.41,0.69,0.69
	c0.28,0.77,1.88-0.37,1.49,1.03c-0.07,0.24-1.44,0.49-1.77,0.21c-1.33-1.12-2.37-0.38-3.75-0.19c-1.4,0.2-3.05,1.93-4.67,0.28
	c-0.2-0.2-1.07-0.28-1.29,0.33c-0.14,0.39-0.18,1.07,0.06,1.31c1.47,1.53,2.45,3.16,2.85,5.35c0.39,2.14-1.29,1.96-2.21,2.52
	c-1.22,0.73-1.33-0.91-2.08-1.29c-0.68-0.35-1.29-0.45-1.68,0.19c-0.18,0.3-0.07,1.04,0.18,1.3c1.91,1.97,3.66,4.23,6.33,5.17
	c0.91,0.32,1.53,0.43,1.35,1.48c-0.17,0.97,0.45,1.47,0.97,2.12c0.29,0.36,1.51,0.59,0.6,1.35c-0.53,0.44-1.23,0.1-1.68-0.49
	c-0.52-0.68-1.56-0.19-2.09-1.04c-0.4-0.64-1.17-0.56-1.62,0.07c-0.07,0.1,0.61,0.63,0.75,1.03c0.18,0.51,1.53,0.55,0.69,1.37
	c-0.5,0.49-1.21,0.19-1.68-0.39c-0.21-0.26-0.49-0.46-0.7-0.71c-0.8-0.98-1.46-0.91-2.44-0.07c-2.17,1.87-2.37,1.88-3.72-0.71
	c-0.39-0.76-0.73-1.04-1.38-0.92c-0.86,0.17-0.85,0.99-0.66,1.57c0.39,1.16,0.91,2.29,1.47,3.39c0.61,1.2-0.92,1.74-0.76,2.77
	c-1.04-0.15-1.74-0.84-1.7-1.79c0.07-1.56-0.58-2.53-1.97-2.92c-0.55-0.15-1.4-0.37-1.85,0.26c-0.96,1.36-0.05,5.64,1.36,6.69
	c1.34,0.99,1.34,0.99-0.21,2.12c-1.55,1.14-1.44,1.57-0.32,3.5c1.27,2.21,2.52,4.12,5.52,3.48c0.18-0.04,0.46,0.44,0.7,0.67
	c0.24,0.24,0.47,0.47,0.71,0.71c-0.25,0.17-0.5,0.48-0.76,0.49c-2.27,0.14-4.53,0.17-6.33-1.59c-0.56-0.55-1.36-0.7-1.66-0.05
	c-0.71,1.56-1.72,3.11-1.23,4.98c2.76,0.87,1.86,3.17,2.03,5.08c0.04,0.49,0.64,0.58,1.17,0.61c0.88,0.05,1.53-0.19,2.18-0.83
	c0.4-0.39,0.71-1.76,1.74-0.57c0.55,0.63,1.18,1.18,1.73,1.8c0.03,0.03-0.29,0.53-0.49,0.57c-0.64,0.1-1.48-0.15-1.91,0.18
	c-0.6,0.44-1.48,0.85-1.45,1.86c0.03,1.37,1.08,0.93,1.8,0.98c0.83,0.06,1.67-0.03,2.5,0.04c0.22,0.02,0.42,0.35,0.63,0.54
	c-0.12,0.12-0.24,0.34-0.35,0.34c-2.88,0-2.03,2.8-3.14,4.12c-0.96,1.14-0.31,2,0.54,2.37c1.27,0.55,2.27,1.77,3.83,1.61
	c0.49-0.05,1.12,0.09,1.05,0.57c-0.08,0.55-0.79,0.47-1.27,0.42c-0.93-0.1-1.89,0.3-2.77-0.59c-0.89-0.9-2.23-0.47-3.3-0.33
	c-1.22,0.16-1.81,3.68-1.3,3.55c2.42-0.62,2.49,2.69,4.52,2.39c0.5-0.08,1.19,0.07,1.16,0.52c-0.03,0.49-0.78,0.36-1.23,0.5
	c-1.92,0.64-3.19-1.6-5.1-1.05c-0.59,0.17-1.69-0.03-1.5,0.72c0.39,1.53-0.98,2.33-1.09,3.6c-0.1,1.21,0.2,1.93,1.6,1.71
	c1.05-0.16,1.37,0.31,1.46,1.37c0.11,1.37-0.79,1.33-1.6,1.84c-0.91,0.58,1.26,1.3,0.51,2.3c-0.17,0.23-0.51,0.38-0.8,0.46
	c-1.19,0.36-2.1,1.32-3.59,1.07c-1.62-0.27-3.33,0.06-4.98-0.1c-1.27-0.12-1.86,0.69-2.4,1.43c-0.79,1.08,0.08,2.6,1.43,2.6
	c2.99,0.01,6.22,0.65,8.89-0.29c2.02-0.71,3.83-0.33,5.7-0.68c0.23-0.04,0.53,0.3,0.79,0.46c-0.25,0.17-0.54,0.52-0.75,0.49
	c-2.72-0.46-4.87,0.94-7.19,1.98c-2.35,1.06-2.62,1.64-1.19,3.44c1.06,1.34,2.56,1.97,3.97,2.54c4.13,1.68,4.2,1.59,7.41-1.68
	c3.55-3.62,7.45-6.93,10.29-11.21c0.2-0.31,0.57-1.51,1.34-0.6c0.44,0.53,0.04,1.17-0.46,1.69c-0.64,0.67-1.97,1.26-1.31,2.36
	c0.58,0.99,1.22,0.98-0.45,1.66c-2.21,0.89-3.5,3.27-4.56,5.44c-0.27,0.56-0.77,2.06,0.77,2.39c0.46,0.1,1.09,0.11,1,0.61
	c-0.1,0.57-0.8,0.4-1.28,0.41c-0.64,0-1.4-0.16-1.55,0.73c-0.11,0.67,0.02,1.3,0.99,1.29c0.83-0.01,1.36,0.5,0.36,0.94
	c-3.24,1.41-4.52,4.16-5.39,7.28c-0.08,0.27-0.34,0.71-0.51,0.7c-0.5-0.02-0.65-1.42-1.38-0.47c-0.42,0.54,0.13,1.12,0.51,1.7
	c1.24,1.89,2.24,3.87,0.42,6.02c-0.07,0.08,0.25,0.71,0.45,0.74c0.52,0.08,0.62-1.41,1.37-0.52c0.45,0.53-0.09,1.11-0.4,1.7
	c-0.71,1.37-0.92,2.88-2.07,4.18c-0.92,1.05-1.35,2.91-1.26,4.37c0.07,1.18-2.21,3.12,0.76,3.78c0.05,0.01,0.08,0.99-0.16,1.27
	c-1.22,1.41-1.01,2.64,0.3,3.79c1.71,1.5,2.18-0.54,3.09-1.18c0.38-0.27,0.53-0.45,0.72,0.02c0.12,0.29,0.25,0.68,0.14,0.92
	c-0.2,0.42-0.53,0.82-0.88,1.13c-3.97,3.41-5.37,7.84-5.06,12.89c0.15,2.56-0.52,4.68-2.31,6.56c-0.97,1.02-1.06,4.82-0.3,4.96
	c1.38,0.26,2.68,0.33,4.14-0.63c0.9-0.6,1.76-1.3,2.68-1.9c1.06-0.7,1.12-2.28,0.7-2.6c-1.88-1.44-0.2-2.51,0.03-3.77
	c0.36-2.02,1.63-3.88,1.05-6.08c-0.73-2.76,1.07-4.88,2.07-7.13c0.56-1.26,1.88-2.19,2.86-3.27c-1.13-1.17-1.76-2.51-2.01-4.18
	c-0.22-1.49-1.01-2.9-1.52-4.35c-0.77-2.15-0.73-2.17,1.8-2.92c0.53-0.16,1.3-0.84,1.45-0.71c0.68,0.61,0.6,1.82,0.21,2.24
	c-2.09,2.25-0.41,4.2,0.37,6.15c0.25,0.62,0.88,1.46,1.89,1.33c1.31-0.17,0.79-1.22,0.84-1.93c0.07-0.99,0-2,0.02-3
	c0.02-0.74,0.12-1.27,1.03-0.56c0.6,0.46,1.45,0.62,2.02,1.11c0.65,0.56,0.75,0.08,0.94-0.31c0.2-0.42,0.34-0.86,0.5-1.29
	c0.17,0.26,0.45,0.5,0.48,0.78c0.07,0.66,0.07,1.33,0.01,2c-0.09,1.02,0.68,1.71,1.29,1.91c1.35,0.43,0.7-1.05,0.95-1.55
	c0.89-1.79,1.87-3.63,1.77-5.76c-0.02-0.49-0.08-1.16,0.45-1.25c0.29-0.05,0.71,0.55,1.05,0.88c0.73,0.73,1.47,1.73,1.54-0.39
	c0.02-0.47,0.43-0.61,0.96-0.16c0.99,0.84,1.54,2.2,2.94,2.53c0.98,0.23,1.98,0.83,1.73,1.7c-0.21,0.73-1.49,0.17-2.27,0.31
	c-0.75,0.14-1.14-0.53-1.69-0.73c-1.94-0.72-3.01-0.12-3.7,1.8c-0.42,1.15-0.16,3.68-0.09,5.17c0.04,1.02,1.18,1.81,0.8,2.45
	c-2.38,4.05,0.88,5.53,3.3,7.22c0.66,0.46,1.78,1.04,1.77,1.46c-0.04,2.23,1.7,3.69,2.16,5.64c0.15,0.64,0.4,1.47-0.73,2.02
	c-3.04,1.47-5.1,3.78-5.21,7.39c-1.53,1.27-0.98,3.49-2.66,4.98c-1.74,1.55-2.38,4.28-3.69,6.37c-1.07,1.72-0.7,3.34-0.29,5.08
	c0.32,1.34,2.07,2.09,1.49,3.76c-2.17,0.07-1.43-2.5-2.82-3.14c-0.07-0.03,0-0.31-0.03-0.47c-0.33-1.6-1.11-1.15-2.04-0.51
	c-0.97,0.67-1.21,1.65-0.92,2.6c1.15,3.7,3.17,6.87,6.06,9.49c0.71,0.64,0.82-0.02,0.87-0.37c0.1-0.65-0.01-1.33,0.04-1.99
	c0.21-3.15,2.46-4.57,4.88-2.75c2.67,2,6.11,2.95,8.08,5.92c0.43,0.64,1.22,1.48,1.83,1.47c0.91-0.02,1.19,1.36,1.92,0.76
	c0.36-0.29,0.24-1.21,0.26-1.85c0.09-2.42,0.15-4.85-1.55-6.85c-0.49-0.58-0.72-1.2-0.17-1.69c0.83-0.74,1.43-0.05,2.05,0.53
	c1.02,0.95,1.71,2.68,3.71,1.26c0.69-0.49,1.06,0.55,0.94,1.21c-0.22,1.21,0.56,1.84,1.3,2.47c0.58,0.49,1.5,0.41,1.63-0.23
	c0.23-1.21,0.14-1.88,1.51-0.67c1.83,1.6,5.29,1.2,5.41-0.66c0.14-2.33,1.49-1.76,2.66-2.4c1.11-0.61,2.09-0.65,3.18-0.82
	c1.39-0.21,2.28-0.93,2.36-2.53c0.05-0.93-0.8-2.27,1.29-2.58c0.95-0.14,2.3-1.47,3.03-0.78c1.81,1.71,3.83,0.44,5.32,0.92
	C256.43,341.06,256.77,341.08,257.1,341.06z M170.14,159.13c0.49,1.29-1.43,2.32-0.91,3.01c2.04,2.7-0.41,3.64-1.67,5.06
	c-1.06,1.19-2.27,2.18-2.9,3.78c-0.31,0.79-0.77,1.65-0.45,2.25c0.84,1.57,0.69,2.51-1.15,2.89c-0.85,0.18-1.13,0.32-0.27,1.03
	c1.4,1.15,1.98,3.27,0.99,3.67c-2.53,1.04-2.4,3.83-4.12,5.28c-0.51,0.43-0.9,1.56-1.77,0.3c-0.64-0.94-2.99,0.8-2.74-1.68
	c0.02-0.16,0.06-0.37-0.01-0.49c-0.55-0.97-1.12-1.93-1.69-2.9c-0.47,1.24-0.54,2.48,0.1,3.69c0.07,0.14,0.34,0.25,0.33,0.35
	c-0.14,1.03,1.67,2.18,0.69,2.58c-0.92,0.38-2.66,0.99-3.82-0.65c-1.03-1.46-2.34-2.74-4.56-2.25c-0.59,0.13-1.38-0.57-2.06-0.93
	c-1.17-0.63-1.48-2.59-0.35-2.86c1.87-0.45,0.75-0.7,0.52-1.64c-0.3-1.22-1.48-2.08-1.19-3.54c0.26-1.29-0.58-3.05,1.76-3.23
	c0.13-0.01,0.29-0.87,0.26-1.32c-0.07-1.06,0.34-1.47,1.41-1.41c0.85,0.05,1.67-0.06,1.61,1.19c-0.08,1.86,0.43,2.69,2.17,1.15
	c0.59-0.52,1.17-0.52,1.7,0.06c0.64,0.7,1.4,1.03,2.02,0.16c0.4-0.56-0.09-1.13-0.51-1.69c-2.44-3.24-1.67-5.65,2.12-6.84
	c2.56-0.81,3.77-1.42,5.76-3.85c1.28-1.57,3.21-2.09,4.59-3.46c0.74-0.73,1.56-2.48,2.62-1.47
	C169.46,156.14,170.5,157.54,170.14,159.13z M171.21,208.88c-0.21,2.08,0.21,3.45-0.97,4.83c-0.77,0.9,0.6,2.44,1.05,3.42
	c1.85,4,4.69,7.46,11.18,5.17c0.44-0.16,0.94-0.14,1.42-0.18c1.19-0.12,1.35,0.6,1.25,1.53c-0.05,0.47-0.01,0.88-0.34,1.36
	c-1.17,1.69-3.53,2.06-4.06,4.74c-0.35,1.76-2.93,3.01-4.32,4.65c-1.01,1.18-1.4,0.15-1.76-0.35c-0.76-1.04,0.97-1.68,0.56-2.88
	c-0.4-1.16,0.07-1.86,1.55-2.32c1.49-0.46,1.73-1.61-0.35-2.04c-0.41-0.08-0.73-0.65-1.06-1.02c-1.18-1.3-1.13-0.2-1.19,0.62
	c-0.04,0.63,0.18,1.45-0.61,1.66c-1.01,0.27-1.28-0.32-1.46-1.33c-0.19-1.05-1.62-0.89-2.05-0.57c-2.5,1.82-4.46,0.4-5.52-1.42
	c-0.84-1.45-1.95-2.51-2.95-3.74c-0.76-0.92-0.49-1.56,0.82-1.89c0.46-0.12,0.99-0.01,1.42-0.18c0.6-0.24,0.39-1.26,0.35-1.27
	c-1.53-0.35-2.27-1.83-3.49-2.44c-1.25-0.62-2.17,0.65-2.43,1.71c-0.31,1.29-0.42,0.89-1.38,0.47c-1.72-0.75-2.94-1.7-3.72-3.42
	c-0.45-0.98-0.48-1.64-0.06-2.72c0.53-1.35,0.98-1.54,1.99-0.74c0.65,0.51,1.16,1.19,1.78,1.73c0.3,0.26,0.5,0.99,1.01,0.57
	c0.26-0.21,0.34-1.18,0.2-1.26c-1.84-1,1.64-2.98-0.75-3.95c-0.35-0.14-0.52-1.91,0.14-2.17c1.32-0.52,0.3,1.12,1,1.49
	c0.68,0.35,1,1.19,2.01,1.21c1.08,0.02,1.25,2.14,2.5,1.58c1.67-0.75,1.49-2.59,1.13-3.92c-0.58-2.15-1.15-4.1,0.74-5.9
	c0.82-0.78,1.67-1.35,2.39-0.19C169.07,202.76,172.18,205.34,171.21,208.88z M166.15,259.14c-0.19-1.34,0.01-2.33,1.74-2.06
	c0.29,0.05,0.86-0.04,0.89-0.17c0.35-1.46,1.25-2.53,2.64-1.73c1.2,0.69,2.72,1.05,3.31,2.88c0.73,2.29,2.06,4.03,5.14,4.21
	c1.76,0.11,3.47,1.98,5.07,3.22c0.34,0.27,0.26,1.25,0.16,1.88c-0.14,0.88-0.91,0.73-1.55,0.71c-1.95-0.06-1.25,0.57-0.5,1.51
	c0.35,0.43,0.22,1.39-0.67,1.46c-1.22,0.1-2.39,2.23-3.73,0.11c-0.15-0.24-0.84-0.13-1.32,0.19c-2.83,1.85-6.13,2.11-9.32,2.85
	c-1.69,0.39-2.59,0.61-2.83-1.25c-0.12-0.95-0.72-2.72,1.55-0.99c1.32,1.01,3.31-0.5,5-0.79c1.17-0.2,1.62-0.99,2.37-1.56
	c-0.97-1.13-1.6-0.3-2.37,0.31c-0.32,0.25-0.94,0.12-1.42,0.15c-0.91,0.07-1.16-0.18-0.71-0.92c0.7-1.15,0.82-2.83,2.62-3.08
	c1.09-0.15,1.49-1.21,2.22-1.84c0.24-0.21,1.08-0.48,0.3-1.02c-0.23-0.16-0.8-0.25-0.91-0.11c-1.4,1.67-2.39,0.87-3.58-0.34
	c-0.73-0.75-1.81-1.52-2.78-1.6C165.81,261.05,166.17,260.07,166.15,259.14z M174.12,304.24c0.55,2.72-2.17,2.79-3.56,3.71
	c-0.86,0.58-2.29-0.04-2.72,1.79c-0.21,0.88-1.32,0.23-1.95-0.39c-0.49-0.49-0.89-0.8-0.12-1.43c1.39-1.14,2.07-2.39,0.66-4.12
	c-0.6-0.74-0.59-1.83,0.15-2.65c0.34-0.37,0.67-0.77,0.04-1.02c-0.38-0.15-0.99-0.25-1.33,0.3c-0.66,1.07-2.23,1.43-2.23,3.08
	c0,0.48-0.77,1.05-1.31,1.39c-0.32,0.2-0.94,0.13-1.31-0.04c-0.53-0.25-0.46-1.12-0.24-1.27c0.94-0.6,0.7-1.78,1.38-2.44
	c0.53-0.51,0.5-1.02,0.43-1.71c-0.26-2.54,0.45-3.67,2.42-4.14c0.67-0.16,0.68,0.32,0.7,0.8c0.03,0.83,0.65,1.36,0.91,0.39
	c0.48-1.78,1.68-2.61,3.1-3.4c1.89-1.06,2.04-1.08,1.95,0.88c-0.13,2.8,1.39,5.08,2.15,7.59
	C173.5,302.37,174.25,303.11,174.12,304.24z M253.08,124.73c0-0.5,0.01-1,0-1.5c-0.02-1.63-0.3-3.44,1.8-4.06
	c2.12-0.63,4.98,0.43,6.2,2.14c0.37,0.52,0.74,1.05,1.18,1.5c0.61,0.64,1.28,1.14-0.3,1.38c-0.55,0.08-1.05,0.68-1.52,1.11
	c-0.47,0.43-1.3,1.05-1.21,1.38c0.2,0.75,1.1,0.43,1.73,0.46c2.07,0.1,4.23-0.48,6.08,1c0.23,0.18,0.8,0.19,0.82,0.34
	c0.4,2.63,1.54,1.76,2.86,0.71c0.3-0.24,1.05-0.12,1.26,0.42c0.17,0.42,0.3,1.04-0.22,1.32c-0.68,0.36-1.5,0.35-2.07,1.06
	c-0.57,0.7-1.3,1.88-2.34,0.86c-0.79-0.76-2.64-0.44-2.33-2.45c0.21-1.41-0.64-1.49-1.84-0.9c-1.37,0.67-2.53,1.84-4.31,1.69
	c-2.18-0.19-2.74-0.99-2.04-3.3c0.18-0.6,0.23-1.26,0.22-1.9c0-0.27-0.29-0.54-0.45-0.8c-0.24,0.22-0.44,0.5-0.71,0.64
	c-1.39,0.68-0.4,2.17-1.07,3.05c-0.15,0.2-0.58,0.28-0.87,0.25s-0.57-0.24-0.81-0.43c-0.09-0.07-0.07-0.3-0.07-0.46
	C253.08,127.06,253.08,125.89,253.08,124.73z M196.54,303.1c0.64-0.13,3.35,2.65,3.59,3.42c0.9,2.82,0.59,5.91,1.94,8.65
	c0.22,0.46,0.22,1.81-0.34,1.7c-1.39-0.27-1.78,1.85-3.45,0.97c-2.42-1.28-3.91-2.98-4.15-5.7c-0.11-1.26,0.26-2.52-0.93-3.65
	c-0.4-0.38-0.42-1.84,0.59-2.64C194.82,305.04,195.67,303.99,196.54,303.1z M133.16,223.52c-0.92-1.83,1.13-3.56,1.03-5.66
	c-0.02-0.49,0.44-0.68,1-0.78c2.59-0.48,2.01,2.48,3.56,3.22c0.95,0.46,0.41,1.38-0.27,1.99c-0.25,0.22-0.44,0.5-0.71,0.69
	c-1.44,1.04-1.76,2.05-0.07,3.18c0.62,0.42,0.77,1.28,0.18,1.64c-0.95,0.58-3.59,0.69-0.08,1.48c0.6,0.14,0.49,0.96,0.3,1.29
	c-0.17,0.31-0.86,0.59-1.21,0.5c-1.82-0.49-3.57-2.74-3.72-4.67C133.11,225.57,133.16,224.74,133.16,223.52z M136.96,207.83
	c-0.64,0.51-0.78-0.26-1.04-0.49c-1.31-1.2-2.34-2.65-4.58-2.29c-1.46,0.24-1.36-0.75-0.77-1.87c1.23-2.32,1.34-2.67,3.37-1.63
	c1.52,0.78,0.97-0.1,1.26-0.75c0.46-1.02,0.6-0.49,1.01,0.21c0.87,1.49,1.17,1.53,1.87,0.08c0.37-0.75,0.68-1.03,1.35-0.95
	c0.51,0.07,0.78,0.45,0.73,1.04c-0.12,1.51-0.02,2.9,1.42,3.91c0.83,0.58,0.42,0.85-0.43,1.05
	C139.69,206.5,137.36,204.81,136.96,207.83z M173.14,294.51c0.02-2.96,2.41-4.68,5.47-3.4c0.92,0.39,0.78,1.68,0.46,2.19
	c-1.06,1.72-2.56,3.13-2.99,5.26c-0.13,0.64-0.99,0.67-1.65,0.31C172.76,297.97,173.16,296.38,173.14,294.51z M177.97,290.14
	c-2.05,0-2.11-0.24-1.19-2.23c0.81-1.75,1.6-3.33,3.73-3.87c1.17-0.3,1.91-2.63,2.98-1.78c0.74,0.59-0.33,2.59-0.9,3.89
	C181.67,288.24,180.58,290.08,177.97,290.14z M254.25,131.8c-0.84-0.96-1.54-0.86-2.4,0.03c-0.78,0.81-1.3,1.65-0.16,2.35
	c1.36,0.84,1.21,2.58,2.39,3.45c0.74,0.55,1.11,1.57,2.32,1.54c0.83-0.02,1.17-0.3,0.92-1.29c-0.07-0.29-0.17-0.59-0.28-0.99
	C257.75,134.4,255.59,133.33,254.25,131.8z M326.53,21.16c-1.4-0.02-2.3,0.8-2.43,1.91c-0.21,1.9,0,3.82-1.03,5.6
	c-0.28,0.49-0.2,1.42,0.71,1.48c0.76,0.05,2.09,0.4,2.16-0.52c0.21-2.56,1.66-4.7,1.97-6.27C328.16,21.31,327.51,21.17,326.53,21.16
	z"/>
<path id="Northern_Island" d="M189.03,357.65c-0.04-0.69-0.99-1.58-2.19-1.63c-2.81-0.11-5.45,0.15-7.55,2.33
	c-0.23,0.23-0.48,1.09-1.02,0.3c-0.16-0.23-0.08-0.62-0.14-0.94c-0.18-0.93,0.4-1.46,0.91-2.13c1.04-1.35,2.57-1.86,3.99-2.47
	c0.69-0.3,1.19-0.45,1.08-1.23c-0.18-1.26,0.5-2.65-0.49-3.78c-0.15-0.17-0.64-0.02-0.96-0.05c-0.53-0.05-1.06,2.09-1.49,0.15
	c-0.9-4.05-5.48-6.27-5.24-10.83c-2.45-0.31-1.75-2.18-1.8-3.66c-0.12-3.2-1.48-4.51-4.82-4.65c-0.97-0.04-2.07,0.12-2.88-0.27
	c-3.21-1.54-6.36-1.05-9.08,0.71c-2.08,1.35-4.1,1.64-6.37,1.57c-0.83-0.03-1.67,0.04-2.5-0.02c-1.11-0.08-1.15,0.53-1.4,1.45
	c-1.26,4.65-2.47,5.54-6.94,5.56c-0.83,0-1.67,0.01-2.5,0c-1.6-0.01-2.43,0.96-2.46,2.38c-0.05,2.42-1.25,4.51-1.7,6.8
	c-0.4,2.02-2.4,3.08-2.5,5.53c-0.13,3.04-3.84-0.08-5.05,2c-0.07,0.13-0.24,0.25-0.38,0.28c-1.21,0.26-2.45,1.32-3.49-0.51
	c-0.58-1.01-0.93,0.25-1.36,0.49c-0.48,0.26-0.51,0.61-0.05,1.05c1.18,1.14,2.52,1.77,4.18,2.02c1.58,0.24,1.87,1.17,0.58,2.1
	c-2.57,1.84-1.54,3.74-0.76,5.97c0.52,1.5,1.68,2.31,2.47,3.49c0.14,0.22,0.06,0.66-0.05,0.95c-0.17,0.44-0.45,0.48-0.69,0.18
	c-1.96-2.45-4.68-3.7-7.53-4.74c-0.24-0.09-0.46-0.34-0.62-0.56c-1.16-1.52-1.27-1.58-2.03-0.14c-0.54,1.03-2.04,1.37-2,2.65
	c0.05,1.48,1.57,2.01,2.41,2.97c1.09,1.26,2.36,2.35,3.5,3.56c0.43,0.45,1.1,0.72,1.06,1.56c-0.15,2.87,1.76,3.15,3.9,2.94
	c1.53-0.15,2.41,0.52,3.11,1.8c0.52,0.96,3.04,1.77,3.48,1.12c0.78-1.16-0.85-1.33-1.2-2.08c-0.39-0.84-0.9-1.62-1.28-2.47
	c-0.11-0.25-0.06-0.7,0.09-0.94c0.49-0.76,0.74,0.03,1.03,0.25c0.39,0.31,0.93,0.64,1.03,1.06c0.6,2.48,2.96,3.11,4.55,4.54
	c0.55,0.49,0.83,0.81,1.45,0.08c1.23-1.45,0.8-3.75,2.75-4.93c0.65-0.4-0.57-1.31-0.9-2.01c-0.31-0.66,0.24-1.17,0.71-1.68
	c1.31-1.4,2.86-2.54,3.63-4.49c0.52-1.34,1.61-1.64,3.12-0.43c0.94,0.76,1.97,1.01,2.62,2.39c0.71,1.52,1.73,2.86,2.29,4.56
	c0.48,1.45,1.03,3.16,3.47,3.37c2.14,0.18,3.44,2.58,3.12,4.22c-0.46,2.35,0.15,3.08,2.23,2.63c0.85-0.18,1.43-1.73,2.47-0.74
	c1.68,1.62,1.63-0.73,2.49-0.98c1.28-0.37,2.59-0.63,3.68,0.17c0.9,0.66,2.08,0.69,2.85,1.68c0.49,0.63,1.04,2.06,2.01,1.48
	c0.93-0.55,2.05-0.68,2.87-1.64c1.53-1.78,2.71-3.61,2.36-6.03c-0.22-1.49,0.74-1.66,1.72-2.28c1.31-0.83,2.31-0.95,3.46-0.01
	c0.61,0.5,1.21,0.57,1.7-0.04c2.59-3.2,5.71-6.16,5.11-11.11C191.82,363.46,189.22,360.85,189.03,357.65z M167.53,356.21
	c0.11,1.44-2.73,2.43-0.62,4.11c-1.12,1.61-1.27,3.72-2.71,5.17c-0.36,0.37-0.56,0.48-1.08,0.09c-1.16-0.88-2.33-1.61-3.97-0.6
	c-0.76,0.47-1.35-0.76-1.84-1.33c-0.46-0.53-0.14-1.18,0.4-1.68c2.03-1.83,3.79-3.63,1.5-6.6c-0.68-0.88,0.72-1.82,1.47-2.24
	c0.81-0.45,1.34,0.1,1.52,1.21c0.17,1.06,1.16,1.02,1.82,0.3c0.98-1.07,2.17-0.42,3.26-0.55c0.53-0.07,0.89,0.31,0.84,0.92
	C168.29,355.6,167.51,355.88,167.53,356.21z M188.17,368.33c-0.3,0.46,0.04,1.3-0.06,1.94c-0.09,0.58-3.15,2.09-3.48,1.74
	c-0.92-0.97,0.4-1.98,0.62-2.23c1.49-1.72,0.79-3.07-0.05-4.72c-0.46-0.9-1.48-1.69-1.11-3.01c0.15-0.54,0.31-0.84,0.98-1.05
	c0.28,0.15,0.76,0.28,1.07,0.59C188.03,363.45,190.16,365.23,188.17,368.33z"/>
</svg>
