<?xml version="1.0" encoding="utf-8"?>
<!-- Generator: Adobe Illustrator 25.4.1, SVG Export Plug-In . SVG Version: 6.00 Build 0)  -->
<svg version="1.1" id="Layer_1" xmlns="http://www.w3.org/2000/svg" xmlns:xlink="http://www.w3.org/1999/xlink" x="0px" y="0px"
	 viewBox="0 0 152.6 152.8" style="enable-background:new 0 0 152.6 152.8;" xml:space="preserve">
<style type="text/css">
	.st0{fill:#526B76;}
	.st1{fill:#F1EBE1;}
</style>
<rect x="0" y="1" class="st0" width="152.6" height="152.6"/>
<path class="st1" d="M22.8,17.3c0.5,0,1-0.1,1.5-0.1c9,0,18.1,0,27.1,0c1.2,0,1.7,0.4,2.2,1.5C61,36.3,68.4,54,75.8,71.7
	c0.1,0.3,0.3,0.5,0.5,1c0.5-1.2,0.9-2.2,1.3-3.2c7.1-16.9,14.2-33.8,21.2-50.8c0.5-1.3,1.2-1.7,2.6-1.7c8.8,0.1,17.6,0,26.4,0
	c0.6,0,1.1,0,1.9,0c-0.2,0.6-0.3,1.1-0.5,1.5c-9.8,22.9-19.5,45.7-29.3,68.6c-7,16.4-14,32.8-21,49.2c-0.2,0.6-0.6,1.4-1.1,1.5
	c-1.1,0.2-2.2,0.1-3.3,0c-0.3,0-0.5-0.7-0.7-1.1c-4.5-10.5-9-20.9-13.5-31.4C48.4,77.4,36.5,49.5,24.6,21.7
	c-0.6-1.4-1.2-2.8-1.8-4.1C22.8,17.4,22.8,17.4,22.8,17.3z M76.3,123.8C90.7,90.1,105,56.7,119.4,23c-0.8,0-1.2,0-1.7,0
	c-3.6,0-7.3,0.1-10.9,0c-1.3,0-1.9,0.4-2.4,1.6c-8.6,20.6-17.3,41.2-25.9,61.9c-0.4,1-0.9,1.5-2.1,1.5c-1.2,0-2.1-0.2-2.4-1.5
	c-0.1-0.3-0.2-0.6-0.3-0.8c-8.6-20.5-17.3-40.9-25.9-61.4C47.5,23.3,47,23,46.1,23c-3.9,0-7.8,0-11.7,0c-0.4,0-0.7,0.1-1.3,0.1
	C47.6,56.7,61.9,90.1,76.3,123.8z"/>
<path class="st1" d="M51.5,37.6c-0.4,0.1-0.7,0.2-1,0.2c-2.8,0-5.6,0-8.4,0c-0.8,0-1.4-0.3-1.5-1.3c0.3-0.1,0.6-0.1,1-0.2
	c2.9,0,5.8,0,8.7,0C50.9,36.3,51.5,36.5,51.5,37.6z"/>
<path class="st1" d="M45.5,48c3.4,0,6.8,0,10.1,0c0.3,0,0.6,0.5,0.9,0.8c-0.3,0.2-0.6,0.5-1,0.6c-2.9,0-5.8,0-8.7,0
	C46.1,49.5,45.6,49.1,45.5,48z"/>
<path class="st1" d="M39,32.4c1.1,0,2.2,0,3.2,0c2.2,0,4.3,0,6.5,0c0.8,0,1.3,0.3,1.3,1.3c-0.4,0.1-0.8,0.2-1.1,0.2
	c-2.8,0-5.5,0-8.3,0C39.6,33.9,39,33.7,39,32.4z"/>
<path class="st1" d="M42.3,40.3c0.4,0,0.7-0.1,1-0.1c2.9,0,5.8,0,8.7,0c0.7,0,1.3,0.1,1.2,0.9c0,0.2-0.8,0.5-1.2,0.5
	c-2.7,0.1-5.4,0-8.2,0C43,41.7,42.3,41.5,42.3,40.3z"/>
<path class="st1" d="M48.2,29.8c-0.5,0.1-0.9,0.2-1.3,0.2c-2.7,0-5.4,0-8.2,0c-0.9,0-1.5-0.2-1.6-1.5c0.6,0,1.2,0,1.8,0
	c2.6,0,5.2,0,7.8,0C47.5,28.5,48.2,28.7,48.2,29.8z"/>
<path class="st1" d="M35.6,24.7c3.4,0,6.7,0,10,0c0.4,0,0.7,0.6,1.1,0.8c-0.1,0.1-0.1,0.3-0.2,0.4c-0.4,0.1-0.8,0.2-1.2,0.2
	c-2.7,0-5.4,0-8.2,0C36.4,26.1,35.7,25.9,35.6,24.7z"/>
<path class="st1" d="M55.6,71.3c3.4,0,6.7,0,9.9,0c0.3,0,0.6,0.5,0.9,0.8c-0.3,0.2-0.6,0.6-0.9,0.6c-2.8,0-5.7,0-8.5,0
	C56.2,72.8,55.8,72.4,55.6,71.3z"/>
<path class="st1" d="M47.3,51.9c1,0,1.9,0,2.8,0c2.2,0,4.4,0,6.6,0c0.7,0,1.3,0.1,1.3,0.9c0,0.2-0.8,0.6-1.2,0.6c-2.7,0.1-5.3,0-8,0
	C48,53.4,47.3,53.1,47.3,51.9z"/>
<path class="st1" d="M64.7,68.8c-0.6,0-1.2,0.1-1.8,0.1c-2.5,0-4.9,0-7.4,0c-0.8,0-1.4-0.2-1.6-1.3c0.3-0.1,0.5-0.2,0.8-0.2
	c2.9,0,5.9,0,8.8,0C64.3,67.4,64.7,67.8,64.7,68.8z"/>
<path class="st1" d="M50.6,59.7c3.4,0,6.7,0,10,0c0.3,0,0.7,0.5,1.3,1.1c-0.8,0.2-1.2,0.3-1.5,0.3c-2.8,0-5.5,0-8.3,0
	C51.2,61.2,50.7,60.8,50.6,59.7z"/>
<path class="st1" d="M49.1,55.8c3.4,0,6.7,0,9.9,0c0.3,0,0.7,0.5,1.3,1.1c-0.8,0.2-1.2,0.3-1.5,0.3c-2.8,0-5.5,0-8.3,0
	C49.7,57.3,49.1,56.9,49.1,55.8z"/>
<path class="st1" d="M63.1,64.8c-0.4,0.1-0.7,0.2-1,0.2c-2.8,0-5.5,0-8.3,0c-0.8,0-1.4-0.3-1.5-1.3c0.3-0.1,0.7-0.1,1-0.1
	c2.8,0,5.6,0,8.4,0C62.5,63.5,63.1,63.7,63.1,64.8z"/>
<path class="st1" d="M57.2,75.2c1.5,0,3,0,4.4,0c1.7,0,3.4-0.1,5.2,0c0.4,0,0.8,0.6,1.2,0.9c-0.4,0.2-0.7,0.5-1.1,0.5
	c-2.7,0.1-5.4,0-8.1,0C58,76.7,57.3,76.4,57.2,75.2z"/>
<path class="st1" d="M44.1,44.3c0.3,0,0.6-0.1,1-0.1c2.8,0,5.6,0,8.4,0c0.3,0,0.7,0,0.9,0.1c0.2,0.2,0.4,0.5,0.4,0.9
	c0,0.1-0.4,0.5-0.6,0.5c-3,0-6,0.1-9,0c-0.4,0-0.8-0.6-1.2-0.9C43.9,44.5,44,44.4,44.1,44.3z"/>
<path class="st1" d="M65.6,94.7c1.9,0,3.7,0,5.5,0c1.3,0,2.6,0,3.9,0c0.8,0,1.2,0.3,1.3,1.3c-0.4,0.1-0.9,0.2-1.3,0.2
	c-2.5,0-5.1,0-7.6,0C66.4,96.2,65.7,96,65.6,94.7z"/>
<path class="st1" d="M62.3,86.9c3.3,0,6.4,0,9.6,0c0.3,0,0.7,0.5,1,0.8c-0.3,0.2-0.7,0.6-1,0.6c-2.7,0.1-5.4,0-8.1,0
	C62.8,88.4,62.3,88,62.3,86.9z"/>
<path class="st1" d="M59.1,79.1c3.2,0,6.5,0,9.7,0c0.3,0,0.5,0.5,0.8,0.8c-0.3,0.2-0.5,0.6-0.8,0.6c-2.9,0-5.7,0.1-8.5,0
	c-0.5,0-0.9-0.6-1.4-0.9C58.9,79.5,59,79.3,59.1,79.1z"/>
<path class="st1" d="M60.7,83c3.3,0,6.4,0,9.5,0c0.3,0,0.6,0.6,0.9,0.9c-0.3,0.2-0.6,0.5-0.9,0.5c-2.7,0-5.4,0-8.2,0
	C61.3,84.5,60.8,84.1,60.7,83z"/>
<path class="st1" d="M67.3,98.6c0.6,0,1.1-0.1,1.6-0.1c2.5,0,5.1,0,7.6,0c0.4,0,0.8,0.5,1.2,0.8c-0.4,0.2-0.8,0.6-1.2,0.6
	c-2.5,0.1-5.1,0-7.6,0C68,100,67.4,99.8,67.3,98.6z"/>
<path class="st1" d="M64,90.8c1.5,0,2.9,0,4.4,0c1.6,0,3.3-0.1,4.9,0c0.4,0,0.7,0.5,1.1,0.8c-0.3,0.2-0.6,0.6-1,0.6
	c-2.7,0-5.4,0-8.1,0C64.5,92.2,64.1,91.8,64,90.8z"/>
<path class="st1" d="M80.9,107.6c-0.4,0.1-0.7,0.2-1,0.2c-2.6,0-5.2,0-7.8,0c-0.8,0-1.4-0.3-1.4-1.5c0.9,0,1.7,0,2.6,0
	c2.1,0,4.2,0,6.3,0C80.3,106.3,80.8,106.5,80.9,107.6z"/>
<path class="st1" d="M69.1,102.4c1.9,0,3.7,0,5.5,0c1.1,0,2.2,0,3.4,0c0.8,0,1.2,0.3,1.3,1.2c-0.3,0.1-0.6,0.2-0.9,0.2
	c-2.6,0-5.3,0-7.9,0C69.7,103.9,69.1,103.6,69.1,102.4z"/>
<path class="st1" d="M72.4,110.3c2.6,0,5.1,0,7.7,0c0,1-0.5,1.4-1.3,1.4c-1.7,0-3.3,0-5,0C73,111.7,72.4,111.3,72.4,110.3z"/>
<path class="st1" d="M74.2,114.2c1.4,0,2.8,0,4.2,0c0,0.9-0.4,1.3-1.3,1.3C75.2,115.6,74.3,115.8,74.2,114.2z"/>
</svg>
