<?xml version="1.0" encoding="utf-8"?>
<!-- Generator: Adobe Illustrator 25.4.1, SVG Export Plug-In . SVG Version: 6.00 Build 0)  -->
<svg version="1.1" id="Layer_1" xmlns="http://www.w3.org/2000/svg" xmlns:xlink="http://www.w3.org/1999/xlink" x="0px" y="0px"
	 viewBox="0 0 1200 630" style="enable-background:new 0 0 1200 630;" xml:space="preserve">
<style type="text/css">
	.st0{fill:#526B76;stroke:#000000;stroke-miterlimit:10;}
	.st1{fill:#F1EBE1;}
</style>
<rect x="0.1" y="3.1" class="st0" width="1199.9" height="626.9"/>
<g>
	<path class="st1" d="M828.7,130.8c8.7,1.5,17.5,2.5,26,4.7c21.9,5.8,40.5,17.6,56.5,33.5c4.4,4.4,4.4,4.4-0.2,8.7
		c-10.9,10.3-21.8,20.7-32.7,31.1c-2.5,2.4-2.5,2.4-5.1,0c-13.2-12.1-28.3-20.4-46.1-22.8c-26.2-3.5-48.9,3.3-65.5,25
		c-7.9,10.3-11.9,22.1-13.2,34.9c-1.6,15.3,0.6,30,7.8,43.6c9.9,18.6,25.4,29.8,46,33.2c27.1,4.5,50.4-4.1,70.6-22.1
		c3.5-3.1,2.7-2.9,5.7,0.1c11.2,10.9,22.3,21.9,33.6,32.7c1.6,1.5,2,2.5,0.2,4.3c-18.8,19-41,32.1-67.2,37.8
		c-14.3,3.1-28.7,3.6-43.2,2.3c-21.6-1.8-41.6-8.6-59.6-20.8c-27.3-18.7-43.9-44.6-50.5-77c-2-10-2.9-20.2-2.5-30.4
		c1.5-32.1,12.6-60.3,35.3-83.3c16.6-16.9,36.9-27.6,60-32.7c6-1.3,12.1-2,18.2-3C811.5,130.8,820.1,130.8,828.7,130.8z M896.2,173
		c-0.3-0.4-0.9-1.1-1.4-1.6c-8-7.7-17-13.9-27-18.6c-20.5-9.5-42.1-11.8-64.3-9.9c-13.7,1.1-26.7,4.7-38.8,11.1
		c-37.6,19.9-56.5,52-59.8,93.8c-1,12.4,0.3,24.7,3.5,36.7c8,30,25,53.2,52.1,68.6c17.8,10.1,37.1,14.3,57.5,13.9
		c13.8-0.2,27.1-2.2,40.1-6.9c13.5-4.8,25.4-12.3,36.1-21.9c1.3-1.2,1.5-2,0.2-3.3c-6.1-6.1-12.1-12.2-18-18.4
		c-1.2-1.2-2.1-1.4-3.4-0.2c-1.6,1.4-3.4,2.7-5.2,3.9c-21.7,14.3-45.5,18.7-70.8,14c-21.6-4-39.1-14.9-51.3-33.6
		c-11.4-17.4-14.9-36.5-12.5-57c1.9-16,7.6-30.3,18.2-42.3c21.5-24.3,49.1-31,80.1-26.3c15.5,2.3,29.5,8.7,42.2,18
		c1.5,1.1,2.3,0.8,3.5-0.3c2.9-2.9,5.9-5.5,8.7-8.4C889.2,180.4,892.6,176.8,896.2,173z"/>
	<path class="st1" d="M82.8,138.6c1-0.1,2-0.2,3.1-0.2c18,0,35.9,0.1,53.9-0.1c2.4,0,3.5,0.8,4.4,2.9
		c14.7,35.3,29.4,70.5,44.2,105.7c0.2,0.5,0.5,1.1,1,2c1-2.3,1.9-4.4,2.7-6.4c14.1-33.6,28.2-67.3,42.2-100.9
		c1.1-2.6,2.4-3.3,5.1-3.3c17.5,0.1,35.1,0.1,52.6,0.1c1.1,0,2.2,0,3.7,0c-0.4,1.3-0.7,2.2-1.1,3c-19.4,45.4-38.9,90.9-58.3,136.3
		c-13.9,32.6-27.8,65.2-41.8,97.8c-0.5,1.1-1.3,2.8-2.1,2.9c-2.1,0.4-4.5,0.2-6.6-0.1c-0.6-0.1-1.1-1.4-1.4-2.3
		c-8.9-20.8-17.8-41.6-26.8-62.5c-23.7-55.4-47.4-110.8-71.1-166.2c-1.2-2.8-2.4-5.5-3.6-8.2C82.8,138.9,82.8,138.7,82.8,138.6z
		 M189.2,350.3c28.7-67,57.1-133.4,85.8-200.3c-1.5,0-2.4,0-3.4,0c-7.2,0-14.4,0.1-21.6-0.1c-2.6-0.1-3.7,0.9-4.7,3.2
		c-17.1,41-34.3,82-51.5,123c-0.8,2-1.8,3-4.1,2.9c-2.4,0-4.2-0.4-4.8-3c-0.1-0.6-0.5-1.1-0.7-1.6c-17.2-40.7-34.4-81.4-51.5-122.1
		c-0.7-1.7-1.7-2.3-3.5-2.3c-7.7,0.1-15.5,0-23.2,0.1c-0.7,0-1.4,0.2-2.5,0.3C132.1,217,160.6,283.4,189.2,350.3z"/>
	<path class="st1" d="M441.6,130.8c9.8,1.1,19.5,2.6,28.9,5.8c43.7,15,70.7,45.1,81.2,90c2.3,9.9,3.3,20,3,30.1
		c-0.9,31.5-10.8,59.6-32.4,82.9c-18.3,19.8-41.1,31.6-67.6,36.7c-11.9,2.3-23.9,2.8-35.9,1.9c-38.9-3.1-70.7-19.6-93.3-52
		c-10.4-14.9-16.9-31.6-19.6-49.6c-1.2-7.8-2.1-15.7-1.9-23.5c0.6-33.1,11.3-62.4,34.6-86.4c16.6-17.1,36.8-27.9,60-33
		c6-1.3,12.1-2,18.2-2.9C425.1,130.8,433.4,130.8,441.6,130.8z M426.1,142.1c-3.6,0.4-10.4,0.6-17.2,1.9
		c-34.8,6.4-60.6,25.2-76.9,56.6c-11.9,22.8-15.1,47.1-11.4,72.4c2.5,17.2,8.4,33.1,18.4,47.3c20.5,29,49.1,43.6,84.2,45.8
		c10.4,0.7,20.7-0.3,30.9-2.5c49.8-10.9,82.2-52.2,85.1-102.1c0.5-8.8,0-17.7-1.4-26.4c-3.6-22.2-12.5-41.9-27.9-58.4
		C488.3,153.3,461.1,142.4,426.1,142.1z"/>
	<path class="st1" d="M1109.6,280.3c-1,0.1-2.1,0.2-3.1,0.2c-27.8,0-55.6,0-83.5,0c-3.9,0-3.9,0-3.9-4c0-14.2,0.1-28.3-0.1-42.5
		c0-2.3,0.7-2.9,2.9-2.9c28.4,0.1,56.8,0.1,85.3,0.1c0.8,0,1.5,0.1,2.3,0.2C1109.6,247.6,1109.6,264,1109.6,280.3z"/>
	<path class="st1" d="M1109.6,370.5c-0.9,0.1-1.9,0.2-2.8,0.2c-28.1,0-56.1,0-84.2,0c-3.4,0-3.4,0-3.4-3.4c0-14.3,0-28.7,0-43
		c0-1.9,0.3-3,2.6-3c28.8,0.1,57.7,0.1,86.5,0.1c0.4,0,0.9,0.1,1.3,0.1C1109.6,337.9,1109.6,354.2,1109.6,370.5z"/>
	<path class="st1" d="M949.6,138.3c1.5,0,2.6,0,3.6,0c49,0,97.9,0,146.9,0c3.6,0,3.6,0,3.6,3.6c0,14.7-0.1,29.4,0.1,44.1
		c0,2.6-0.7,3.4-3.3,3.4c-29.8-0.1-59.6-0.1-89.4-0.1c-3.8,0-3.8,0-3.8,3.8c0,58,0.1,116,0.1,173.9c0,4.2,0,4.2-4,4.2
		c-16.7,0-33.3,0-50,0c-3.6,0-3.6,0-3.6-3.5c0-75.3,0-150.7,0-226C949.6,140.7,949.6,139.7,949.6,138.3z M964.5,258.4
		c0,32.6,0,65.3-0.1,97.9c0,2.5,0.7,3.2,3.2,3.2c6.8-0.2,13.6-0.1,20.4-0.1c3.9,0,3.9,0,3.9-3.9c0-58,0-116,0-173.9
		c0-4.1,0-4.1,4.1-4.1c29.7,0,59.4,0,89.1,0.1c2.4,0,3.3-0.6,3.2-3.1c-0.2-7-0.1-13.9-0.1-20.9c0-3.5,0-3.5-3.6-3.5
		c-29.3,0-58.6,0-87.9,0c-10,0-19.9,0.1-29.9-0.1c-2.4,0-2.8,1.1-2.5,3c0.3,2,2,1.3,3.1,1.3c35.6,0,71.1,0,106.7,0.1
		c1.2,0,3.4-0.9,3.5,1.3c0.1,2.6-2.2,1.5-3.5,1.5c-35.4,0.1-70.8,0.1-106.2,0.1c-3.6,0-3.6,0-3.6,3.7
		C964.5,193.5,964.5,225.9,964.5,258.4z"/>
	<path class="st1" d="M593,254.5c0-36.9,0-73.9,0-110.8c0-6.5-0.4-5.4,5.5-5.4c16.1-0.1,32.3,0,48.4,0c4,0,4,0,4,4.1
		c0,56.3,0,112.7,0,169c0,18.1,0,36.2,0,54.4c0,5.9,0.1,4.9-5,4.9c-16.3,0.1-32.6,0-48.9,0c-4,0-4,0-4-4.1
		C593,329.3,593,291.9,593,254.5z M635.7,254.8c0-33.9,0-67.8,0.1-101.8c0-2.4-0.7-3.1-3.1-3.1c-7.2,0.1-14.4,0.1-21.6,0
		c-2.2,0-2.8,0.7-2.8,2.8c0.1,10.8,0.1,21.6,0.1,32.4c0,56.9,0,113.9,0,170.8c0,3.4,0,3.4,3.4,3.4c6.9,0,13.7,0,20.6,0
		c3.4,0,3.4,0,3.4-3.4C635.7,322.3,635.7,288.6,635.7,254.8z"/>
	<path class="st1" d="M607.5,398.3c1.1-0.1,2-0.1,2.9-0.1c22.8,0,45.5,0,68.3-0.1c2.4,0,3.4,0.6,3.3,3.1c-0.2,6.1-0.1,12.2,0,18.3
		c0.1,2.5-0.6,3.4-3.3,3.4c-13.4-0.1-26.8,0-40.2-0.1c-2.2,0-3,0.6-3,2.9c0.2,4.5,0.2,8.9,0,13.4c-0.1,2.5,0.9,3,3.1,3
		c12-0.1,24-0.1,36.1,0c3.7,0,3.7,0,3.7,3.8c0,5.9-0.1,11.9,0.1,17.8c0.1,2.3-0.7,3.1-3.1,3.1c-12.3-0.1-24.6,0-36.8-0.1
		c-2.4,0-3.1,0.8-3,3.1c0.2,4.5,0.1,8.9,0,13.4c-0.1,2.2,0.8,2.8,2.8,2.8c14.1-0.1,28.2,0,42.2-0.1c2.6,0,3.5,0.7,3.5,3.4
		c-0.2,5.9-0.1,11.9,0,17.8c0,2.2-0.5,3.1-3,3.1c-23.6-0.1-47.2-0.1-70.8-0.1c-0.8,0-1.7-0.1-2.7-0.2
		C607.5,472.5,607.5,435.5,607.5,398.3z M615.2,405.2c0,32.7,0,65.1,0,97.9c4-3.8,7.7-7.2,11.3-10.8c0.6-0.6,1-1.8,1-2.7
		c0.1-23.4,0.1-46.9,0-70.3c0-0.8-0.1-1.9-0.6-2.4C623.1,413,619.2,409.2,615.2,405.2z"/>
	<path class="st1" d="M804.6,509.9c-4.8,0-9.1,0-13.4,0c-4.9,0-9.8-0.1-14.7,0c-1.5,0-2.3-0.5-3-1.9c-1.2-2.6-2.3-5.2-3.8-7.6
		c-0.5-0.9-1.9-1.9-2.9-1.9c-13-0.1-26.1-0.1-39.1,0c-1,0-2.3,1-2.9,1.9c-1.4,2.4-2.4,5.1-3.7,7.6c-0.4,0.8-1.6,1.7-2.4,1.7
		c-9,0.1-18,0.1-27,0.1c-0.3,0-0.6-0.1-1.3-0.3c0.4-1,0.7-2,1.1-2.9c17.2-36.5,34.4-73.1,51.6-109.7c0.9-1.9,1.8-3.1,4.1-3
		c2,0.1,3.1,0.7,3.9,2.6c8.4,17.8,16.8,35.5,25.2,53.3c9,19.1,18.1,38.1,27.1,57.2C803.8,507.8,804,508.6,804.6,509.9z M793.8,503.9
		c-3.8-8.1-7.4-15.6-11.1-23.2c-0.3-0.5-1-1.1-1.5-1.2c-4.2-0.1-8.3-0.1-12.5-0.1c-0.1,0.4-0.2,0.6-0.1,0.8
		c3.4,7.4,6.8,14.8,10.2,22.2c0.3,0.6,1.2,1.4,1.9,1.4C784.9,503.9,789.1,503.9,793.8,503.9z M726.3,479.4c-4.2,0-7.9,0.1-11.6,0
		c-1.8-0.1-2.8,0.7-3.5,2.3c-3,6.6-6.2,13.2-9.3,19.8c-0.3,0.6-0.5,1.3-0.9,2.4c4.5,0,8.6,0.1,12.7-0.1c0.5,0,1.3-0.6,1.5-1.1
		C718.9,495.1,722.5,487.6,726.3,479.4z M747,451.3c-4.3,9.3-8.3,18-12.4,27c8.4,0,16.3,0,24.6,0C755.1,469.2,751.2,460.5,747,451.3
		z"/>
	<path class="st1" d="M424.9,453.8c0-17.5,0.1-35.1-0.1-52.6c0-2.4,0.6-3.2,3.1-3.2c22.8,0.1,45.5,0.1,68.3,0c2.4,0,3.4,0.6,3.3,3.2
		c-0.2,6.2-0.1,12.4,0,18.6c0.1,2.3-0.6,3.1-3.1,3.1c-13.5-0.1-27,0-40.5-0.1c-2.3,0-3,0.7-2.9,2.9c0.2,4.4,0.2,8.8,0,13.1
		c-0.1,2.4,0.7,3.3,3.2,3.2c11.9-0.1,23.9-0.1,35.8-0.1c3.9,0,3.9,0,3.9,3.8c0,5.9-0.1,11.9,0.1,17.8c0.1,2.4-0.8,3.1-3.1,3
		c-12.3-0.1-24.6,0-36.9-0.1c-2.2,0-3,0.6-3,2.9c0.2,4.5,0.2,8.9,0,13.4c-0.1,2.2,0.6,3,2.9,2.9c14-0.1,28-0.1,42-0.1
		c3.5,0,3.6,0.1,3.6,3.6c0,5.9-0.1,11.9,0,17.8c0,2.1-0.7,2.8-2.9,2.8c-23.7-0.1-47.4-0.1-71.1,0c-2.2,0-2.8-0.7-2.7-2.8
		C424.9,489.4,424.9,471.6,424.9,453.8z M432.6,503.3c3.9-3.7,7.3-7,10.9-10.3c1.4-1.3,2-2.7,2-4.7c-0.1-18.5,0-36.9-0.1-55.4
		c0-5.1,1.2-10.7-0.6-15c-1.8-4.3-6.7-7.4-10.2-11c-0.6-0.6-1.2-1.1-2-1.8C432.6,437.9,432.6,470.2,432.6,503.3z"/>
	<path class="st1" d="M526.9,476.6c3.8,0,7.6,0,11.3,0c1.5,0,2.3,0.5,2.6,2.2c1.4,7.8,9.1,11.7,16.3,8.4c5.9-2.8,7-10.3,1.9-14.2
		c-2.7-2.1-6.1-3.4-9.3-4.8c-6.1-2.6-12.4-4.6-18.4-7.4c-22.9-10.8-22.8-39.8-8.4-54.5c9.1-9.2,20.1-13,32.9-11.8
		c7.3,0.7,14,2.6,19.8,7.1c8.2,6.3,11.9,15.1,13.4,25c0.8,4.9,0.6,5-4.5,5c-6.3,0-12.6,0-18.8,0c-1.8,0-2.7-0.4-3-2.5
		c-0.6-5.7-5.3-9.3-11.2-9c-6.4,0.4-10.7,4.1-10.8,9.9c-0.1,3.7,2,6.5,5.3,7.9c3.6,1.5,7.2,2.7,10.9,3.7c8,2.3,15.7,5.1,22,10.7
		c8.8,7.8,11.4,17.9,10.3,29.1c-1.5,15.7-14.4,29.1-30.8,31.9c-14.8,2.5-32.1-2.3-40.3-16.5c-3.2-5.5-4.6-11.4-5.2-17.6
		c-0.2-2,0.6-2.6,2.5-2.6C519.4,476.6,523.2,476.6,526.9,476.6z M527.6,482.6c-1.5,0-3.1,0.1-4.6,0c-2.2-0.2-2.7,1.1-2.1,2.7
		c1.2,3.3,2.2,6.8,4.2,9.6c5.9,8.5,14.6,12,24.6,12.9c0.5,0.1,1.5-1.2,1.5-1.9c0.2-2.8-0.1-5.7,0.1-8.5c0.2-2.6-1-3.2-3.2-3.5
		c-5-0.6-9.5-2.8-11.8-7.2c-1.9-3.7-4.3-4.6-7.9-4C528.1,482.6,527.8,482.6,527.6,482.6z M582.1,425.4c-0.3-1.6-0.5-2.7-0.7-3.7
		c-4.4-15.6-15.7-20.5-27.5-21.5c-0.5-0.1-1.6,1.1-1.6,1.8c-0.2,3.3-0.1,6.7-0.1,10c0,1.4,0.5,2,2,2c6.7,0.4,11.4,3.6,14.4,9.6
		c0.3,0.7,1.3,1.6,2,1.6C574.1,425.5,577.9,425.4,582.1,425.4z"/>
	<path class="st1" d="M746.2,338.3c1.5,0,2.4,0,3.4,0c18.6,0,37.2,0,55.8,0c2.9,0,5.8,0.3,8.7,0.6c0.6,0.1,1.2,0.7,1.7,1.1
		c-0.6,0.4-1.2,0.9-1.9,1.2c-0.4,0.2-1,0.1-1.5,0.1c-20.3,0-40.5,0-60.7,0C749.6,341.4,747.8,340.9,746.2,338.3z"/>
	<path class="st1" d="M815.7,169.7c-0.9,0.2-1.7,0.5-2.6,0.5c-14.7,0.4-29.5,0.8-44.2,1c-7.3,0.1-14.6,0-21.9,0
		c-0.6,0-1.2-0.2-1.9-0.3c-0.1-0.3-0.2-0.6-0.2-0.9c1.5-0.6,3.1-1.7,4.7-1.7c21.3-0.1,42.6-0.1,63.9-0.1c0.8,0,1.5,0.3,2.3,0.4
		C815.8,169,815.8,169.3,815.7,169.7z"/>
	<path class="st1" d="M756.2,162.2c1.6-0.6,3.2-1.6,4.8-1.6c17.4-0.1,34.8-0.1,52.2-0.1c0.6,0,1.3-0.1,1.8,0.2
		c0.4,0.2,0.9,0.9,0.9,1.3s-0.5,1.1-0.9,1.3c-0.6,0.3-1.3,0.2-2,0.2c-18,0-36,0-54,0c-0.8,0-1.6-0.1-2.4-0.1
		C756.4,163,756.3,162.6,756.2,162.2z"/>
	<path class="st1" d="M757.3,346.3c1.4-0.1,2.3-0.2,3.2-0.2c17.4,0,34.8,0,52.2,0c0.7,0,1.4-0.1,2,0.1c0.5,0.2,1.1,0.9,1.1,1.4
		c0,0.5-0.6,1.1-1.2,1.3c-0.6,0.3-1.3,0.1-2,0.1c-16.6,0-33.3,0-49.9,0C760.7,349.1,758.9,348.7,757.3,346.3z"/>
	<path class="st1" d="M770.2,154.6c2.1-0.6,4.1-1.7,6.2-1.7c12.4-0.2,24.7-0.1,37.1,0c0.8,0,1.6,1,2.4,1.5c-0.7,0.5-1.5,1.4-2.3,1.4
		c-14,0.1-28,0.1-42,0.1c-0.4,0-0.8-0.1-1.2-0.2C770.4,155.2,770.3,154.9,770.2,154.6z"/>
	<path class="st1" d="M771.5,354c0.7-0.1,1.5-0.2,2.3-0.2c13,0,26.1,0,39.1,0c0.6,0,1.3-0.1,1.8,0.1c0.5,0.3,1.2,0.9,1.2,1.3
		c0,0.5-0.6,1.1-1.1,1.4c-0.4,0.2-1,0.1-1.5,0.1c-11.9,0-23.7,0.1-35.5-0.1c-2.1,0-4.3-1.1-6.4-1.8
		C771.3,354.6,771.4,354.3,771.5,354z"/>
	<path class="st1" d="M779.8,177.1c-2.1,0.6-4.1,1.8-6.2,1.8c-11.6,0.2-23.1,0.1-34.7,0.1c-0.5,0-1-0.2-1.5-0.2
		c-0.1-0.3-0.3-0.5-0.4-0.7c1.1-0.6,2.2-1.9,3.2-1.9c12.9-0.1,25.9-0.1,38.8,0c0.2,0,0.3,0.2,0.4,0.2
		C779.7,176.5,779.8,176.8,779.8,177.1z"/>
	<path class="st1" d="M779.4,333.4c-0.8,0.1-1.6,0.2-2.4,0.2c-11.6,0-23.3,0-34.9,0c-1.9,0-3.4-0.4-4.3-2.7c0.8-0.1,1.5-0.3,2.2-0.3
		c11.5,0,23-0.1,34.4,0.1c1.8,0,3.6,1.1,5.4,1.6C779.5,332.7,779.5,333.1,779.4,333.4z"/>
	<path class="st1" d="M764.6,184.8c-1.3,0.6-2.6,1.8-3.8,1.8c-9.8,0.2-19.6,0.1-29.4,0.1c-0.3,0-0.6-0.2-1.3-1c1-0.6,2-1.8,3-1.8
		c10.2-0.1,20.4-0.1,30.6,0c0.2,0,0.3,0.1,0.5,0.2C764.3,184.3,764.5,184.5,764.6,184.8z"/>
	<path class="st1" d="M731.2,323.1c0.7-0.1,1.4-0.2,2-0.2c9.1,0,18.2,0,27.2,0c1.9,0,3.2,0.7,4.3,2.7c-1.1,0.1-1.8,0.3-2.5,0.3
		c-9.3,0-18.5,0-27.8,0C732.7,325.9,731.3,325.5,731.2,323.1z"/>
	<path class="st1" d="M755.4,317.9c-0.9,0.1-1.4,0.3-2,0.3c-8.3,0-16.7,0-25,0c-1.7,0-2.8-0.5-3-2.7c0.7-0.1,1.4-0.3,2.1-0.3
		c8,0,16,0,24,0C753.3,315.1,754.6,315.7,755.4,317.9z"/>
	<path class="st1" d="M724.6,193.3c1-0.6,2-1.7,3.1-1.8c8.7-0.1,17.5-0.1,26.2-0.1c0.4,0,0.8,0.2,1.1,0.3c0.1,0.2,0.2,0.5,0.3,0.7
		c-1.2,0.6-2.3,1.8-3.5,1.8c-8.7,0.2-17.3,0.1-26,0.1c-0.3,0-0.6-0.2-0.9-0.3C724.9,193.8,724.8,193.5,724.6,193.3z"/>
	<path class="st1" d="M748.2,200.4c-1.1,0.6-2.2,1.6-3.2,1.6c-7.8,0.1-15.6,0.1-23.4,0.1c-0.3,0-0.6-0.1-1.1-0.2
		c-0.2-1.8,0.6-2.7,2.2-2.7c8.1,0,16.3,0,24.5,0.1c0.2,0,0.4,0.2,0.7,0.3C747.9,199.8,748,200.1,748.2,200.4z"/>
	<path class="st1" d="M720.8,307.7c0.7-0.1,1.3-0.3,2-0.3c7.3,0,14.6-0.1,21.9,0.1c1.3,0,2.6,1,3.8,1.5c-0.1,0.3-0.2,0.6-0.2,1
		c-0.6,0.1-1.2,0.4-1.8,0.4c-7.6,0-15.3,0-22.9,0C721.8,310.4,720.8,309.8,720.8,307.7z"/>
	<path class="st1" d="M716.9,299.7c2,0,3.8,0,5.5,0c5.6,0,11.1,0,16.7,0c1.7,0,3,0.4,3.5,2.7c-0.9,0.1-1.6,0.3-2.4,0.3
		c-6.7,0-13.4,0-20,0C718.4,302.7,717.1,302.3,716.9,299.7z"/>
	<path class="st1" d="M742.6,207.7c-1.2,0.9-2.1,2-3.1,2.1c-7.3,0.1-14.6,0-21.9,0c-0.2,0-0.5-0.2-1.4-0.6c1-0.9,1.7-2.1,2.4-2.1
		c7.6-0.1,15.1-0.1,22.6,0C741.5,207,741.7,207.2,742.6,207.7z"/>
	<path class="st1" d="M737.9,214.7c-0.2,2.2-1.1,2.9-2.7,2.9c-6.4,0-12.9,0-19.3-0.1c-0.6,0-1.2-0.8-1.8-1.2c0.5-0.6,1-1.6,1.5-1.6
		C722.9,214.7,730.3,214.7,737.9,214.7z"/>
	<path class="st1" d="M737.8,294.7c-0.7,0.1-1.5,0.2-2.2,0.2c-6.3,0-12.5,0-18.8,0c-0.6,0-1.3,0.1-1.8-0.2c-0.5-0.3-1-1-0.9-1.5
		c0-0.4,0.8-1.2,1.2-1.2c6.9-0.1,13.7-0.1,20.5,0.1c0.8,0,1.5,1.2,2.3,1.8C738,294.1,737.9,294.4,737.8,294.7z"/>
	<path class="st1" d="M734.4,222.4c0,2.2-0.7,2.9-2.3,2.9c-6.2,0-12.4,0-18.6-0.1c-0.6,0-1.2-0.8-1.9-1.2c0.5-0.6,1.1-1.6,1.6-1.6
		C720.2,222.4,727.2,222.4,734.4,222.4z"/>
	<path class="st1" d="M723,287.2c-3,0-6,0.1-9-0.1c-0.8-0.1-1.6-1-2.4-1.6c0.8-0.4,1.5-1.2,2.3-1.2c5.9-0.1,11.8-0.1,17.7-0.1
		c0.3,0,0.8-0.1,1,0.1c0.6,0.5,1.2,1.2,1.8,1.8c-0.6,0.4-1.3,1-1.9,1.1C729.4,287.3,726.2,287.2,723,287.2z"/>
	<path class="st1" d="M732,230.1c0.2,2.3-0.7,2.9-2.4,2.9c-6,0-12,0-17.9-0.1c-0.7,0-1.3-0.7-2-1.1c0.6-0.6,1.1-1.8,1.7-1.8
		C718.2,230.1,725,230.1,732,230.1z"/>
	<path class="st1" d="M710,276.5c2,0,4.1,0,6.1,0c4.5,0,8.9,0,13.4,0c1.6,0,2.7,0.5,2.6,2.6c-0.6,0.1-1.2,0.4-1.9,0.4
		c-5.9,0-11.9,0-17.8,0C710.7,279.5,709.7,278.8,710,276.5z"/>
	<path class="st1" d="M730.6,271.7c-2.4,0-4.6,0-6.8,0c-4.3,0-8.6,0.1-12.8-0.1c-0.8,0-1.6-1.1-2.4-1.6c0.8-0.4,1.5-1.2,2.3-1.2
		c5.6-0.1,11.3,0,17-0.1C729.6,268.7,730.6,269.2,730.6,271.7z"/>
	<path class="st1" d="M730.4,237.9c0.2,2-0.4,2.9-2.2,2.9c-6,0-12,0-17.9-0.1c-0.6,0-1.2-0.7-1.8-1c0.5-0.6,1-1.7,1.4-1.7
		C716.8,237.9,723.6,237.9,730.4,237.9z"/>
	<path class="st1" d="M718.3,256.3c-2.9,0-5.8,0.1-8.7-0.1c-0.7,0-1.3-0.9-2-1.4c0.6-0.5,1.3-1.4,1.9-1.5c6-0.1,12-0.1,18,0
		c0.6,0,1.3,1,1.9,1.5c-0.7,0.5-1.3,1.3-2,1.3C724.3,256.4,721.3,256.3,718.3,256.3z"/>
	<path class="st1" d="M718.6,261.1c2.9,0,5.8-0.1,8.7,0.1c0.7,0.1,1.4,1,2.1,1.5c-0.7,0.5-1.4,1.3-2.2,1.3
		c-5.6,0.1-11.3,0.1-16.9,0.1c-1.2,0-2.7,0-2.4-1.7c0.1-0.6,1.6-1.2,2.4-1.2C713.1,260.9,715.9,261,718.6,261.1
		C718.6,261,718.6,261.1,718.6,261.1z"/>
	<path class="st1" d="M718.5,248.6c-2.9,0-5.8,0.1-8.7-0.1c-0.6,0-1.3-0.7-1.9-1.1c0.6-0.6,1.3-1.7,1.9-1.7c6-0.1,12-0.1,17.9,0
		c0.6,0,1.2,0.8,1.8,1.2c-0.6,0.6-1.2,1.6-1.8,1.6C724.6,248.6,721.5,248.5,718.5,248.6C718.5,248.5,718.5,248.6,718.5,248.6z"/>
	<path class="st1" d="M796.1,146.9c2.7-0.4,5.4-1,8.2-1.2c3.3-0.2,6.7-0.2,10-0.1c0.5,0,1.1,0.7,1.6,1.2c-0.5,0.4-0.9,1.2-1.4,1.2
		c-6.1,0.1-12.2,0.1-18.4,0.1C796.1,147.6,796.1,147.3,796.1,146.9z"/>
	<path class="st1" d="M815.7,363.7c-5.9-0.4-11.7-0.8-17.6-1.2C801.6,360.8,814.7,361.4,815.7,363.7z"/>
	<path class="st1" d="M139.9,179.1c-0.8,0.1-1.4,0.3-2.1,0.3c-5.6,0-11.2,0-16.7,0c-1.6,0-2.8-0.5-3-2.6c0.7-0.1,1.3-0.3,1.9-0.3
		c5.7,0,11.5,0,17.2,0C138.8,176.4,139.9,176.8,139.9,179.1z"/>
	<path class="st1" d="M128.1,199.7c6.9,0,13.4-0.1,20,0.1c0.6,0,1.2,1.1,1.9,1.7c-0.6,0.4-1.3,1.1-2,1.1c-5.7,0.1-11.5,0.1-17.2,0.1
		C129.1,202.6,128.2,201.8,128.1,199.7z"/>
	<path class="st1" d="M115,168.7c2.2,0,4.3,0,6.4,0c4.3,0,8.6,0.1,12.9,0c1.7,0,2.6,0.6,2.6,2.6c-0.8,0.1-1.5,0.3-2.2,0.3
		c-5.5,0-11,0-16.5,0C116.4,171.7,115.1,171.2,115,168.7z"/>
	<path class="st1" d="M121.6,184.5c0.7-0.1,1.4-0.2,2-0.2c5.7,0,11.5,0,17.2,0c1.3,0,2.6,0.3,2.4,1.8c-0.1,0.4-1.5,1.1-2.3,1.1
		c-5.4,0.1-10.8,0-16.2,0.1C123,187.1,121.7,186.6,121.6,184.5z"/>
	<path class="st1" d="M133.4,163.6c-0.9,0.1-1.7,0.3-2.5,0.3c-5.4,0-10.8,0-16.2,0c-1.7,0-3-0.4-3.1-2.9c1.2,0,2.4,0,3.6,0
		c5.2,0,10.3,0,15.4,0C132.1,161,133.3,161.2,133.4,163.6z"/>
	<path class="st1" d="M108.4,153.3c6.8,0,13.4-0.1,20,0.1c0.7,0,1.5,1.1,2.2,1.7c-0.1,0.3-0.2,0.5-0.3,0.7c-0.8,0.1-1.6,0.4-2.4,0.4
		c-5.4,0-10.8,0-16.2,0C109.9,156.2,108.6,155.8,108.4,153.3z"/>
	<path class="st1" d="M148.1,246.1c6.8,0,13.3-0.1,19.8,0.1c0.6,0,1.2,1.1,1.8,1.7c-0.6,0.4-1.2,1.1-1.9,1.1
		c-5.6,0.1-11.3,0.1-16.9,0.1C149.2,249,148.4,248.1,148.1,246.1z"/>
	<path class="st1" d="M131.6,207.4c1.9,0,3.8,0,5.6,0c4.4,0,8.7,0,13.1,0c1.3,0,2.6,0.2,2.5,1.8c0,0.4-1.5,1.1-2.3,1.1
		c-5.3,0.1-10.6,0.1-15.9,0.1C132.9,210.3,131.7,209.8,131.6,207.4z"/>
	<path class="st1" d="M166.1,241c-1.3,0.1-2.5,0.2-3.6,0.2c-4.9,0-9.8,0-14.7,0c-1.6,0-2.9-0.5-3.1-2.5c0.5-0.1,1.1-0.4,1.6-0.4
		c5.8,0,11.6,0,17.5,0C165.4,238.3,166.2,238.9,166.1,241z"/>
	<path class="st1" d="M138.1,222.9c6.8,0,13.3-0.1,19.8,0.1c0.7,0,1.4,1.1,2.7,2.2c-1.6,0.4-2.3,0.6-3,0.6c-5.5,0-11,0-16.5,0
		C139.4,225.8,138.4,225.1,138.1,222.9z"/>
	<path class="st1" d="M135.1,215.2c6.8,0,13.2-0.1,19.7,0.1c0.7,0,1.4,1.1,2.7,2.2c-1.6,0.4-2.3,0.6-3,0.6c-5.5,0-11,0-16.5,0
		C136.3,218.1,135.2,217.4,135.1,215.2z"/>
	<path class="st1" d="M163.1,233.2c-0.7,0.1-1.4,0.4-2,0.4c-5.5,0-11,0-16.4,0c-1.7,0-2.8-0.6-3-2.6c0.7-0.1,1.3-0.3,2-0.3
		c5.6,0,11.1,0,16.7,0C161.9,230.6,163.1,230.8,163.1,233.2z"/>
	<path class="st1" d="M151.3,253.8c3.1,0,6,0,8.8,0c3.4,0,6.9-0.1,10.3,0.1c0.8,0.1,1.5,1.1,2.3,1.7c-0.7,0.4-1.4,1.1-2.2,1.1
		c-5.4,0.1-10.8,0-16.2,0.1C152.8,256.7,151.6,256.2,151.3,253.8z"/>
	<path class="st1" d="M125.2,192.2c0.6-0.1,1.3-0.3,1.9-0.3c5.6,0,11.1,0,16.7,0c0.6,0,1.3-0.1,1.7,0.2c0.5,0.4,0.8,1.1,0.9,1.7
		c0,0.3-0.8,0.9-1.2,0.9c-6,0.1-12,0.1-18-0.1c-0.8,0-1.6-1.2-2.4-1.9C124.9,192.7,125,192.4,125.2,192.2z"/>
	<path class="st1" d="M167.9,292.4c3.8,0,7.3,0,10.9,0c2.6,0,5.2,0.1,7.7,0c1.5,0,2.4,0.5,2.5,2.5c-0.9,0.2-1.7,0.4-2.6,0.4
		c-5.1,0.1-10.1,0-15.2,0C169.6,295.4,168.2,295.1,167.9,292.4z"/>
	<path class="st1" d="M161.4,277c6.5,0,12.8-0.1,19,0.1c0.7,0,1.3,1,2,1.5c-0.7,0.4-1.4,1.2-2,1.2c-5.4,0.1-10.8,0.1-16.2,0.1
		C162.5,279.9,161.4,279.2,161.4,277z"/>
	<path class="st1" d="M155,261.6c6.4,0,12.8-0.1,19.2,0.1c0.5,0,1.1,1.1,1.6,1.6c-0.5,0.4-1.1,1.1-1.6,1.1c-5.7,0.1-11.3,0.1-17-0.1
		c-1,0-1.9-1.1-2.8-1.8C154.7,262.2,154.8,261.9,155,261.6z"/>
	<path class="st1" d="M158.3,269.3c6.5,0,12.7-0.1,18.9,0.1c0.6,0,1.1,1.2,1.7,1.8c-0.6,0.3-1.2,1-1.8,1c-5.4,0.1-10.8,0.1-16.2,0
		C159.4,272.2,158.4,271.4,158.3,269.3z"/>
	<path class="st1" d="M171.4,300.3c1.1-0.1,2.1-0.1,3.1-0.1c5.1,0,10.1-0.1,15.2,0.1c0.8,0,1.6,1.1,2.4,1.6
		c-0.8,0.4-1.6,1.2-2.4,1.2c-5.1,0.1-10.1,0-15.2,0.1C172.8,303.1,171.6,302.6,171.4,300.3z"/>
	<path class="st1" d="M164.9,284.7c3,0,5.9,0,8.7,0c3.2,0,6.5-0.1,9.7,0.1c0.7,0.1,1.4,1.1,2.1,1.6c-0.6,0.4-1.3,1.1-1.9,1.1
		c-5.4,0.1-10.8,0.1-16.2,0C165.8,287.6,164.9,286.7,164.9,284.7z"/>
	<path class="st1" d="M198.3,318.1c-0.7,0.2-1.4,0.4-2,0.4c-5.2,0-10.3,0-15.4,0c-1.7,0-2.8-0.6-2.8-2.9c1.8,0,3.4,0,5.1,0
		c4.2,0,8.4,0,12.6,0C197.3,315.6,198.2,316.1,198.3,318.1z"/>
	<path class="st1" d="M175,307.9c3.7,0,7.4,0,11,0c2.2,0,4.5,0.1,6.7,0c1.5,0,2.4,0.5,2.5,2.4c-0.6,0.2-1.2,0.5-1.8,0.5
		c-5.2,0.1-10.5,0-15.7,0C176,310.8,174.9,310.2,175,307.9z"/>
	<path class="st1" d="M181.5,323.5c5.2,0,10.2,0,15.4,0c0.1,2-0.9,2.7-2.6,2.8c-3.3,0-6.6,0-10,0
		C182.6,326.3,181.5,325.6,181.5,323.5z"/>
	<path class="st1" d="M185,331.3c2.7,0,5.5,0,8.4,0c0,1.8-0.9,2.7-2.6,2.7C187.1,334,185.2,334.5,185,331.3z"/>
	<path class="st1" d="M429.3,172.8c17.8,0.5,34.3,4.8,48.9,14.9c16.7,11.6,27.1,27.6,31.4,47.3c4.8,22,2.2,43.2-9.1,62.8
		c-12.5,21.5-31.5,34-56,37.9c-17.8,2.8-35.3,1.3-51.8-6.4c-24.3-11.4-38.7-30.7-43.9-56.8c-3.8-19.1-2.1-37.8,6.5-55.4
		c11-22.4,29.1-36.1,53.3-41.5C415.3,174.1,422.3,173.7,429.3,172.8z M429.2,185.2c-1.5,0-3.1-0.1-4.6,0c-1.5,0.1-3.1,0.3-4.6,0.5
		c-24.3,3.2-41.7,15.9-51.4,38.4c-7.7,17.9-8.1,36.5-2.2,55.1c5.3,16.6,15.4,29.4,31,37.5c14.2,7.4,29.4,9,45,6.2
		c19.8-3.5,34.8-14,44.6-31.6c7.9-14.1,10.2-29.3,8.6-45.2c-1.1-10.7-4.1-20.9-9.7-30.1C472.9,194.8,453.5,185.4,429.2,185.2z"/>
	<path class="st1" d="M498.4,171.2c-1.4,0-2.4,0-3.5,0c-16.1,0-32.1,0.1-48.2-0.1c-7.3-0.1-14.6-1.4-21.8-0.8
		c-20.7,1.6-41.4,0.4-62,0.9c-1,0-2,0-3,0c-0.1-0.3-0.2-0.7-0.4-1c1.3-0.6,2.6-1.4,4-1.9c0.5-0.2,1.2-0.1,1.8-0.1
		c42.8,0,85.5,0,128.3,0C495.6,168.2,497.4,168.3,498.4,171.2z"/>
	<path class="st1" d="M487.1,163.3c-39,0-77.5,0-116,0c-0.1-0.3-0.2-0.5-0.4-0.8c1.3-0.7,2.6-1.4,3.9-2c0.5-0.2,1.2-0.1,1.8-0.1
		c35.2,0,70.4,0,105.7,0C484.1,160.5,485.9,160.7,487.1,163.3z"/>
	<path class="st1" d="M473.6,155.5c-29.5,0-59,0-88.6,0c-0.1-0.3-0.2-0.6-0.2-0.9c2.1-0.6,4.2-1.8,6.3-1.8c25.4-0.1,50.8-0.1,76.3,0
		c2.1,0,4.3,1.1,6.4,1.7C473.7,154.9,473.6,155.2,473.6,155.5z"/>
	<path class="st1" d="M351.7,177.7c1.1-0.6,2.2-1.6,3.3-1.6c12.8-0.1,25.6-0.1,38.3-0.1c0.2,0,0.5,0.2,1,0.9c-2,0.7-3.9,1.9-5.9,1.9
		c-11.7,0.2-23.4,0.1-35,0.1c-0.5,0-1-0.2-1.4-0.3C351.9,178.3,351.8,178,351.7,177.7z"/>
	<path class="st1" d="M465.2,176.1c0.9-0.1,1.8-0.2,2.7-0.2c11.8,0,23.5-0.1,35.3,0.1c1.3,0,2.6,1,3.8,1.5c-0.1,0.4-0.2,0.7-0.2,1.1
		c-0.8,0.1-1.5,0.3-2.3,0.3c-11.2,0-22.3,0.1-33.5-0.1c-2,0-4-1.1-6-1.6C465.1,176.9,465.1,176.5,465.2,176.1z"/>
	<path class="st1" d="M379.1,184.9c-1.3,0.6-2.7,1.7-4,1.7c-9.7,0.1-19.4,0.1-29.1,0.1c-0.3,0-0.6-0.2-1-0.3
		c0.1-1.7,0.9-2.6,2.6-2.6c10.1,0,20.2,0,30.4,0c0.3,0,0.6,0.2,0.9,0.3C378.9,184.3,379,184.6,379.1,184.9z"/>
	<path class="st1" d="M513.5,186.7c-1.5,0-2.5,0-3.5,0c-8.6,0-17.1,0-25.7,0c-2,0-3.6-0.7-4.9-2.7c1-0.1,1.7-0.3,2.4-0.3
		c9.2,0,18.3,0,27.5,0C511.2,183.7,512.6,184.2,513.5,186.7z"/>
	<path class="st1" d="M339.3,193.2c1-0.6,2-1.6,3-1.6c8.8-0.1,17.7-0.1,26.5,0c0.2,0,0.5,0.2,1.6,0.5c-1.6,1-2.7,2.2-3.8,2.3
		c-8.8,0.1-17.5,0.1-26.3,0c-0.2,0-0.4-0.2-0.7-0.3C339.5,193.7,339.4,193.4,339.3,193.2z"/>
	<path class="st1" d="M518.8,194.2c-1,0.1-1.7,0.2-2.5,0.2c-7.7,0-15.4,0-23.1,0c-2,0-3.4-0.6-4.4-2.7c0.9-0.1,1.5-0.3,2.1-0.3
		c8.1,0,16.3,0,24.4,0C517,191.4,518.3,191.9,518.8,194.2z"/>
	<path class="st1" d="M334.6,200.9c0.9-0.6,1.9-1.6,2.8-1.6c8-0.1,16.1-0.1,24.1-0.1c0.2,0,0.5,0.2,1.6,0.6c-1.4,1-2.3,2.2-3.2,2.3
		c-8,0.1-16.1,0.1-24.1,0c-0.2,0-0.5-0.2-0.7-0.3C334.9,201.5,334.7,201.2,334.6,200.9z"/>
	<path class="st1" d="M495.7,199.2c2,0,3.6,0,5.2,0c6.3,0,12.7,0,19,0c1.8,0,3,0.5,3.1,2.7c-0.8,0.1-1.5,0.3-2.3,0.3
		c-7,0-14,0-21.1,0C497.8,202.2,496.5,201.6,495.7,199.2z"/>
	<path class="st1" d="M357,207.8c-1,0.7-1.9,2-2.8,2c-7.4,0.1-14.7,0-22.1,0c-0.2,0-0.4-0.2-1.3-0.7c1-0.8,1.8-2,2.5-2
		c7.6-0.1,15.3,0,22.9,0C356.3,207.1,356.4,207.3,357,207.8z"/>
	<path class="st1" d="M526.4,209.6c-0.7,0.1-1.4,0.3-2,0.3c-6.6,0-13.2,0-19.8,0c-1.7,0-2.8-0.5-3-2.7c0.8-0.1,1.5-0.3,2.2-0.3
		c6.6,0,13.2,0,19.8,0C525.3,206.9,526.6,207.3,526.4,209.6z"/>
	<path class="st1" d="M529.5,217.3c-0.6,0.1-1.1,0.3-1.7,0.3c-6.4,0-12.8,0-19.3,0c-1.8,0-2.7-0.8-2.8-3c1.5,0,2.8,0,4.1,0
		c5.6,0,11.3,0,16.9,0C528.6,214.6,529.7,215.1,529.5,217.3z"/>
	<path class="st1" d="M352.4,215.1c-0.1,1.6-0.9,2.5-2.6,2.5c-6.4,0-12.9,0-19.3-0.1c-0.6,0-1.3-0.7-1.9-1.1
		c0.6-0.6,1.1-1.7,1.7-1.7c7.1-0.1,14.2,0,21.3,0C351.8,214.8,352.1,215,352.4,215.1z"/>
	<path class="st1" d="M348.8,222.4c0.4,2.3-0.6,3-2.4,3c-6.1,0-12.1,0-18.2-0.1c-0.7,0-1.3-0.8-2-1.2c0.7-0.5,1.4-1.6,2.2-1.6
		c5.4-0.1,10.8-0.1,16.2-0.1C345.9,222.4,347.3,222.4,348.8,222.4z"/>
	<path class="st1" d="M532.2,225.1c-0.8,0.1-1.6,0.2-2.4,0.2c-5.7,0-11.5,0-17.3,0c-1.8,0-3-0.5-3.3-2.6c0.7-0.1,1.4-0.3,2-0.3
		c6.1,0,12.2,0,18.3,0C531.2,222.4,532.4,222.8,532.2,225.1z"/>
	<path class="st1" d="M511.6,230.1c2.8,0,5.5,0,8.2,0c3.9,0,7.9,0,11.8,0c1.7,0,2.6,0.6,2.6,2.6c-0.6,0.2-1.1,0.4-1.7,0.4
		c-6.2,0-12.3,0-18.5,0C512.2,233.1,511.4,232.3,511.6,230.1z"/>
	<path class="st1" d="M346.6,230.1c0.1,2.3-0.9,2.9-2.5,2.9c-6,0-12,0-17.9-0.1c-0.6,0-1.2-0.7-1.8-1.1c0.5-0.6,1-1.6,1.4-1.7
		C332.7,230.1,339.6,230.1,346.6,230.1z"/>
	<path class="st1" d="M511.7,279.4c-0.4-2.1,0.4-2.9,2.1-2.9c6.1,0,12.2,0,18.2,0.1c0.6,0,1.3,0.7,1.9,1.1c-0.5,0.6-1,1.6-1.5,1.6
		C525.5,279.5,518.6,279.4,511.7,279.4z"/>
	<path class="st1" d="M346.7,279.5c-1.5,0-3,0-4.4,0c-5.1,0-10.1,0-15.2,0c-1.7,0-2.9-0.5-2.7-2.7c0.6-0.1,1.3-0.3,1.9-0.3
		c5.8,0,11.6,0,17.5,0C345.5,276.5,346.7,276.8,346.7,279.5z"/>
	<path class="st1" d="M410.8,147.8c5.1-2.5,34-2.4,39,0C436.5,147.8,423.6,147.8,410.8,147.8z"/>
	<path class="st1" d="M524.6,240.8c-3,0-6,0.1-9-0.1c-0.8-0.1-1.5-1.1-2.3-1.7c0.7-0.4,1.4-1.1,2.1-1.1c5.8-0.1,11.6-0.1,17.4-0.1
		c1.3,0,2.6,0.2,2.4,1.8c-0.1,0.5-1.5,1.1-2.3,1.2C530.3,240.9,527.4,240.8,524.6,240.8z"/>
	<path class="st1" d="M323.3,269c0.8-0.1,1.6-0.2,2.5-0.2c5.6,0,11.1,0,16.7,0c1.7,0,2.8,0.5,2.7,2.6c-0.6,0.1-1.2,0.3-1.7,0.3
		c-6,0-12,0-18,0C323.7,271.7,322.9,271,323.3,269z"/>
	<path class="st1" d="M345.1,237.9c0.1,2.3-0.8,3-2.5,2.9c-5.9,0-11.8,0-17.7-0.1c-0.6,0-1.2-0.8-1.8-1.2c0.5-0.5,1.1-1.6,1.6-1.6
		C331.5,237.9,338.2,237.9,345.1,237.9z"/>
	<path class="st1" d="M525.1,248.6c-2.9,0-5.8,0.1-8.7-0.1c-0.7-0.1-1.4-1-2.1-1.5c0.7-0.5,1.4-1.3,2.1-1.3c5.9-0.1,11.8-0.1,17.7,0
		c0.7,0,1.3,0.9,2,1.4c-0.6,0.5-1.3,1.4-2,1.4C531.1,248.6,528.1,248.5,525.1,248.6z"/>
	<path class="st1" d="M535.3,268.8c0.1,2.3-0.8,3-2.5,2.9c-5.9,0-11.8,0-17.7-0.1c-0.6,0-1.2-0.8-1.8-1.2c0.5-0.5,1.1-1.6,1.6-1.6
		C521.7,268.8,528.4,268.8,535.3,268.8z"/>
	<path class="st1" d="M525.6,256.3c-2.9,0-5.8,0.1-8.7-0.1c-0.8-0.1-1.5-0.9-2.2-1.4c0.7-0.5,1.5-1.4,2.2-1.4
		c5.8-0.1,11.6-0.1,17.4,0c0.7,0,1.4,1,2.1,1.5c-0.7,0.5-1.4,1.3-2.1,1.3C531.4,256.4,528.5,256.3,525.6,256.3z"/>
	<path class="st1" d="M525,264c-2.9,0-5.8,0.1-8.7-0.1c-0.7,0-1.4-0.7-2.2-1.2c0.7-0.6,1.3-1.6,2-1.7c6-0.1,12-0.1,18,0
		c0.6,0,1.3,1,1.9,1.5c-0.7,0.5-1.3,1.3-2,1.4C531,264.1,528,264,525,264z"/>
	<path class="st1" d="M333.3,264c-2.8,0-5.6,0.1-8.5-0.1c-0.8-0.1-1.6-1-2.4-1.5c0.7-0.4,1.5-1.3,2.3-1.3c5.6-0.1,11.3-0.1,16.9-0.1
		c1.3,0,2.6,0.2,2.4,1.8c-0.1,0.5-1.5,1.1-2.3,1.1C338.9,264.1,336.1,264,333.3,264z"/>
	<path class="st1" d="M333.6,245.6c2.8,0,5.6-0.1,8.5,0.1c0.7,0,1.3,0.8,2,1.2c-0.6,0.6-1.2,1.6-1.9,1.6c-6.1,0.1-12.1,0.1-18.2,0
		c-0.5,0-1.1-0.7-1.6-1.1c0.6-0.6,1.1-1.6,1.8-1.7C327.3,245.5,330.4,245.6,333.6,245.6L333.6,245.6z"/>
	<path class="st1" d="M332.9,256.3c-2.8,0-5.7,0.1-8.5-0.1c-0.7-0.1-1.4-1-2.1-1.5c0.7-0.5,1.3-1.3,2-1.3c5.8-0.1,11.7-0.1,17.5,0
		c0.7,0,1.3,0.9,2,1.4c-0.6,0.5-1.3,1.4-1.9,1.4C338.9,256.4,335.9,256.3,332.9,256.3C332.9,256.3,332.9,256.3,332.9,256.3z"/>
	<path class="st1" d="M969.6,162.2c1.2-0.1,2.1-0.2,3-0.2c33.9,0,67.9,0,101.8,0c0.8,0,1.6-0.1,2.3,0.1c0.5,0.2,1.1,0.9,1.1,1.3
		c0,0.5-0.6,1.2-1.1,1.4c-0.6,0.3-1.3,0.1-2,0.1c-33.5,0-67,0-100.5,0C972.3,165.1,970.6,164.8,969.6,162.2z"/>
	<path class="st1" d="M977.3,170c1.1-0.1,2-0.2,2.9-0.2c31.4,0,62.9,0,94.3,0c0.7,0,1.4-0.1,2,0.1c0.5,0.2,1.2,0.9,1.2,1.3
		c-0.1,0.6-0.7,1.2-1.3,1.5c-0.4,0.2-1,0.1-1.5,0.1c-31.1,0-62.2,0-93.3,0C979.8,172.8,978.2,172.4,977.3,170z"/>
	<path class="st1" d="M622,224.9c-2.9,0-5.8,0.1-8.7-0.1c-0.6,0-1.2-0.8-1.8-1.2c0.6-0.5,1.2-1.5,1.8-1.6c5.8-0.1,11.6-0.1,17.4,0
		c0.6,0,1.2,1,1.8,1.5c-0.7,0.4-1.3,1.2-2,1.2C627.7,224.9,624.8,224.9,622,224.9z"/>
	<path class="st1" d="M621.9,163c-2.9,0-5.8,0.1-8.7-0.1c-0.6,0-1.2-0.8-1.7-1.3c0.5-0.5,1.1-1.5,1.6-1.5c5.9-0.1,11.8-0.1,17.7,0
		c0.6,0,1.1,1.1,1.7,1.6c-0.6,0.4-1.2,1.1-1.9,1.2C627.8,163.1,624.8,163,621.9,163z"/>
	<path class="st1" d="M622,170.7c-2.9,0-5.8,0.1-8.7-0.1c-0.6,0-1.2-0.8-1.8-1.2c0.6-0.5,1.2-1.5,1.8-1.5c5.8-0.1,11.6-0.1,17.4,0
		c0.6,0,1.2,1,1.8,1.5c-0.6,0.4-1.2,1.2-1.8,1.2C627.8,170.8,624.9,170.7,622,170.7z"/>
	<path class="st1" d="M622,217.1c-2.9,0-5.8,0.1-8.7-0.1c-0.6,0-1.2-0.8-1.8-1.2c0.6-0.5,1.2-1.5,1.8-1.5c5.8-0.1,11.6-0.1,17.4,0
		c0.6,0,1.2,1,1.8,1.5c-0.6,0.4-1.2,1.2-1.8,1.2C627.8,217.2,624.9,217.1,622,217.1z"/>
	<path class="st1" d="M621.9,232.6c-2.9,0-5.8,0.1-8.7-0.1c-0.6,0-1.1-0.9-1.7-1.3c0.5-0.5,1.1-1.4,1.6-1.4c5.9-0.1,11.8-0.1,17.7,0
		c0.6,0,1.1,0.9,1.7,1.4c-0.6,0.5-1.2,1.3-1.9,1.4C627.7,232.7,624.8,232.6,621.9,232.6z"/>
	<path class="st1" d="M622,240.3c-2.9,0-5.8,0.1-8.7-0.1c-0.6,0-1.2-0.8-1.8-1.2c0.6-0.5,1.2-1.5,1.8-1.6c5.8-0.1,11.6-0.1,17.4,0
		c0.6,0,1.2,1,1.8,1.5c-0.7,0.4-1.3,1.2-2,1.2C627.7,240.4,624.8,240.3,622,240.3z"/>
	<path class="st1" d="M621.7,209.4c-2.7,0-5.5,0.1-8.2-0.1c-0.7,0-1.3-0.8-2-1.2c0.6-0.5,1.2-1.5,1.8-1.5c5.8-0.1,11.6-0.1,17.4,0
		c0.6,0,1.2,1,1.8,1.6c-0.6,0.4-1.2,1.2-1.8,1.2C627.7,209.5,624.7,209.4,621.7,209.4z"/>
	<path class="st1" d="M622,155.3c-2.9,0-5.8,0.1-8.7-0.1c-0.6,0-1.2-0.8-1.8-1.2c0.6-0.5,1.2-1.5,1.8-1.5c5.8-0.1,11.6-0.1,17.4,0
		c0.6,0,1.2,1,1.8,1.5c-0.6,0.4-1.2,1.2-1.8,1.2C627.8,155.3,624.9,155.3,622,155.3z"/>
	<path class="st1" d="M622,178.5c-2.9,0-5.8,0.1-8.7-0.1c-0.6,0-1.2-0.8-1.8-1.2c0.6-0.5,1.2-1.5,1.8-1.5c5.8-0.1,11.6-0.1,17.4,0
		c0.6,0,1.2,1,1.8,1.5c-0.6,0.4-1.2,1.2-1.8,1.2C627.8,178.5,624.9,178.5,622,178.5z"/>
	<path class="st1" d="M622,201.7c-2.9,0-5.8,0.1-8.7-0.1c-0.6,0-1.2-0.8-1.8-1.2c0.6-0.5,1.2-1.5,1.8-1.5c5.8-0.1,11.6-0.1,17.4,0
		c0.6,0,1.2,1,1.8,1.5c-0.6,0.4-1.2,1.2-1.8,1.2C627.8,201.7,624.9,201.7,622,201.7z"/>
	<path class="st1" d="M621.9,263.5c-2.9,0-5.8,0.1-8.7-0.1c-0.6,0-1.1-0.8-1.7-1.3c0.5-0.5,1.1-1.5,1.6-1.5c5.9-0.1,11.8-0.1,17.7,0
		c0.6,0,1.1,1.1,1.7,1.6c-0.6,0.4-1.2,1.1-1.9,1.1C627.8,263.6,624.8,263.5,621.9,263.5z"/>
	<path class="st1" d="M622.1,255.8c-2.9,0-5.8,0.1-8.7-0.1c-0.6,0-1.2-0.8-1.8-1.2c0.6-0.6,1.2-1.6,1.8-1.6c5.8-0.1,11.6-0.1,17.4,0
		c0.6,0,1.2,1,1.8,1.5c-0.7,0.4-1.3,1.2-2,1.3C627.7,255.9,624.9,255.8,622.1,255.8z"/>
	<path class="st1" d="M622,193.9c-2.9,0-5.8,0.1-8.7-0.1c-0.6,0-1.2-0.8-1.8-1.2c0.6-0.5,1.2-1.5,1.8-1.6c5.8-0.1,11.6-0.1,17.4,0
		c0.6,0,1.2,1,1.8,1.5c-0.6,0.4-1.2,1.2-1.8,1.2C627.8,194,624.9,193.9,622,193.9z"/>
	<path class="st1" d="M621.8,248.1c-2.8,0-5.6,0.1-8.5-0.1c-0.6,0-1.2-0.8-1.8-1.2c0.6-0.5,1.2-1.5,1.8-1.5c5.8-0.1,11.6-0.1,17.4,0
		c0.6,0,1.2,1,1.8,1.5c-0.6,0.4-1.2,1.2-1.8,1.2C627.7,248.1,624.7,248.1,621.8,248.1z"/>
	<path class="st1" d="M622,186.2c-2.8,0-5.6,0.1-8.5-0.1c-0.7,0-1.3-0.8-2-1.3c0.6-0.5,1.2-1.5,1.8-1.5c5.8-0.1,11.6-0.1,17.4,0
		c0.6,0,1.2,1,1.8,1.6c-0.6,0.4-1.2,1.1-1.8,1.2C627.8,186.3,624.9,186.2,622,186.2z"/>
</g>
</svg>
