<?xml version="1.0" encoding="utf-8"?>
<!-- Generator: Adobe Illustrator 25.3.0, SVG Export Plug-In . SVG Version: 6.00 Build 0)  -->
<svg version="1.1" id="Layer_1" xmlns="http://www.w3.org/2000/svg" xmlns:xlink="http://www.w3.org/1999/xlink" x="0px" y="0px"
	 viewBox="0 0 398.4 149.48" style="enable-background:new 0 0 398.4 149.48;" xml:space="preserve">
<style type="text/css">
	.st0{fill:#F1EBE1;}
</style>
<g>
	<path class="st0" d="M289.4,1c3.36,0.59,6.79,0.96,10.08,1.83c8.51,2.24,15.7,6.82,21.93,12.98c1.72,1.71,1.7,1.7-0.07,3.37
		c-4.23,4.01-8.45,8.04-12.67,12.06c-0.97,0.93-0.97,0.93-1.97,0.01c-5.11-4.69-10.98-7.93-17.9-8.85
		c-10.18-1.36-18.97,1.28-25.43,9.71c-3.05,3.98-4.6,8.58-5.11,13.56c-0.61,5.94,0.22,11.64,3.04,16.93
		c3.83,7.2,9.84,11.57,17.86,12.9c10.53,1.75,19.55-1.61,27.39-8.59c1.36-1.21,1.05-1.12,2.23,0.04c4.34,4.23,8.67,8.48,13.03,12.7
		c0.61,0.59,0.76,0.98,0.07,1.67c-7.3,7.39-15.9,12.44-26.09,14.68c-5.54,1.21-11.14,1.38-16.78,0.91
		c-8.4-0.7-16.16-3.32-23.11-8.08c-10.6-7.25-17.03-17.31-19.58-29.87c-0.79-3.89-1.14-7.84-0.96-11.81
		c0.57-12.46,4.87-23.39,13.7-32.32c6.46-6.54,14.31-10.69,23.27-12.68c2.33-0.52,4.71-0.77,7.07-1.15C282.73,1,286.07,1,289.4,1z
		 M315.59,17.37c-0.13-0.15-0.33-0.41-0.56-0.63c-3.11-2.97-6.58-5.41-10.48-7.23c-7.94-3.7-16.33-4.57-24.95-3.86
		c-5.3,0.43-10.37,1.82-15.06,4.3c-14.59,7.72-21.94,20.16-23.21,36.38c-0.37,4.8,0.13,9.57,1.37,14.25
		c3.09,11.64,9.69,20.64,20.21,26.61c6.9,3.92,14.39,5.53,22.31,5.39c5.34-0.09,10.53-0.86,15.56-2.66
		c5.24-1.88,9.86-4.79,14.02-8.48c0.51-0.45,0.59-0.77,0.07-1.29c-2.35-2.36-4.68-4.74-7-7.14c-0.46-0.48-0.8-0.56-1.33-0.09
		c-0.62,0.55-1.3,1.04-2,1.5c-8.42,5.53-17.64,7.26-27.48,5.42c-8.39-1.57-15.19-5.8-19.92-13.03c-4.41-6.74-5.8-14.18-4.86-22.12
		c0.73-6.19,2.94-11.77,7.07-16.43c8.34-9.41,19.06-12.01,31.08-10.22c6.02,0.89,11.46,3.39,16.38,6.98
		c0.57,0.41,0.89,0.32,1.34-0.13c1.11-1.11,2.28-2.15,3.38-3.27C312.88,20.25,314.2,18.84,315.59,17.37z"/>
	<path class="st0" d="M0,4c0.4-0.03,0.79-0.09,1.19-0.09c6.97-0.01,13.93,0.02,20.9-0.03c0.93-0.01,1.35,0.31,1.69,1.14
		c5.7,13.68,11.42,27.34,17.14,41.01c0.09,0.21,0.2,0.41,0.38,0.77c0.38-0.91,0.72-1.69,1.04-2.47
		c5.47-13.05,10.94-26.1,16.37-39.16c0.42-1,0.94-1.29,1.99-1.28c6.8,0.05,13.6,0.02,20.4,0.02c0.43,0,0.85,0,1.44,0
		c-0.17,0.5-0.27,0.84-0.41,1.16c-7.54,17.63-15.08,35.27-22.61,52.9c-5.4,12.64-10.8,25.29-16.21,37.93
		c-0.18,0.43-0.49,1.07-0.82,1.12c-0.83,0.15-1.73,0.09-2.57-0.03c-0.22-0.03-0.42-0.56-0.56-0.88
		c-3.47-8.08-6.92-16.16-10.38-24.24C19.78,50.37,10.6,28.88,1.41,7.39C0.96,6.32,0.47,5.26,0,4.2C0,4.13,0,4.07,0,4z M41.28,86.17
		c11.13-26,22.17-51.77,33.28-77.72c-0.58,0-0.94,0-1.3,0c-2.8,0-5.6,0.05-8.4-0.03c-1.01-0.03-1.44,0.34-1.82,1.24
		c-6.64,15.91-13.32,31.81-19.97,47.72c-0.32,0.76-0.69,1.15-1.59,1.14c-0.94-0.01-1.63-0.14-1.87-1.17
		c-0.05-0.22-0.18-0.43-0.27-0.64C32.68,40.92,26.01,25.13,19.36,9.33c-0.28-0.66-0.65-0.89-1.35-0.89c-3,0.03-6,0.01-9,0.02
		c-0.28,0-0.56,0.06-0.98,0.11C19.12,34.45,30.15,60.2,41.28,86.17z"/>
	<path class="st0" d="M139.2,1c3.81,0.41,7.58,1.01,11.21,2.26c16.94,5.83,27.42,17.5,31.49,34.93c0.9,3.84,1.27,7.75,1.16,11.68
		c-0.33,12.22-4.2,23.11-12.56,32.18c-7.1,7.7-15.95,12.28-26.21,14.25c-4.62,0.89-9.29,1.09-13.92,0.72
		c-15.1-1.21-27.43-7.59-36.22-20.17c-4.05-5.79-6.57-12.25-7.61-19.24c-0.45-3.01-0.8-6.09-0.75-9.13
		c0.24-12.85,4.37-24.21,13.44-33.53c6.45-6.63,14.29-10.81,23.29-12.82c2.33-0.52,4.71-0.77,7.07-1.14C132.8,1,136,1,139.2,1z
		 M133.17,5.38c-1.38,0.14-4.05,0.24-6.66,0.72c-13.49,2.47-23.52,9.78-29.85,21.95c-4.6,8.84-5.85,18.28-4.41,28.11
		c0.98,6.67,3.27,12.85,7.15,18.35c7.95,11.27,19.05,16.91,32.67,17.78c4.03,0.26,8.04-0.11,12-0.97
		c19.34-4.21,31.89-20.27,33.02-39.62c0.2-3.42,0.01-6.85-0.54-10.25c-1.41-8.6-4.85-16.25-10.81-22.65
		C157.3,9.74,146.75,5.51,133.17,5.38z"/>
	<path class="st0" d="M398.4,59c-0.4,0.02-0.8,0.06-1.2,0.06c-10.79,0-21.58,0-32.38,0c-1.51,0-1.51,0-1.51-1.55
		c0-5.5,0.02-10.99-0.02-16.49c-0.01-0.89,0.27-1.13,1.14-1.13c11.03,0.03,22.05,0.02,33.08,0.02c0.3,0,0.59,0.05,0.89,0.08
		C398.4,46.33,398.4,52.67,398.4,59z"/>
	<path class="st0" d="M398.4,94c-0.36,0.03-0.73,0.08-1.09,0.08c-10.89,0-21.78,0-32.68,0c-1.31,0-1.32,0-1.32-1.31
		c0-5.56,0.01-11.13-0.01-16.69c0-0.75,0.13-1.16,1.02-1.16c11.19,0.02,22.38,0.02,33.58,0.02c0.17,0,0.33,0.03,0.5,0.05
		C398.4,81.34,398.4,87.67,398.4,94z"/>
	<path class="st0" d="M336.31,3.91c0.6,0,0.99,0,1.39,0c19,0,37.99,0,56.99,0c1.4,0,1.4,0,1.4,1.41c0,5.7-0.02,11.4,0.02,17.1
		c0.01,1-0.26,1.3-1.28,1.3c-11.56-0.03-23.13-0.02-34.69-0.02c-1.48,0-1.48,0-1.48,1.46c0.01,22.5,0.02,44.99,0.03,67.49
		c0,1.62,0,1.62-1.57,1.62c-6.47,0-12.93,0-19.4,0c-1.4,0-1.4-0.01-1.4-1.36c0-29.23,0-58.46,0-87.68
		C336.31,4.82,336.31,4.43,336.31,3.91z M342.09,50.5c0,12.66,0.01,25.33-0.02,37.99c0,0.97,0.28,1.26,1.24,1.23
		c2.63-0.06,5.27-0.02,7.9-0.02c1.51,0,1.51,0,1.51-1.52c0-22.5,0-44.99,0-67.49c0-1.58,0-1.58,1.59-1.58
		c11.53,0,23.06-0.01,34.59,0.02c0.94,0,1.28-0.23,1.26-1.22c-0.06-2.7-0.02-5.4-0.02-8.1c0-1.37,0-1.37-1.38-1.37
		c-11.36,0-22.73,0-34.09,0c-3.87,0-7.73,0.03-11.6-0.02c-0.93-0.01-1.08,0.43-0.98,1.17c0.12,0.79,0.76,0.51,1.2,0.51
		c13.8,0.01,27.59,0.01,41.39,0.03c0.48,0,1.32-0.36,1.35,0.52c0.04,1.01-0.87,0.6-1.36,0.6c-13.73,0.02-27.46,0.02-41.19,0.02
		c-1.4,0-1.4,0-1.4,1.43C342.09,25.31,342.09,37.91,342.09,50.5z"/>
	<path class="st0" d="M197.95,49c0-14.33,0-28.66,0-42.99c0-2.54-0.15-2.09,2.15-2.1c6.26-0.02,12.53-0.01,18.79-0.01
		c1.55,0,1.56,0,1.56,1.6c0,21.86,0,43.72,0,65.58c0,7.03,0,14.06,0,21.09c0,2.3,0.04,1.9-1.95,1.9
		c-6.33,0.02-12.66,0.01-18.99,0.01c-1.55,0-1.56,0-1.56-1.6C197.95,78,197.95,63.5,197.95,49z M214.51,49.1
		c0-13.16-0.01-26.32,0.02-39.48c0-0.93-0.28-1.2-1.19-1.19c-2.8,0.05-5.6,0.04-8.4,0c-0.84-0.01-1.08,0.28-1.07,1.1
		c0.03,4.2,0.02,8.4,0.02,12.59c0,22.09,0,44.18,0,66.27c0,1.31,0,1.31,1.32,1.31c2.67,0,5.33,0,8,0c1.3,0,1.31,0,1.31-1.32
		C214.51,75.29,214.51,62.2,214.51,49.1z"/>
	<path class="st0" d="M203.57,104.77c0.42-0.02,0.77-0.05,1.13-0.05c8.83,0,17.66,0.01,26.49-0.02c0.93,0,1.3,0.23,1.28,1.22
		c-0.06,2.36-0.05,4.73,0,7.1c0.02,0.98-0.25,1.32-1.29,1.31c-5.2-0.05-10.4-0.01-15.59-0.04c-0.86-0.01-1.18,0.23-1.15,1.12
		c0.06,1.73,0.07,3.47,0,5.2c-0.04,0.96,0.34,1.18,1.22,1.17c4.66-0.03,9.33-0.02,13.99-0.01c1.43,0,1.43,0.01,1.43,1.46
		c0,2.3-0.03,4.6,0.02,6.9c0.02,0.9-0.26,1.21-1.19,1.2c-4.76-0.04-9.53,0.01-14.29-0.04c-0.95-0.01-1.21,0.31-1.18,1.2
		c0.06,1.73,0.05,3.47,0,5.2c-0.03,0.85,0.3,1.07,1.1,1.07c5.46-0.03,10.93,0.01,16.39-0.03c0.99-0.01,1.36,0.27,1.34,1.3
		c-0.06,2.3-0.04,4.6-0.01,6.9c0.01,0.86-0.2,1.22-1.17,1.22c-9.16-0.04-18.33-0.02-27.49-0.02c-0.32,0-0.65-0.04-1.03-0.06
		C203.57,133.59,203.57,119.22,203.57,104.77z M206.56,107.46c0,12.67,0,25.25,0,37.98c1.55-1.47,2.99-2.8,4.38-4.18
		c0.25-0.24,0.39-0.7,0.39-1.06c0.02-9.09,0.02-18.18,0.01-27.27c0-0.32-0.04-0.73-0.24-0.93
		C209.63,110.47,208.12,109,206.56,107.46z"/>
	<path class="st0" d="M280.03,148.1c-1.88,0-3.54,0-5.19,0c-1.9,0-3.8-0.02-5.7,0.01c-0.59,0.01-0.91-0.19-1.15-0.72
		c-0.45-1-0.91-2.01-1.47-2.94c-0.21-0.35-0.73-0.72-1.11-0.72c-5.06-0.05-10.13-0.05-15.19,0c-0.38,0-0.91,0.37-1.11,0.72
		c-0.55,0.95-0.92,1.99-1.45,2.95c-0.17,0.31-0.61,0.67-0.93,0.67c-3.5,0.05-7,0.03-10.49,0.02c-0.13,0-0.25-0.05-0.51-0.11
		c0.15-0.4,0.27-0.77,0.43-1.11c6.67-14.18,13.36-28.37,20.02-42.55c0.34-0.72,0.68-1.22,1.6-1.18c0.77,0.03,1.19,0.29,1.52,0.99
		c3.24,6.9,6.51,13.78,9.78,20.67c3.51,7.4,7.01,14.8,10.52,22.2C279.72,147.27,279.82,147.58,280.03,148.1z M275.86,145.74
		c-1.49-3.14-2.89-6.07-4.3-9c-0.1-0.2-0.38-0.44-0.58-0.45c-1.62-0.04-3.23-0.02-4.84-0.02c-0.02,0.17-0.06,0.25-0.04,0.3
		c1.31,2.87,2.62,5.74,3.97,8.6c0.12,0.25,0.47,0.54,0.72,0.55C272.41,145.77,274.04,145.74,275.86,145.74z M249.67,136.26
		c-1.64,0-3.07,0.03-4.49-0.01c-0.71-0.02-1.07,0.26-1.36,0.89c-1.18,2.57-2.41,5.11-3.62,7.67c-0.12,0.25-0.19,0.52-0.34,0.94
		c1.76,0,3.35,0.02,4.94-0.02c0.21,0,0.5-0.23,0.6-0.42C246.81,142.36,248.19,139.42,249.67,136.26z M257.69,125.34
		c-1.65,3.61-3.21,7-4.8,10.48c3.26,0,6.34,0,9.54,0C260.85,132.31,259.32,128.93,257.69,125.34z"/>
	<path class="st0" d="M132.71,126.33c0-6.8,0.02-13.6-0.02-20.4c-0.01-0.94,0.23-1.25,1.21-1.25c8.83,0.04,17.66,0.03,26.5,0
		c0.94,0,1.3,0.25,1.27,1.23c-0.06,2.4-0.05,4.8-0.01,7.2c0.02,0.89-0.25,1.21-1.19,1.2c-5.23-0.04-10.46,0-15.7-0.04
		c-0.88-0.01-1.17,0.26-1.14,1.14c0.06,1.7,0.06,3.4,0,5.1c-0.04,0.95,0.26,1.27,1.23,1.26c4.63-0.05,9.26-0.02,13.9-0.02
		c1.51,0,1.51,0,1.51,1.48c0,2.3-0.04,4.6,0.02,6.9c0.02,0.94-0.32,1.19-1.21,1.18c-4.77-0.04-9.53,0-14.3-0.03
		c-0.87-0.01-1.18,0.23-1.15,1.13c0.06,1.73,0.06,3.47,0,5.2c-0.03,0.87,0.25,1.15,1.13,1.14c5.43-0.04,10.86-0.02,16.3-0.02
		c1.36,0,1.38,0.02,1.38,1.41c0,2.3-0.02,4.6,0.01,6.9c0.01,0.83-0.28,1.08-1.11,1.08c-9.2-0.02-18.4-0.03-27.6,0
		c-0.84,0-1.07-0.27-1.06-1.08C132.72,140.13,132.71,133.23,132.71,126.33z M135.71,145.51c1.52-1.43,2.85-2.72,4.22-3.98
		c0.56-0.51,0.79-1.05,0.79-1.82c-0.03-7.17-0.01-14.33-0.02-21.5c0-1.96,0.47-4.14-0.23-5.83c-0.7-1.68-2.6-2.87-3.97-4.27
		c-0.22-0.22-0.46-0.42-0.79-0.71C135.71,120.13,135.71,132.68,135.71,145.51z"/>
	<path class="st0" d="M172.31,135.16c1.47,0,2.93,0.01,4.4,0c0.59,0,0.88,0.21,0.99,0.84c0.55,3.03,3.55,4.55,6.33,3.24
		c2.27-1.07,2.72-3.99,0.74-5.51c-1.06-0.81-2.36-1.33-3.61-1.86c-2.36-1-4.81-1.77-7.12-2.86c-8.89-4.19-8.84-15.46-3.24-21.14
		c3.52-3.57,7.78-5.04,12.78-4.58c2.82,0.26,5.42,1.01,7.68,2.75c3.18,2.44,4.62,5.86,5.21,9.69c0.3,1.92,0.23,1.93-1.73,1.93
		c-2.43,0-4.87-0.01-7.3,0.01c-0.7,0-1.06-0.14-1.15-0.98c-0.22-2.2-2.06-3.61-4.36-3.48c-2.5,0.14-4.15,1.59-4.19,3.83
		c-0.02,1.43,0.76,2.51,2.05,3.05c1.38,0.58,2.81,1.04,4.24,1.45c3.1,0.89,6.1,1.96,8.55,4.15c3.4,3.03,4.41,6.93,3.99,11.3
		c-0.59,6.11-5.6,11.31-11.97,12.39c-5.76,0.98-12.44-0.91-15.65-6.39c-1.24-2.12-1.79-4.42-2.02-6.83
		c-0.07-0.76,0.25-1.02,0.97-1.01C169.38,135.17,170.84,135.16,172.31,135.16z M172.55,137.49c-0.6,0-1.2,0.04-1.79-0.01
		c-0.84-0.07-1.05,0.43-0.82,1.04c0.47,1.27,0.87,2.62,1.62,3.71c2.27,3.31,5.68,4.65,9.54,5.02c0.18,0.02,0.58-0.47,0.59-0.75
		c0.07-1.09-0.04-2.2,0.05-3.29c0.08-0.99-0.38-1.24-1.24-1.35c-1.93-0.25-3.69-1.08-4.59-2.81c-0.73-1.42-1.66-1.78-3.06-1.57
		C172.75,137.51,172.65,137.49,172.55,137.49z M193.7,115.31c-0.12-0.61-0.18-1.03-0.29-1.44c-1.69-6.04-6.08-7.96-10.66-8.33
		c-0.2-0.02-0.63,0.44-0.64,0.7c-0.07,1.29-0.02,2.59-0.04,3.89c-0.01,0.54,0.2,0.76,0.76,0.79c2.59,0.14,4.43,1.4,5.57,3.74
		c0.13,0.27,0.49,0.61,0.76,0.62C190.61,115.34,192.07,115.31,193.7,115.31z"/>
	<path class="st0" d="M257.39,81.52c0.59,0,0.94,0,1.3,0c7.22,0,14.45-0.01,21.67,0.01c1.13,0,2.26,0.11,3.38,0.23
		c0.24,0.02,0.45,0.29,0.67,0.44c-0.24,0.16-0.47,0.35-0.74,0.46c-0.17,0.07-0.39,0.02-0.59,0.02c-7.86,0-15.71-0.01-23.57,0.01
		C258.69,82.69,258.02,82.53,257.39,81.52z"/>
	<path class="st0" d="M284.37,16.07c-0.33,0.07-0.67,0.19-1,0.2c-5.72,0.15-11.44,0.3-17.16,0.4c-2.83,0.05-5.66,0.01-8.5,0
		c-0.24,0-0.48-0.07-0.73-0.11c-0.03-0.11-0.06-0.23-0.09-0.34c0.6-0.23,1.2-0.67,1.81-0.67c8.26-0.04,16.53-0.03,24.79-0.02
		c0.3,0,0.59,0.11,0.89,0.17C284.38,15.82,284.38,15.94,284.37,16.07z"/>
	<path class="st0" d="M261.26,13.17c0.62-0.22,1.24-0.62,1.86-0.62c6.75-0.05,13.51-0.03,20.26-0.03c0.23,0,0.49-0.03,0.68,0.07
		c0.17,0.09,0.35,0.33,0.35,0.51c0,0.18-0.18,0.43-0.35,0.5c-0.23,0.1-0.52,0.07-0.79,0.07c-6.99,0-13.97,0-20.96,0
		c-0.32,0-0.63-0.03-0.95-0.05C261.34,13.48,261.3,13.32,261.26,13.17z"/>
	<path class="st0" d="M261.7,84.6c0.54-0.03,0.89-0.07,1.24-0.07c6.75,0,13.5,0,20.26,0c0.27,0,0.56-0.05,0.79,0.05
		c0.2,0.09,0.43,0.35,0.43,0.54c0,0.18-0.25,0.44-0.45,0.52c-0.23,0.1-0.52,0.05-0.79,0.05c-6.45,0-12.91-0.01-19.36,0.01
		C263,85.69,262.31,85.53,261.7,84.6z"/>
	<path class="st0" d="M266.71,10.23c0.8-0.23,1.59-0.66,2.39-0.67c4.8-0.06,9.6-0.04,14.39-0.01c0.32,0,0.63,0.37,0.95,0.57
		c-0.29,0.19-0.58,0.54-0.88,0.54c-5.43,0.03-10.86,0.02-16.29,0.02c-0.16,0-0.32-0.05-0.47-0.08
		C266.77,10.47,266.74,10.35,266.71,10.23z"/>
	<path class="st0" d="M267.19,87.58c0.29-0.02,0.58-0.06,0.88-0.06c5.06,0,10.13,0,15.19,0c0.23,0,0.5-0.05,0.69,0.04
		c0.2,0.1,0.45,0.33,0.46,0.52c0.01,0.18-0.23,0.43-0.42,0.55c-0.15,0.09-0.39,0.05-0.59,0.05c-4.6,0-9.2,0.04-13.79-0.03
		c-0.83-0.01-1.66-0.44-2.49-0.68C267.14,87.84,267.17,87.71,267.19,87.58z"/>
	<path class="st0" d="M270.44,18.94c-0.8,0.24-1.59,0.69-2.4,0.7c-4.49,0.07-8.98,0.03-13.47,0.03c-0.19,0-0.38-0.06-0.57-0.09
		c-0.05-0.1-0.1-0.19-0.16-0.29c0.42-0.25,0.84-0.73,1.26-0.73c5.02-0.04,10.05-0.02,15.07-0.01c0.06,0,0.12,0.06,0.17,0.08
		C270.38,18.74,270.41,18.84,270.44,18.94z"/>
	<path class="st0" d="M270.26,79.62c-0.32,0.02-0.63,0.06-0.95,0.06c-4.52,0-9.04-0.01-13.56,0.01c-0.73,0-1.3-0.17-1.67-1.03
		c0.31-0.05,0.58-0.13,0.84-0.13c4.45-0.01,8.91-0.03,13.36,0.02c0.7,0.01,1.39,0.41,2.08,0.63
		C270.32,79.33,270.29,79.47,270.26,79.62z"/>
	<path class="st0" d="M264.52,21.93c-0.5,0.25-0.99,0.7-1.49,0.7c-3.8,0.06-7.59,0.03-11.39,0.02c-0.12,0-0.24-0.08-0.51-0.4
		c0.39-0.24,0.78-0.69,1.17-0.7c3.96-0.04,7.92-0.02,11.89,0c0.06,0,0.12,0.05,0.18,0.08C264.42,21.74,264.47,21.83,264.52,21.93z"
		/>
	<path class="st0" d="M251.56,75.62c0.28-0.03,0.54-0.09,0.79-0.09c3.52-0.01,7.05,0,10.57-0.01c0.73,0,1.24,0.27,1.65,1.05
		c-0.41,0.05-0.69,0.1-0.96,0.1c-3.59,0.01-7.18,0-10.77,0.01C252.13,76.69,251.6,76.54,251.56,75.62z"/>
	<path class="st0" d="M260.95,73.57c-0.34,0.05-0.56,0.1-0.79,0.1c-3.23,0.01-6.47,0-9.7,0.01c-0.65,0-1.1-0.19-1.16-1.05
		c0.28-0.04,0.56-0.11,0.83-0.11c3.1-0.01,6.2,0,9.3-0.01C260.14,72.52,260.66,72.73,260.95,73.57z"/>
	<path class="st0" d="M249.02,25.24c0.4-0.24,0.79-0.67,1.19-0.68c3.39-0.05,6.79-0.03,10.18-0.02c0.15,0,0.3,0.08,0.44,0.12
		c0.04,0.09,0.07,0.19,0.11,0.28c-0.45,0.25-0.9,0.7-1.36,0.71c-3.36,0.06-6.72,0.03-10.08,0.02c-0.11,0-0.23-0.09-0.34-0.13
		C249.12,25.43,249.07,25.33,249.02,25.24z"/>
	<path class="st0" d="M258.15,28c-0.42,0.22-0.84,0.64-1.26,0.64c-3.03,0.05-6.06,0.03-9.09,0.02c-0.13,0-0.25-0.05-0.42-0.09
		c-0.06-0.68,0.23-1.05,0.87-1.05c3.16-0.01,6.32,0,9.49,0.02c0.09,0,0.17,0.08,0.26,0.12C258.05,27.78,258.1,27.89,258.15,28z"/>
	<path class="st0" d="M247.53,69.63c0.27-0.04,0.52-0.1,0.78-0.1c2.83-0.01,5.66-0.03,8.49,0.02c0.5,0.01,0.99,0.39,1.49,0.6
		c-0.03,0.12-0.06,0.25-0.09,0.37c-0.23,0.05-0.47,0.15-0.7,0.15c-2.96,0.01-5.92,0-8.89,0.01
		C247.93,70.68,247.54,70.43,247.53,69.63z"/>
	<path class="st0" d="M246,66.52c0.77,0,1.46,0,2.15,0c2.16,0,4.32,0.01,6.48-0.01c0.67,0,1.17,0.17,1.35,1.04
		c-0.33,0.04-0.63,0.12-0.93,0.12c-2.59,0.01-5.18-0.01-7.77,0.01C246.6,67.69,246.1,67.54,246,66.52z"/>
	<path class="st0" d="M255.98,30.83c-0.47,0.33-0.82,0.79-1.19,0.8c-2.83,0.05-5.66,0.01-8.48,0c-0.09,0-0.18-0.07-0.54-0.23
		c0.37-0.34,0.65-0.83,0.94-0.83c2.93-0.05,5.86-0.02,8.78,0C255.57,30.57,255.65,30.65,255.98,30.83z"/>
	<path class="st0" d="M254.16,33.54c-0.09,0.85-0.41,1.14-1.06,1.14c-2.5-0.01-5,0.01-7.5-0.02c-0.23,0-0.47-0.3-0.7-0.46
		c0.2-0.22,0.39-0.63,0.59-0.63C248.35,33.53,251.2,33.54,254.16,33.54z"/>
	<path class="st0" d="M254.12,64.59c-0.29,0.03-0.57,0.08-0.86,0.08c-2.43,0.01-4.85,0.01-7.28,0c-0.23,0-0.51,0.04-0.68-0.07
		c-0.18-0.12-0.37-0.4-0.36-0.6c0.01-0.16,0.3-0.45,0.46-0.45c2.66-0.03,5.32-0.04,7.97,0.02c0.3,0.01,0.6,0.45,0.9,0.69
		C254.22,64.37,254.17,64.48,254.12,64.59z"/>
	<path class="st0" d="M252.8,36.54c0.01,0.86-0.29,1.14-0.91,1.14c-2.4,0-4.8,0.01-7.2-0.02c-0.24,0-0.48-0.3-0.73-0.46
		c0.2-0.22,0.41-0.63,0.61-0.63C247.31,36.53,250.03,36.54,252.8,36.54z"/>
	<path class="st0" d="M248.39,61.68c-1.16,0-2.32,0.05-3.48-0.03c-0.32-0.02-0.63-0.4-0.94-0.62c0.3-0.17,0.59-0.48,0.89-0.48
		c2.29-0.04,4.58-0.02,6.86-0.02c0.13,0,0.31-0.04,0.39,0.03c0.25,0.21,0.47,0.46,0.7,0.7c-0.25,0.14-0.5,0.4-0.75,0.41
		C250.85,61.7,249.62,61.68,248.39,61.68z"/>
	<path class="st0" d="M251.87,39.54c0.08,0.88-0.26,1.14-0.92,1.14c-2.32-0.01-4.64,0.01-6.96-0.02c-0.26,0-0.51-0.27-0.77-0.41
		c0.22-0.24,0.44-0.68,0.66-0.68C246.53,39.52,249.17,39.54,251.87,39.54z"/>
	<path class="st0" d="M243.34,57.52c0.79,0,1.58,0,2.37,0c1.73,0,3.47,0.01,5.2,0c0.63,0,1.03,0.21,1,1.01
		c-0.23,0.05-0.47,0.14-0.72,0.14c-2.3,0.01-4.6,0-6.9,0.01C243.61,58.68,243.23,58.43,243.34,57.52z"/>
	<path class="st0" d="M251.32,55.68c-0.93,0-1.79,0-2.64,0c-1.66,0-3.32,0.03-4.98-0.03c-0.32-0.01-0.62-0.41-0.93-0.63
		c0.3-0.16,0.6-0.47,0.9-0.47c2.19-0.04,4.38-0.01,6.58-0.03C250.93,54.51,251.35,54.71,251.32,55.68z"/>
	<path class="st0" d="M251.26,42.55c0.09,0.78-0.17,1.13-0.85,1.13c-2.32,0-4.64,0.01-6.96-0.02c-0.23,0-0.45-0.26-0.68-0.4
		c0.18-0.23,0.37-0.67,0.55-0.67C245.97,42.54,248.61,42.55,251.26,42.55z"/>
	<path class="st0" d="M246.57,49.68c-1.13,0-2.26,0.03-3.38-0.03c-0.27-0.01-0.52-0.34-0.78-0.53c0.25-0.2,0.49-0.56,0.74-0.57
		c2.32-0.04,4.65-0.04,6.97,0c0.25,0,0.49,0.37,0.73,0.57c-0.26,0.18-0.52,0.51-0.79,0.52C248.9,49.71,247.73,49.68,246.57,49.68z"
		/>
	<path class="st0" d="M246.69,51.53c1.13,0,2.26-0.04,3.38,0.03c0.29,0.02,0.55,0.39,0.82,0.6c-0.28,0.18-0.56,0.5-0.85,0.5
		c-2.19,0.04-4.38,0.02-6.57,0.02c-0.48,0-1.05,0.01-0.92-0.67c0.04-0.22,0.61-0.45,0.95-0.47
		C244.56,51.49,245.63,51.52,246.69,51.53C246.69,51.52,246.69,51.53,246.69,51.53z"/>
	<path class="st0" d="M246.62,46.68c-1.13,0-2.26,0.03-3.38-0.02c-0.25-0.01-0.49-0.28-0.73-0.42c0.25-0.23,0.49-0.67,0.75-0.67
		c2.32-0.05,4.64-0.05,6.96-0.01c0.23,0,0.45,0.31,0.68,0.47c-0.23,0.22-0.45,0.61-0.69,0.62C249,46.71,247.81,46.67,246.62,46.68
		C246.62,46.67,246.62,46.68,246.62,46.68z"/>
	<path class="st0" d="M276.74,7.25c1.06-0.16,2.11-0.39,3.17-0.47c1.29-0.09,2.59-0.07,3.88-0.05c0.21,0,0.42,0.29,0.62,0.45
		c-0.18,0.16-0.35,0.45-0.53,0.45c-2.38,0.03-4.75,0.02-7.13,0.02C276.75,7.52,276.75,7.39,276.74,7.25z"/>
	<path class="st0" d="M284.34,91.34c-2.27-0.15-4.54-0.3-6.82-0.46C278.87,90.25,283.98,90.46,284.34,91.34z"/>
	<path class="st0" d="M22.13,19.72c-0.3,0.05-0.55,0.12-0.8,0.12c-2.16,0.01-4.33,0-6.49,0.01c-0.64,0-1.1-0.21-1.17-1.02
		c0.26-0.04,0.5-0.11,0.74-0.12c2.23-0.01,4.46,0,6.69-0.01C21.71,18.7,22.14,18.84,22.13,19.72z"/>
	<path class="st0" d="M17.54,27.72c2.66,0,5.21-0.02,7.77,0.03c0.24,0,0.48,0.42,0.72,0.65c-0.25,0.15-0.5,0.42-0.76,0.43
		c-2.23,0.03-4.46,0.02-6.69,0.02C17.95,28.84,17.6,28.53,17.54,27.72z"/>
	<path class="st0" d="M12.47,15.71c0.85,0,1.67,0,2.49,0c1.66,0,3.33,0.02,4.99-0.01c0.65-0.01,0.99,0.23,0.99,1.01
		c-0.31,0.05-0.59,0.12-0.87,0.13c-2.13,0.01-4.26,0-6.39,0.01C13,16.85,12.5,16.66,12.47,15.71z"/>
	<path class="st0" d="M15.02,21.81c0.28-0.03,0.53-0.09,0.79-0.09c2.23-0.01,4.46,0,6.69-0.01c0.52,0,1.01,0.1,0.94,0.71
		c-0.02,0.17-0.59,0.41-0.91,0.42c-2.1,0.04-4.19,0.01-6.29,0.02C15.56,22.85,15.07,22.66,15.02,21.81z"/>
	<path class="st0" d="M19.6,13.71c-0.35,0.05-0.67,0.13-0.98,0.13c-2.1,0.01-4.19,0-6.29,0.01c-0.67,0-1.18-0.17-1.21-1.14
		c0.48,0,0.93,0,1.38,0c2,0,3.99,0.01,5.99,0C19.09,12.7,19.57,12.79,19.6,13.71z"/>
	<path class="st0" d="M9.9,9.72c2.65,0,5.2-0.02,7.75,0.03c0.29,0.01,0.57,0.43,0.85,0.65c-0.04,0.1-0.08,0.2-0.12,0.29
		c-0.31,0.05-0.62,0.14-0.93,0.14c-2.1,0.01-4.19,0-6.29,0.01C10.51,10.85,9.99,10.7,9.9,9.72z"/>
	<path class="st0" d="M25.3,45.72c2.65,0,5.16-0.02,7.67,0.03c0.24,0,0.47,0.42,0.71,0.65c-0.24,0.15-0.48,0.43-0.73,0.43
		c-2.19,0.03-4.38,0.02-6.56,0.02C25.75,46.85,25.43,46.51,25.3,45.72z"/>
	<path class="st0" d="M18.93,30.71c0.74,0,1.46,0,2.18,0c1.7,0,3.39,0.01,5.09,0c0.51,0,1.01,0.08,0.98,0.68
		c-0.01,0.17-0.58,0.44-0.89,0.44c-2.06,0.04-4.12,0.02-6.18,0.02C19.43,31.85,18.94,31.66,18.93,30.71z"/>
	<path class="st0" d="M32.32,43.76c-0.5,0.03-0.96,0.08-1.41,0.08c-1.9,0.01-3.79,0-5.69,0c-0.63,0-1.11-0.18-1.22-0.98
		c0.2-0.05,0.41-0.15,0.61-0.15c2.26-0.01,4.52,0,6.78-0.01C32.02,42.71,32.34,42.95,32.32,43.76z"/>
	<path class="st0" d="M21.43,36.73c2.64,0,5.17-0.02,7.69,0.03c0.27,0.01,0.53,0.42,1.03,0.84c-0.61,0.14-0.89,0.25-1.16,0.25
		c-2.13,0.01-4.26,0-6.39,0.01C21.94,37.86,21.54,37.59,21.43,36.73z"/>
	<path class="st0" d="M20.26,33.73c2.62,0,5.14-0.02,7.66,0.03c0.27,0.01,0.53,0.42,1.03,0.84c-0.62,0.14-0.89,0.25-1.16,0.25
		c-2.13,0.01-4.26,0.01-6.39,0.01C20.75,34.85,20.32,34.61,20.26,33.73z"/>
	<path class="st0" d="M31.13,40.71c-0.28,0.05-0.53,0.14-0.78,0.14c-2.13,0.01-4.26,0-6.38,0.01c-0.65,0-1.08-0.23-1.15-1.02
		c0.27-0.04,0.52-0.11,0.77-0.11c2.16-0.01,4.32,0,6.48-0.01C30.67,39.7,31.13,39.81,31.13,40.71z"/>
	<path class="st0" d="M26.57,48.71c1.19,0,2.31,0,3.43,0c1.33,0,2.66-0.04,3.98,0.03c0.31,0.02,0.6,0.43,0.9,0.66
		c-0.28,0.15-0.56,0.42-0.84,0.42c-2.09,0.04-4.18,0.01-6.28,0.02C27.13,49.85,26.66,49.66,26.57,48.71z"/>
	<path class="st0" d="M16.42,24.82c0.25-0.03,0.5-0.1,0.75-0.1c2.16-0.01,4.32-0.01,6.48,0c0.23,0,0.52-0.03,0.67,0.09
		c0.18,0.14,0.32,0.42,0.34,0.66c0.01,0.11-0.3,0.36-0.46,0.36c-2.32,0.02-4.65,0.04-6.97-0.03c-0.32-0.01-0.63-0.47-0.94-0.73
		C16.32,24.99,16.37,24.9,16.42,24.82z"/>
	<path class="st0" d="M32.99,63.71c1.46,0,2.85,0,4.24,0c1,0,2,0.02,2.99,0c0.6-0.01,0.95,0.2,0.97,0.97
		c-0.33,0.06-0.66,0.16-1,0.16c-1.96,0.02-3.92,0-5.89,0.01C33.65,64.86,33.12,64.73,32.99,63.71z"/>
	<path class="st0" d="M30.48,57.72c2.54,0,4.96-0.02,7.38,0.03c0.26,0,0.51,0.39,0.77,0.6c-0.26,0.17-0.53,0.48-0.79,0.48
		c-2.09,0.04-4.19,0.02-6.28,0.02C30.9,58.85,30.49,58.57,30.48,57.72z"/>
	<path class="st0" d="M28,51.73c2.49,0,4.98-0.02,7.46,0.03c0.21,0,0.41,0.41,0.62,0.63c-0.21,0.15-0.41,0.43-0.62,0.44
		c-2.2,0.03-4.39,0.05-6.59-0.02c-0.37-0.01-0.72-0.44-1.08-0.68C27.86,51.99,27.93,51.86,28,51.73z"/>
	<path class="st0" d="M29.27,54.72c2.51,0,4.93-0.02,7.35,0.03c0.22,0,0.44,0.45,0.66,0.7c-0.23,0.13-0.45,0.38-0.68,0.38
		c-2.1,0.03-4.19,0.02-6.29,0.01C29.69,55.84,29.31,55.56,29.27,54.72z"/>
	<path class="st0" d="M34.37,66.77c0.44-0.02,0.82-0.05,1.21-0.05c1.96,0,3.92-0.03,5.88,0.03c0.32,0.01,0.63,0.41,0.94,0.63
		c-0.31,0.16-0.61,0.45-0.92,0.45c-1.96,0.04-3.92,0.01-5.88,0.02C34.91,67.86,34.44,67.66,34.37,66.77z"/>
	<path class="st0" d="M31.83,60.71c1.15,0,2.27,0,3.39,0c1.26,0,2.53-0.04,3.78,0.03c0.29,0.02,0.55,0.42,0.82,0.64
		c-0.25,0.15-0.49,0.43-0.74,0.43c-2.09,0.03-4.18,0.03-6.28,0.01C32.18,61.84,31.85,61.5,31.83,60.71z"/>
	<path class="st0" d="M44.8,73.68c-0.29,0.06-0.53,0.16-0.78,0.16c-2,0.01-3.99,0.01-5.99,0.01c-0.65,0-1.08-0.24-1.1-1.14
		c0.68,0,1.33,0,1.98,0c1.63,0,3.26,0.01,4.89-0.01C44.39,72.7,44.76,72.88,44.8,73.68z"/>
	<path class="st0" d="M35.75,69.71c1.44,0,2.86,0,4.28,0c0.86,0,1.73,0.02,2.59,0c0.6-0.01,0.95,0.2,0.97,0.94
		c-0.22,0.06-0.46,0.18-0.7,0.18c-2.03,0.02-4.06,0.01-6.09,0.01C36.16,70.84,35.72,70.59,35.75,69.71z"/>
	<path class="st0" d="M38.28,75.78c2,0,3.97,0,5.97,0c0.03,0.78-0.36,1.06-1.02,1.07c-1.29,0.01-2.58,0.01-3.88,0
		C38.7,76.85,38.29,76.57,38.28,75.78z"/>
	<path class="st0" d="M39.65,78.8c1.06,0,2.13,0,3.26,0c0,0.71-0.34,1.04-1,1.04C40.46,79.85,39.72,80.03,39.65,78.8z"/>
	<path class="st0" d="M134.42,17.27c6.9,0.21,13.29,1.85,18.98,5.78c6.48,4.49,10.51,10.69,12.17,18.36
		c1.85,8.54,0.87,16.78-3.55,24.38c-4.85,8.35-12.23,13.18-21.73,14.69c-6.91,1.1-13.69,0.52-20.08-2.48
		c-9.42-4.42-15-11.93-17.04-22.03c-1.49-7.4-0.83-14.67,2.51-21.51c4.25-8.71,11.28-13.99,20.68-16.09
		C128.98,17.78,131.72,17.62,134.42,17.27z M134.38,22.09c-0.6,0-1.2-0.02-1.8,0.01c-0.6,0.03-1.19,0.1-1.78,0.18
		c-9.43,1.25-16.18,6.17-19.94,14.91c-3,6.96-3.16,14.16-0.87,21.36c2.05,6.43,5.98,11.42,12.03,14.55
		c5.51,2.86,11.41,3.49,17.47,2.42c7.68-1.35,13.5-5.45,17.31-12.26c3.05-5.46,3.97-11.36,3.35-17.55
		c-0.41-4.17-1.58-8.1-3.77-11.67C151.35,25.84,143.82,22.19,134.38,22.09z"/>
	<path class="st0" d="M161.23,16.68c-0.55,0-0.94,0-1.34,0c-6.23,0-12.46,0.04-18.69-0.02c-2.82-0.03-5.67-0.53-8.46-0.31
		c-8.02,0.63-16.05,0.16-24.07,0.33c-0.39,0.01-0.78,0-1.16,0c-0.05-0.13-0.09-0.26-0.14-0.39c0.51-0.25,1.01-0.53,1.54-0.75
		c0.2-0.08,0.46-0.02,0.69-0.02c16.59,0,33.19,0,49.78-0.01C160.16,15.52,160.85,15.55,161.23,16.68z"/>
	<path class="st0" d="M156.85,13.62c-15.12,0-30.07,0-45.02,0c-0.05-0.1-0.09-0.2-0.14-0.3c0.5-0.26,0.99-0.55,1.51-0.77
		c0.2-0.09,0.46-0.03,0.69-0.03c13.67,0,27.33,0,41-0.01C155.7,12.52,156.4,12.6,156.85,13.62z"/>
	<path class="st0" d="M151.6,10.58c-11.46,0-22.91,0-34.37,0c-0.03-0.11-0.06-0.23-0.09-0.34c0.82-0.24,1.64-0.68,2.46-0.69
		c9.86-0.05,19.73-0.05,29.59,0c0.83,0,1.67,0.43,2.5,0.66C151.66,10.33,151.63,10.46,151.6,10.58z"/>
	<path class="st0" d="M104.32,19.18c0.43-0.22,0.86-0.62,1.29-0.63c4.96-0.04,9.92-0.02,14.88-0.02c0.09,0,0.19,0.06,0.38,0.36
		c-0.76,0.26-1.52,0.73-2.29,0.74c-4.53,0.07-9.06,0.04-13.58,0.03c-0.18,0-0.37-0.07-0.55-0.11
		C104.41,19.43,104.37,19.31,104.32,19.18z"/>
	<path class="st0" d="M148.36,18.58c0.35-0.02,0.69-0.06,1.04-0.06c4.56-0.01,9.12-0.02,13.68,0.02c0.5,0,0.99,0.39,1.48,0.6
		c-0.03,0.14-0.06,0.28-0.09,0.42c-0.3,0.04-0.59,0.11-0.89,0.11c-4.33,0.01-8.66,0.04-12.98-0.02c-0.77-0.01-1.54-0.41-2.31-0.62
		C148.31,18.88,148.33,18.73,148.36,18.58z"/>
	<path class="st0" d="M114.95,21.99c-0.52,0.23-1.03,0.65-1.55,0.66c-3.76,0.05-7.52,0.03-11.28,0.02c-0.12,0-0.25-0.07-0.4-0.11
		c0.03-0.67,0.36-1.02,0.99-1.02c3.93-0.01,7.85,0,11.78,0c0.12,0,0.23,0.07,0.35,0.11C114.88,21.76,114.92,21.87,114.95,21.99z"/>
	<path class="st0" d="M167.09,22.68c-0.58,0-0.97,0-1.36,0c-3.32,0-6.65-0.01-9.97,0.01c-0.79,0-1.38-0.26-1.9-1.06
		c0.4-0.04,0.67-0.1,0.95-0.1c3.56-0.01,7.11,0.01,10.67-0.01C166.2,21.51,166.74,21.7,167.09,22.68z"/>
	<path class="st0" d="M99.5,25.2c0.38-0.22,0.77-0.63,1.15-0.64c3.43-0.05,6.86-0.02,10.29-0.01c0.09,0,0.19,0.06,0.63,0.21
		c-0.62,0.39-1.04,0.87-1.47,0.88c-3.4,0.05-6.79,0.02-10.19,0.01c-0.09,0-0.17-0.08-0.26-0.12C99.6,25.41,99.55,25.3,99.5,25.2z"/>
	<path class="st0" d="M169.14,25.6c-0.38,0.03-0.67,0.07-0.96,0.07c-2.99,0-5.98-0.01-8.98,0.01c-0.76,0-1.33-0.22-1.71-1.05
		c0.34-0.05,0.58-0.11,0.83-0.11c3.16-0.01,6.32,0,9.47-0.01C168.46,24.51,168.94,24.71,169.14,25.6z"/>
	<path class="st0" d="M97.67,28.2c0.36-0.22,0.72-0.64,1.09-0.64c3.12-0.05,6.24-0.02,9.36-0.02c0.09,0,0.18,0.06,0.63,0.22
		c-0.53,0.39-0.89,0.87-1.26,0.88c-3.12,0.05-6.24,0.02-9.36,0.01c-0.09,0-0.18-0.07-0.27-0.1C97.79,28.42,97.73,28.31,97.67,28.2z"
		/>
	<path class="st0" d="M160.18,27.52c0.76,0,1.38,0,2,0c2.46,0,4.92,0.01,7.38,0c0.69,0,1.16,0.18,1.21,1.06
		c-0.31,0.04-0.6,0.1-0.88,0.1c-2.73,0.01-5.45,0-8.18,0.01C161.01,28.69,160.49,28.48,160.18,27.52z"/>
	<path class="st0" d="M106.38,30.87c-0.39,0.28-0.74,0.76-1.1,0.77c-2.86,0.05-5.72,0.01-8.58-0.01c-0.08,0-0.17-0.09-0.5-0.27
		c0.38-0.32,0.68-0.79,0.98-0.79c2.96-0.04,5.92-0.01,8.88,0.01C106.1,30.58,106.15,30.66,106.38,30.87z"/>
	<path class="st0" d="M172.11,31.58c-0.28,0.04-0.54,0.1-0.79,0.1c-2.57,0.01-5.13,0-7.7,0.01c-0.66,0-1.09-0.21-1.17-1.04
		c0.3-0.04,0.57-0.12,0.85-0.12c2.57-0.01,5.13,0,7.7-0.01C171.69,30.51,172.17,30.69,172.11,31.58z"/>
	<path class="st0" d="M173.3,34.55c-0.22,0.04-0.44,0.12-0.66,0.12c-2.49,0.01-4.98,0-7.47,0.01c-0.69,0-1.03-0.31-1.07-1.16
		c0.58,0,1.1,0,1.61,0c2.19,0,4.38,0.01,6.57,0C172.97,33.52,173.39,33.72,173.3,34.55z"/>
	<path class="st0" d="M104.58,33.71c-0.05,0.63-0.35,0.97-1,0.97c-2.5,0-4.99,0.01-7.49-0.02c-0.25,0-0.5-0.28-0.75-0.43
		c0.22-0.23,0.44-0.66,0.66-0.66c2.76-0.04,5.52-0.01,8.28,0C104.37,33.57,104.46,33.65,104.58,33.71z"/>
	<path class="st0" d="M103.2,36.52c0.14,0.9-0.23,1.16-0.92,1.16c-2.36-0.01-4.71,0.01-7.07-0.02c-0.26,0-0.52-0.31-0.78-0.48
		c0.28-0.21,0.55-0.61,0.84-0.62c2.09-0.05,4.18-0.03,6.27-0.03C102.06,36.52,102.59,36.52,103.2,36.52z"/>
	<path class="st0" d="M174.36,37.58c-0.31,0.03-0.63,0.09-0.94,0.09c-2.23,0.01-4.47-0.01-6.7,0.01c-0.69,0.01-1.16-0.18-1.28-1.02
		c0.28-0.05,0.53-0.13,0.77-0.13c2.37-0.01,4.73,0,7.1-0.01C173.96,36.52,174.42,36.69,174.36,37.58z"/>
	<path class="st0" d="M166.37,39.52c1.09,0,2.14,0,3.2,0c1.53,0,3.05,0.01,4.58,0c0.65-0.01,0.99,0.25,0.99,1
		c-0.23,0.06-0.44,0.15-0.65,0.15c-2.39,0.01-4.78,0-7.17,0.01C166.6,40.68,166.29,40.38,166.37,39.52z"/>
	<path class="st0" d="M102.35,39.54c0.03,0.89-0.33,1.14-0.97,1.14c-2.32-0.01-4.64,0.01-6.96-0.02c-0.24,0-0.48-0.29-0.71-0.44
		c0.19-0.23,0.37-0.64,0.56-0.65C96.94,39.53,99.62,39.54,102.35,39.54z"/>
	<path class="st0" d="M166.38,58.66c-0.14-0.81,0.15-1.13,0.83-1.13c2.36,0,4.72-0.01,7.08,0.02c0.25,0,0.49,0.29,0.74,0.44
		c-0.2,0.22-0.39,0.64-0.6,0.64C171.75,58.68,169.07,58.66,166.38,58.66z"/>
	<path class="st0" d="M102.38,58.68c-0.6,0-1.15,0-1.71,0c-1.96,0-3.92-0.01-5.88,0c-0.66,0-1.11-0.18-1.03-1.05
		c0.24-0.04,0.49-0.11,0.73-0.11c2.26-0.01,4.52,0,6.78-0.01C101.91,57.52,102.39,57.64,102.38,58.68z"/>
	<path class="st0" d="M127.25,7.59c1.98-0.98,13.18-0.95,15.12,0C137.2,7.59,132.22,7.59,127.25,7.59z"/>
	<path class="st0" d="M171.4,43.68c-1.16,0-2.33,0.05-3.48-0.03c-0.31-0.02-0.59-0.43-0.88-0.66c0.28-0.15,0.55-0.43,0.83-0.43
		c2.26-0.04,4.51-0.02,6.77-0.02c0.5,0,1.02,0.06,0.94,0.69c-0.02,0.19-0.58,0.43-0.9,0.45C173.6,43.71,172.5,43.68,171.4,43.68z"/>
	<path class="st0" d="M93.3,54.61c0.32-0.03,0.64-0.08,0.96-0.08c2.16-0.01,4.32,0,6.48-0.01c0.67,0,1.09,0.2,1.03,1.02
		c-0.23,0.05-0.45,0.13-0.66,0.13c-2.32,0.01-4.65,0-6.97,0.01C93.44,55.68,93.15,55.39,93.3,54.61z"/>
	<path class="st0" d="M101.74,42.54c0.03,0.88-0.31,1.15-0.96,1.14c-2.29-0.01-4.58,0.01-6.86-0.03c-0.23,0-0.46-0.31-0.69-0.47
		c0.21-0.21,0.42-0.61,0.63-0.61C96.46,42.53,99.07,42.54,101.74,42.54z"/>
	<path class="st0" d="M171.6,46.68c-1.13,0-2.26,0.04-3.38-0.03c-0.28-0.02-0.54-0.39-0.81-0.59c0.27-0.18,0.53-0.5,0.81-0.51
		c2.29-0.04,4.58-0.04,6.87,0c0.26,0,0.51,0.36,0.76,0.55c-0.25,0.19-0.5,0.54-0.76,0.55C173.93,46.71,172.76,46.67,171.6,46.68z"/>
	<path class="st0" d="M175.54,54.54c0.03,0.89-0.31,1.15-0.96,1.14c-2.29-0.01-4.58,0.01-6.86-0.03c-0.23,0-0.46-0.31-0.69-0.47
		c0.21-0.21,0.42-0.61,0.63-0.61C170.27,54.53,172.88,54.54,175.54,54.54z"/>
	<path class="st0" d="M171.8,49.68c-1.13,0-2.26,0.04-3.39-0.03c-0.3-0.02-0.58-0.36-0.86-0.55c0.29-0.19,0.57-0.55,0.86-0.55
		c2.26-0.05,4.52-0.05,6.77,0c0.27,0.01,0.54,0.39,0.81,0.6c-0.27,0.18-0.53,0.49-0.81,0.5C174.06,49.71,172.93,49.68,171.8,49.68z"
		/>
	<path class="st0" d="M171.57,52.68c-1.13,0-2.26,0.03-3.39-0.02c-0.28-0.01-0.56-0.29-0.84-0.45c0.26-0.23,0.51-0.64,0.78-0.65
		c2.33-0.05,4.66-0.05,6.98,0c0.25,0,0.49,0.37,0.74,0.57c-0.26,0.18-0.51,0.51-0.78,0.53C173.9,52.71,172.73,52.68,171.57,52.68z"
		/>
	<path class="st0" d="M97.16,52.68c-1.09,0-2.19,0.05-3.28-0.03c-0.32-0.02-0.62-0.39-0.93-0.6c0.29-0.17,0.58-0.49,0.88-0.5
		c2.19-0.04,4.38-0.02,6.57-0.03c0.51,0,1.01,0.08,0.94,0.7c-0.02,0.18-0.57,0.42-0.89,0.44C99.35,52.71,98.25,52.68,97.16,52.68z"
		/>
	<path class="st0" d="M97.3,45.53c1.09,0,2.19-0.03,3.28,0.02c0.27,0.01,0.52,0.31,0.78,0.48c-0.24,0.22-0.48,0.61-0.72,0.62
		c-2.35,0.05-4.71,0.04-7.06,0.01c-0.21,0-0.42-0.29-0.63-0.44c0.22-0.23,0.44-0.63,0.68-0.65C94.84,45.5,96.07,45.53,97.3,45.53
		C97.3,45.53,97.3,45.53,97.3,45.53z"/>
	<path class="st0" d="M97.03,49.68c-1.1,0-2.2,0.04-3.3-0.03c-0.28-0.02-0.54-0.38-0.81-0.58c0.26-0.18,0.52-0.51,0.78-0.51
		c2.26-0.04,4.53-0.04,6.79,0c0.26,0,0.51,0.35,0.77,0.53c-0.25,0.2-0.49,0.55-0.74,0.56C99.36,49.71,98.19,49.67,97.03,49.68
		C97.03,49.67,97.03,49.68,97.03,49.68z"/>
	<path class="st0" d="M344.05,13.19c0.47-0.03,0.82-0.06,1.17-0.06c13.17,0,26.33,0,39.5,0c0.3,0,0.62-0.05,0.89,0.05
		c0.19,0.07,0.43,0.33,0.44,0.52c0,0.18-0.22,0.46-0.41,0.54c-0.23,0.1-0.52,0.05-0.79,0.05c-13,0-26,0-39,0.01
		C345.1,14.29,344.46,14.18,344.05,13.19z"/>
	<path class="st0" d="M347.07,16.19c0.44-0.03,0.78-0.07,1.13-0.07c12.2,0,24.4,0,36.6,0c0.27,0,0.56-0.05,0.79,0.04
		c0.2,0.08,0.48,0.35,0.45,0.5c-0.04,0.22-0.27,0.45-0.49,0.58c-0.15,0.09-0.39,0.04-0.59,0.04c-12.07,0-24.13,0-36.2,0.01
		C348.01,17.29,347.41,17.12,347.07,16.19z"/>
	<path class="st0" d="M209.2,37.49c-1.13,0-2.26,0.03-3.38-0.02c-0.24-0.01-0.47-0.3-0.7-0.47c0.23-0.21,0.45-0.6,0.69-0.61
		c2.25-0.05,4.51-0.05,6.76,0c0.24,0,0.47,0.39,0.7,0.6c-0.26,0.17-0.52,0.46-0.79,0.48C211.39,37.52,210.3,37.49,209.2,37.49z"/>
	<path class="st0" d="M209.17,13.48c-1.13,0-2.26,0.03-3.38-0.02c-0.23-0.01-0.45-0.32-0.67-0.5c0.21-0.2,0.41-0.57,0.62-0.57
		c2.29-0.04,4.57-0.05,6.86,0c0.23,0,0.44,0.41,0.66,0.63c-0.24,0.16-0.47,0.44-0.72,0.45C211.43,13.51,210.3,13.49,209.17,13.48z"
		/>
	<path class="st0" d="M209.2,16.48c-1.13,0-2.26,0.03-3.38-0.02c-0.24-0.01-0.46-0.31-0.69-0.47c0.23-0.21,0.46-0.6,0.69-0.6
		c2.25-0.05,4.51-0.05,6.76,0c0.23,0,0.46,0.39,0.69,0.6c-0.23,0.16-0.46,0.46-0.69,0.47C211.46,16.51,210.33,16.48,209.2,16.48z"/>
	<path class="st0" d="M209.2,34.49c-1.13,0-2.26,0.03-3.38-0.02c-0.24-0.01-0.46-0.31-0.69-0.47c0.23-0.21,0.46-0.6,0.69-0.6
		c2.25-0.05,4.51-0.05,6.76,0c0.23,0,0.46,0.39,0.69,0.6c-0.23,0.16-0.46,0.46-0.69,0.47C211.45,34.51,210.33,34.49,209.2,34.49z"/>
	<path class="st0" d="M209.16,40.49c-1.13,0-2.26,0.03-3.38-0.02c-0.23-0.01-0.44-0.33-0.66-0.5c0.21-0.2,0.42-0.56,0.63-0.56
		c2.29-0.04,4.57-0.04,6.86,0c0.22,0,0.44,0.35,0.66,0.54c-0.24,0.19-0.48,0.52-0.73,0.53C211.42,40.52,210.29,40.49,209.16,40.49z"
		/>
	<path class="st0" d="M209.21,43.49c-1.13,0-2.26,0.03-3.38-0.02c-0.24-0.01-0.47-0.3-0.7-0.47c0.23-0.21,0.45-0.6,0.69-0.61
		c2.25-0.05,4.51-0.05,6.76,0c0.24,0,0.47,0.39,0.7,0.6c-0.26,0.17-0.52,0.46-0.79,0.48C211.4,43.52,210.3,43.49,209.21,43.49z"/>
	<path class="st0" d="M209.09,31.49c-1.06,0-2.12,0.03-3.18-0.02c-0.27-0.01-0.52-0.31-0.79-0.48c0.23-0.21,0.46-0.59,0.7-0.6
		c2.25-0.05,4.51-0.05,6.76,0c0.23,0,0.46,0.4,0.69,0.61c-0.23,0.16-0.46,0.45-0.7,0.46C211.42,31.51,210.25,31.49,209.09,31.49z"/>
	<path class="st0" d="M209.2,10.48c-1.13,0-2.26,0.03-3.38-0.02c-0.24-0.01-0.46-0.3-0.69-0.47c0.23-0.21,0.46-0.6,0.69-0.6
		c2.25-0.05,4.51-0.05,6.76,0c0.24,0,0.46,0.39,0.69,0.6c-0.23,0.16-0.45,0.46-0.69,0.47C211.46,10.51,210.33,10.48,209.2,10.48z"/>
	<path class="st0" d="M209.2,19.49c-1.13,0-2.26,0.03-3.38-0.02c-0.24-0.01-0.46-0.31-0.69-0.47c0.23-0.21,0.46-0.6,0.69-0.6
		c2.25-0.05,4.51-0.05,6.76,0c0.23,0,0.46,0.39,0.69,0.6c-0.23,0.16-0.46,0.46-0.69,0.47C211.46,19.51,210.33,19.49,209.2,19.49z"/>
	<path class="st0" d="M209.2,28.49c-1.13,0-2.26,0.03-3.38-0.02c-0.24-0.01-0.46-0.31-0.69-0.47c0.23-0.21,0.46-0.6,0.69-0.6
		c2.25-0.05,4.51-0.05,6.76,0c0.24,0,0.46,0.39,0.69,0.6c-0.23,0.16-0.46,0.46-0.69,0.47C211.46,28.51,210.33,28.49,209.2,28.49z"/>
	<path class="st0" d="M209.17,52.49c-1.13,0-2.26,0.03-3.38-0.02c-0.23-0.01-0.44-0.32-0.67-0.5c0.21-0.2,0.41-0.57,0.62-0.57
		c2.29-0.04,4.57-0.05,6.86,0c0.23,0,0.44,0.41,0.66,0.63c-0.24,0.15-0.47,0.43-0.72,0.44C211.43,52.51,210.3,52.49,209.17,52.49z"
		/>
	<path class="st0" d="M209.22,49.49c-1.13,0-2.26,0.03-3.38-0.02c-0.24-0.01-0.47-0.3-0.71-0.46c0.23-0.22,0.45-0.61,0.68-0.62
		c2.25-0.05,4.51-0.05,6.76,0c0.24,0,0.47,0.38,0.71,0.59c-0.26,0.17-0.51,0.47-0.78,0.49C211.41,49.52,210.31,49.49,209.22,49.49z"
		/>
	<path class="st0" d="M209.2,25.49c-1.13,0-2.26,0.03-3.38-0.02c-0.24-0.01-0.46-0.3-0.7-0.47c0.23-0.21,0.45-0.6,0.69-0.61
		c2.25-0.05,4.51-0.05,6.76,0c0.24,0,0.46,0.39,0.7,0.6c-0.23,0.17-0.45,0.46-0.69,0.47C211.46,25.51,210.33,25.49,209.2,25.49z"/>
	<path class="st0" d="M209.1,46.49c-1.09,0-2.19,0.03-3.28-0.02c-0.24-0.01-0.46-0.31-0.69-0.47c0.23-0.21,0.46-0.6,0.69-0.6
		c2.25-0.05,4.51-0.05,6.76,0c0.23,0,0.46,0.39,0.69,0.6c-0.23,0.16-0.46,0.46-0.69,0.47C211.42,46.51,210.26,46.49,209.1,46.49z"/>
	<path class="st0" d="M209.18,22.49c-1.09,0-2.19,0.03-3.28-0.02c-0.27-0.01-0.52-0.32-0.78-0.49c0.24-0.21,0.47-0.58,0.71-0.59
		c2.25-0.04,4.51-0.04,6.76,0c0.23,0,0.45,0.4,0.68,0.62c-0.24,0.16-0.47,0.44-0.71,0.46C211.44,22.51,210.31,22.49,209.18,22.49z"
		/>
</g>
</svg>
